<svg xmlns="http://www.w3.org/2000/svg" width="186" height="134.69" viewBox="0 0 186 134.69">
  <defs>
    <style>
      .cls-1 {
        fill: #ccb375;
      }

      .cls-2 {
        fill: #7a693c;
      }

      .cls-3 {
        fill: #f52f57;
      }

      .cls-4 {
        fill: #feca57;
      }

      .cls-5 {
        fill: #f0c41b;
      }

      .cls-6 {
        fill: #f3d55c;
      }
    </style>
  </defs>
  <g id="_001-card" data-name="001-card" transform="translate(0 -8)">
    <path id="XMLID_128_" class="cls-1" d="M175.683,142.69H10.317A10.313,10.313,0,0,1,0,132.373V18.317A10.313,10.313,0,0,1,10.317,8H175.683A10.315,10.315,0,0,1,186,18.317V132.373a10.315,10.315,0,0,1-10.317,10.317" transform="translate(0 0)"/>
    <path id="XMLID_127_" class="cls-2" d="M37.069,36H8.207a3.207,3.207,0,1,0,0,6.414H37.069a3.207,3.207,0,1,0,0-6.414" transform="translate(11.034 61.793)"/>
    <path id="XMLID_126_" class="cls-2" d="M53.276,39.207A3.206,3.206,0,0,0,50.069,36H21.207a3.207,3.207,0,1,0,0,6.414H50.069a3.206,3.206,0,0,0,3.207-3.207" transform="translate(39.724 61.793)"/>
    <path id="XMLID_125_" class="cls-2" d="M11.414,41H8.207a3.207,3.207,0,1,0,0,6.414h3.207a3.207,3.207,0,0,0,0-6.414" transform="translate(11.034 72.828)"/>
    <path id="XMLID_124_" class="cls-2" d="M19.621,41H13.207a3.207,3.207,0,0,0,0,6.414h6.414a3.207,3.207,0,0,0,0-6.414" transform="translate(22.069 72.828)"/>
    <path id="XMLID_123_" class="cls-2" d="M22.414,41H19.207a3.207,3.207,0,0,0,0,6.414h3.207a3.207,3.207,0,0,0,0-6.414" transform="translate(35.31 72.828)"/>
    <path id="XMLID_122_" class="cls-2" d="M30.621,41H24.207a3.207,3.207,0,0,0,0,6.414h6.414a3.207,3.207,0,0,0,0-6.414" transform="translate(46.345 72.828)"/>
    <path id="XMLID_121_" class="cls-2" d="M27.93,41.9a3.22,3.22,0,0,0,4.554,4.554A3.22,3.22,0,0,0,27.93,41.9" transform="translate(59.586 72.855)"/>
    <path id="XMLID_120_" class="cls-3" d="M72.483,52.241A19.241,19.241,0,1,1,53.241,33,19.24,19.24,0,0,1,72.483,52.241" transform="translate(75.034 55.172)"/>
    <path id="XMLID_119_" class="cls-4" d="M79.483,52.241A19.241,19.241,0,1,1,60.241,33,19.24,19.24,0,0,1,79.483,52.241" transform="translate(90.483 55.172)"/>
    <path id="XMLID_118_" class="cls-5" d="M53.286,54.483H10.025A4.027,4.027,0,0,1,6,50.458V20.025A4.027,4.027,0,0,1,10.025,16H53.286a4.025,4.025,0,0,1,4.025,4.025V50.458a4.025,4.025,0,0,1-4.025,4.025" transform="translate(13.241 17.655)"/>
    <path id="XMLID_115_" class="cls-4" d="M55.493,59.9H12.232A7.241,7.241,0,0,1,5,52.665V22.232A7.241,7.241,0,0,1,12.232,15H55.493a7.241,7.241,0,0,1,7.232,7.232V52.665A7.241,7.241,0,0,1,55.493,59.9M12.232,21.414a.815.815,0,0,0-.818.818V52.665a.815.815,0,0,0,.818.818H55.493a.817.817,0,0,0,.818-.818V22.232a.817.817,0,0,0-.818-.818Z" transform="translate(11.034 15.448)"/>
    <path id="XMLID_114_" class="cls-5" d="M44.069,20.025A4.025,4.025,0,0,0,40.044,16H16.025A4.023,4.023,0,0,0,12,20.025V50.458a4.023,4.023,0,0,0,4.025,4.025H20.8a4.025,4.025,0,0,0,4.025-4.025V32.852a4.025,4.025,0,0,1,4.025-4.025H40.044A4.025,4.025,0,0,0,44.069,24.8Z" transform="translate(26.483 17.655)"/>
    <path id="XMLID_111_" class="cls-6" d="M23.01,59.9H18.232A7.241,7.241,0,0,1,11,52.665V22.232A7.241,7.241,0,0,1,18.232,15h24.02a7.241,7.241,0,0,1,7.232,7.232V27.01a7.241,7.241,0,0,1-7.232,7.232H31.059a.815.815,0,0,0-.818.818V52.665A7.241,7.241,0,0,1,23.01,59.9M18.232,21.414a.815.815,0,0,0-.818.818V52.665a.815.815,0,0,0,.818.818H23.01a.817.817,0,0,0,.818-.818V35.059a7.241,7.241,0,0,1,7.232-7.232H42.251a.817.817,0,0,0,.818-.818V22.232a.817.817,0,0,0-.818-.818Z" transform="translate(24.276 15.448)"/>
    <line id="XMLID_110_" class="cls-5" x2="19.241" transform="translate(51.31 59.31)"/>
    <path id="XMLID_109_" class="cls-6" d="M37.448,29.414H18.207a3.207,3.207,0,0,1,0-6.414H37.448a3.207,3.207,0,0,1,0,6.414" transform="translate(33.103 33.103)"/>
    <line id="XMLID_108_" class="cls-5" x1="19.241" transform="translate(19.241 46.483)"/>
    <path id="XMLID_107_" class="cls-6" d="M27.448,25.414H8.207a3.207,3.207,0,1,1,0-6.414H27.448a3.207,3.207,0,1,1,0,6.414" transform="translate(11.034 24.276)"/>
    <line id="XMLID_106_" class="cls-5" x1="19.241" transform="translate(19.241 59.31)"/>
    <path id="XMLID_105_" class="cls-6" d="M27.448,29.414H8.207a3.207,3.207,0,0,1,0-6.414H27.448a3.207,3.207,0,1,1,0,6.414" transform="translate(11.034 33.103)"/>
  </g>
</svg>
