<svg id="_001-search" data-name="001-search" xmlns="http://www.w3.org/2000/svg" xmlns:xlink="http://www.w3.org/1999/xlink" width="134.375" height="123.032" viewBox="0 0 134.375 123.032">
  <defs>
    <style>
      .cls-1 {
        fill: url(#linear-gradient);
      }

      .cls-2 {
        fill: #9eb644;
      }

      .cls-3 {
        fill: #ffe6a4;
      }

      .cls-4 {
        fill: none;
      }

      .cls-5 {
        fill: #503837;
      }

      .cls-16, .cls-6 {
        fill: #fff;
      }

      .cls-7 {
        fill: url(#linear-gradient-2);
      }

      .cls-8 {
        fill: url(#linear-gradient-3);
      }

      .cls-9 {
        fill: #ff5d00;
      }

      .cls-10 {
        fill: url(#linear-gradient-4);
      }

      .cls-11 {
        fill: #816965;
      }

      .cls-12 {
        fill: #654e48;
      }

      .cls-13 {
        fill: url(#linear-gradient-5);
      }

      .cls-14 {
        fill: #c46f5f;
      }

      .cls-15 {
        fill: #f52f57;
      }

      .cls-16 {
        opacity: 0.6;
      }

      .cls-17 {
        fill: #ee575d;
      }
    </style>
    <linearGradient id="linear-gradient" x1="0.191" y1="-2.151" x2="0.832" y2="-2.792" gradientUnits="objectBoundingBox">
      <stop offset="0" stop-color="#9eb644"/>
      <stop offset="1" stop-color="#738611"/>
    </linearGradient>
    <linearGradient id="linear-gradient-2" x1="0.824" y1="-2.839" x2="0.062" y2="-1.464" gradientUnits="objectBoundingBox">
      <stop offset="0" stop-color="#e2edf2" stop-opacity="0"/>
      <stop offset="1" stop-color="#a5b0b8"/>
    </linearGradient>
    <linearGradient id="linear-gradient-3" x1="0.591" y1="-1.132" x2="0.345" y2="-0.472" xlink:href="#linear-gradient-2"/>
    <linearGradient id="linear-gradient-4" x1="0.783" y1="1.174" x2="0.333" y2="1.558" gradientUnits="objectBoundingBox">
      <stop offset="0" stop-color="#4975ad" stop-opacity="0"/>
      <stop offset="1" stop-color="#114f77"/>
    </linearGradient>
    <linearGradient id="linear-gradient-5" x1="0.211" y1="-7.093" x2="0.826" y2="-7.993" xlink:href="#linear-gradient"/>
  </defs>
  <circle id="Ellipse_21" data-name="Ellipse 21" class="cls-1" cx="14.198" cy="14.198" r="14.198" transform="translate(90.609 89.659)"/>
  <path id="Path_911" data-name="Path 911" class="cls-2" d="M419.86,421.454a16.336,16.336,0,0,1-1.133,6H388.205a16.4,16.4,0,1,1,31.655-6Z" transform="translate(-285.484 -304.423)"/>
  <path id="Path_912" data-name="Path 912" class="cls-3" d="M138.838,77.709V150.8H43.9V77.709L91.369,29.953Z" transform="translate(-32.378 -27.763)"/>
  <path id="Path_913" data-name="Path 913" class="cls-4" d="M138.837,77.709V150.8H108.865L43.9,85.833V77.709L91.369,29.954Z" transform="translate(-32.379 -27.764)"/>
  <path id="Path_914" data-name="Path 914" class="cls-4" d="M142.273,339.836H95.843L70.321,314.314a4.084,4.084,0,0,1-1.872-3.426V290.346a4.089,4.089,0,0,1,4.083-4.083H87.341a4.086,4.086,0,0,1,3.429,1.872l-.111.088Z" transform="translate(-50.484 -216.804)"/>
  <path id="Path_915" data-name="Path 915" class="cls-5" d="M94.068,319.3H79.26a1.691,1.691,0,0,1-1.691-1.691V297.074a1.691,1.691,0,0,1,1.691-1.691H94.068a1.691,1.691,0,0,1,1.691,1.691v20.539A1.69,1.69,0,0,1,94.068,319.3Z" transform="translate(-57.211 -223.531)"/>
  <path id="Path_916" data-name="Path 916" class="cls-6" d="M87.342,314.969H72.533a4.089,4.089,0,0,1-4.084-4.084V290.346a4.089,4.089,0,0,1,4.084-4.084H87.341a4.089,4.089,0,0,1,4.084,4.084v20.539A4.089,4.089,0,0,1,87.342,314.969Zm-14.106-4.787h13.4V291.049h-13.4Z" transform="translate(-50.484 -216.804)"/>
  <path id="Path_917" data-name="Path 917" class="cls-4" d="M324.554,294.736v45.1H323.1l-25.523-25.523a4.079,4.079,0,0,1-1.875-3.426V290.346a4.089,4.089,0,0,1,4.086-4.083h14.806a4.086,4.086,0,0,1,3.43,1.872l.059.046-.039.043Z" transform="translate(-218.093 -216.804)"/>
  <path id="Path_918" data-name="Path 918" class="cls-5" d="M321.322,319.3H306.514a1.691,1.691,0,0,1-1.691-1.691V297.074a1.691,1.691,0,0,1,1.691-1.691h14.808a1.691,1.691,0,0,1,1.691,1.691v20.539A1.69,1.69,0,0,1,321.322,319.3Z" transform="translate(-224.822 -223.531)"/>
  <path id="Path_919" data-name="Path 919" class="cls-6" d="M314.6,314.969H299.787a4.089,4.089,0,0,1-4.084-4.084V290.346a4.089,4.089,0,0,1,4.084-4.084H314.6a4.089,4.089,0,0,1,4.084,4.084v20.539A4.089,4.089,0,0,1,314.6,314.969Zm-14.105-4.787h13.4V291.049h-13.4Z" transform="translate(-218.095 -216.804)"/>
  <path id="Path_920" data-name="Path 920" class="cls-7" d="M295.7,312.3l4.787,4.787V304a32.2,32.2,0,0,1-4.787-.385Z" transform="translate(-218.095 -229.599)"/>
  <path id="Path_921" data-name="Path 921" class="cls-8" d="M341.493,312.653V292.114a4.08,4.08,0,0,0-1.917-3.455,31.954,31.954,0,0,1-12.942,4.158h10.072V311.95h-7.515l4.786,4.787h3.431A4.088,4.088,0,0,0,341.493,312.653Z" transform="translate(-240.909 -218.572)"/>
  <path id="Path_922" data-name="Path 922" class="cls-9" d="M117.195,78.159,61.848,22.795a4.04,4.04,0,0,0-5.713,0L.775,78.155a2.643,2.643,0,0,0,0,3.738l2.359,2.359a2.643,2.643,0,0,0,3.738,0L58.24,32.884a1.064,1.064,0,0,1,1.5,0L111.1,84.256a2.643,2.643,0,0,0,3.738,0l2.359-2.359A2.643,2.643,0,0,0,117.195,78.159Z" transform="translate(-0.001 -21.611)"/>
  <path id="Path_923" data-name="Path 923" class="cls-10" d="M227.626,22.793a4.027,4.027,0,0,0-2.857-1.183V32.571a1.06,1.06,0,0,1,.752.312l51.354,51.372a2.643,2.643,0,0,0,3.738,0l2.359-2.359a2.643,2.643,0,0,0,0-3.738Z" transform="translate(-165.778 -21.61)"/>
  <path id="Path_924" data-name="Path 924" class="cls-11" d="M187.075,333V281.133a4.142,4.142,0,0,1,4.142-4.142h11.5a4.142,4.142,0,0,1,4.142,4.142V333Z" transform="translate(-137.977 -209.966)"/>
  <path id="Path_925" data-name="Path 925" class="cls-5" d="M202.425,326.113h-4.9V275.661a3.113,3.113,0,0,0-3.1-3.1h-8.677a3.1,3.1,0,0,0-3.1,3.1v50.452h-4.9V272.422a4.764,4.764,0,0,1,4.764-4.764h15.157a4.764,4.764,0,0,1,4.764,4.764v53.691Z" transform="translate(-131.092 -203.082)"/>
  <circle id="Ellipse_22" data-name="Ellipse 22" class="cls-6" cx="2.234" cy="2.234" r="2.234" transform="translate(53.247 84.258)"/>
  <rect id="Rectangle_67" data-name="Rectangle 67" class="cls-12" width="94.94" height="13.07" transform="translate(11.52 109.96)"/>
  <path id="Path_926" data-name="Path 926" class="cls-2" d="M27.9,431.72a13.905,13.905,0,0,1-.964,5.107H.964A13.955,13.955,0,1,1,27.9,431.72Z" transform="translate(0 -313.796)"/>
  <path id="Path_927" data-name="Path 927" class="cls-13" d="M83.712,447.828a10.1,10.1,0,0,1-.7,3.7H64.17a10.123,10.123,0,1,1,19.541-3.7Z" transform="translate(-46.813 -328.502)"/>
  <path id="Path_928" data-name="Path 928" class="cls-14" d="M376,250.178l6.4-6.4,11.514,11.514-6.4,6.4Z" transform="translate(-277.317 -185.468)"/>
  <path id="Path_929" data-name="Path 929" class="cls-15" d="M416.518,287.978,420.2,284.3a5.028,5.028,0,0,1,7.111,0L439.019,296a5.028,5.028,0,0,1,0,7.111l-3.683,3.683a5.028,5.028,0,0,1-7.111,0l-11.706-11.706A5.028,5.028,0,0,1,416.518,287.978Z" transform="translate(-306.116 -214.267)"/>
  <circle id="Ellipse_23" data-name="Ellipse 23" class="cls-16" cx="28.585" cy="28.585" r="28.585" transform="translate(54.006 13.634)"/>
  <path id="Path_930" data-name="Path 930" class="cls-17" d="M234.872,131.054a28.4,28.4,0,1,1,28.4-28.4A28.435,28.435,0,0,1,234.872,131.054Zm0-50.459a22.056,22.056,0,1,0,22.056,22.056A22.081,22.081,0,0,0,234.872,80.595Z" transform="translate(-152.28 -60.433)"/>
  <path id="Path_931" data-name="Path 931" class="cls-15" d="M224.257,124.215a32.18,32.18,0,1,1,32.181-32.18A32.217,32.217,0,0,1,224.257,124.215Zm0-57.17a24.989,24.989,0,1,0,24.989,24.989A25.018,25.018,0,0,0,224.257,67.045Z" transform="translate(-141.666 -49.817)"/>
</svg>
