<svg id="_004-sports-and-competition" data-name="004-sports-and-competition" xmlns="http://www.w3.org/2000/svg" width="120.301" height="119.995" viewBox="0 0 120.301 119.995">
  <defs>
    <style>
      .cls-1 {
        fill: #feca57;
      }

      .cls-2 {
        fill: #f4b537;
      }

      .cls-3 {
        fill: #e4eaf8;
      }

      .cls-4 {
        fill: #e59d1f;
      }

      .cls-5 {
        fill: #ffcdbf;
      }

      .cls-6 {
        fill: #ffbeab;
      }

      .cls-7 {
        fill: #452fe3;
      }
    </style>
  </defs>
  <path id="Path_977" data-name="Path 977" class="cls-1" d="M226.027,197.782a19.229,19.229,0,0,1-5.937-.934L217,210.506h18.047l-3.087-13.658A19.231,19.231,0,0,1,226.027,197.782Zm0,0" transform="translate(-166.016 -150.713)"/>
  <path id="Path_978" data-name="Path 978" class="cls-2" d="M226.916,197.76c-.295.014-.59.022-.888.022a19.24,19.24,0,0,1-5.937-.934L217,210.506h7.031Zm0,0" transform="translate(-166.016 -150.713)"/>
  <path id="Path_979" data-name="Path 979" class="cls-3" d="M311.646,78.216h-3.774a1.832,1.832,0,1,1,0-3.665h3.774a10.7,10.7,0,0,0,10.687-10.687V52.252a.494.494,0,0,0-.494-.493h-10.4a1.832,1.832,0,0,1,0-3.665h10.4A4.162,4.162,0,0,1,326,52.252V63.864A14.368,14.368,0,0,1,311.646,78.216Zm0,0" transform="translate(-234.131 -36.911)"/>
  <path id="Path_980" data-name="Path 980" class="cls-3" d="M138.936,78.219h-4.752a14.369,14.369,0,0,1-14.352-14.352V52.254A4.162,4.162,0,0,1,123.99,48.1h11.378a1.832,1.832,0,1,1,0,3.664H123.99a.494.494,0,0,0-.493.493V63.868a10.7,10.7,0,0,0,10.686,10.687h4.753a1.832,1.832,0,1,1,0,3.664Zm0,0" transform="translate(-91.676 -36.914)"/>
  <path id="Path_981" data-name="Path 981" class="cls-1" d="M223.684,255.329v-.654a2.824,2.824,0,0,0-2.816-2.815H198.374a2.823,2.823,0,0,0-2.815,2.815v.654a2.823,2.823,0,0,0,2.815,2.815h22.494A2.823,2.823,0,0,0,223.684,255.329Zm0,0" transform="translate(-149.61 -192.799)"/>
  <path id="Path_982" data-name="Path 982" class="cls-1" d="M173.477,24.129V46.885a19.251,19.251,0,0,0,38.5,0V24.129Zm0,0" transform="translate(-132.716 -18.577)"/>
  <g id="Group_173" data-name="Group 173" transform="translate(35.171 0)">
    <path id="Path_983" data-name="Path 983" class="cls-1" d="M180.559,46.885V24.129h-7.083V46.885A19.237,19.237,0,0,0,196.269,65.8,19.252,19.252,0,0,1,180.559,46.885Zm0,0" transform="translate(-167.887 -18.577)"/>
    <path id="Path_984" data-name="Path 984" class="cls-2" d="M196.866.5H152.19a2.51,2.51,0,0,0-2.5,2.5V4.281a2.51,2.51,0,0,0,2.5,2.5h44.675a2.51,2.51,0,0,0,2.5-2.5V3A2.511,2.511,0,0,0,196.866.5Zm0,0" transform="translate(-149.688 -0.5)"/>
    <path id="Path_985" data-name="Path 985" class="cls-4" d="M220.868,257.137H198.374a2.81,2.81,0,0,1-2.15-1,2.8,2.8,0,0,0-.665,1.811v.654a2.823,2.823,0,0,0,2.815,2.815h22.494a2.824,2.824,0,0,0,2.816-2.815v-.654a2.8,2.8,0,0,0-.666-1.811A2.811,2.811,0,0,1,220.868,257.137Zm0,0" transform="translate(-184.781 -196.068)"/>
  </g>
  <path id="Path_986" data-name="Path 986" class="cls-4" d="M196.866,5.778H152.19a2.5,2.5,0,0,1-2-1,2.483,2.483,0,0,0-.5,1.5V7.551a2.51,2.51,0,0,0,2.5,2.5h44.675a2.51,2.51,0,0,0,2.5-2.5V6.272a2.484,2.484,0,0,0-.506-1.5A2.5,2.5,0,0,1,196.866,5.778Zm0,0" transform="translate(-114.517 -3.769)"/>
  <path id="Path_987" data-name="Path 987" class="cls-5" d="M45.471,177.254a5.016,5.016,0,0,0,.508-1.866l1.047-14.515a5.04,5.04,0,0,0-9.573-2.542C38.01,159.134,37.143,157.24,45.471,177.254Zm0,0" transform="translate(-28.653 -119.055)"/>
  <path id="Path_988" data-name="Path 988" class="cls-6" d="M42.465,160.231a3.529,3.529,0,0,1,1.593-4.317,5.022,5.022,0,0,0-6.606,2.417c.557.8-.31-1.09,8.018,18.924a5.028,5.028,0,0,0,.508-1.866l.408-5.647C41.83,158.791,42.809,161.169,42.465,160.231Zm0,0" transform="translate(-28.653 -119.055)"/>
  <path id="Path_989" data-name="Path 989" class="cls-5" d="M29.092,216.02l.225,3.31,21.057-1.543a75.127,75.127,0,0,0-2.255-13.519c-1.309-4.857-2.366-6.279-8.233-13.554-1.961-2.34-3.5-2.943-14.84-9.271a4.717,4.717,0,0,0-6.464,1.493l-8.41-20.212c-.141-.419-1.612-5.6-6.449-4.435-4.44,1.217-3.758,5.993-3.568,6.9l7.8,28.671a.009.009,0,0,1,0,0,12.443,12.443,0,0,0,5.643,7.868l9.087,5.071C26.165,208.746,28.8,212.087,29.092,216.02Zm0,0" transform="translate(-0.002 -121.085)"/>
  <path id="Path_990" data-name="Path 990" class="cls-5" d="M33.933,216.02c-.288-3.937-2.932-7.277-6.41-9.219l-9.087-5.071a12.44,12.44,0,0,1-5.643-7.869.009.009,0,0,1,0,0L5,165.187c-.173-.814-.74-4.766,2.39-6.434a4.693,4.693,0,0,0-3.663-.463c-4.44,1.217-3.759,5.992-3.569,6.9l7.8,28.671a.009.009,0,0,1,0,0,12.443,12.443,0,0,0,5.643,7.869l9.087,5.071c3.483,1.944,6.122,5.285,6.41,9.219l.225,3.309,4.818-.352Zm0,0" transform="translate(-0.002 -121.086)"/>
  <path id="Path_991" data-name="Path 991" class="cls-6" d="M77.273,265.113a1.816,1.816,0,0,0,1.1-3.258c-.078-.06-7.859-6.005-11.138-8.491a2.254,2.254,0,0,1-.8-2.984l-1.707-4.1-1.054,1.568a6.053,6.053,0,0,0,1.363,8.413c3.273,2.481,11.049,8.422,11.127,8.482A1.81,1.81,0,0,0,77.273,265.113Zm0,0" transform="translate(-47.863 -188.529)"/>
  <path id="Path_992" data-name="Path 992" class="cls-7" d="M108.566,433.885h26.62a2.04,2.04,0,0,0,2.035-2.189l-1.442-19.685a2.018,2.018,0,0,0-2.16-1.865l-26.55,1.946a2.017,2.017,0,0,0-1.864,2.16l1.3,17.716A2.068,2.068,0,0,0,108.566,433.885Zm0,0" transform="translate(-80.482 -313.89)"/>
  <path id="Path_993" data-name="Path 993" class="cls-7" d="M111.454,438.275l-1.407-19.2a2.183,2.183,0,0,1,.715-1.779l-3.691.271a2.017,2.017,0,0,0-1.865,2.159l1.3,17.717a2.068,2.068,0,0,0,2.063,1.917h3.263A2.23,2.23,0,0,1,111.454,438.275Zm0,0" transform="translate(-80.482 -319.362)"/>
  <path id="Path_994" data-name="Path 994" class="cls-5" d="M435.32,177.254a5.018,5.018,0,0,1-.508-1.866l-1.046-14.515a5.04,5.04,0,0,1,9.572-2.542C442.781,159.134,443.648,157.24,435.32,177.254Zm0,0" transform="translate(-331.837 -119.055)"/>
  <path id="Path_995" data-name="Path 995" class="cls-6" d="M438.558,160.872a5.039,5.039,0,0,1,2.631-4.794,5.035,5.035,0,0,0-7.424,4.794l1.046,14.515a5.025,5.025,0,0,0,.508,1.866l3.767-9.052Zm0,0" transform="translate(-331.837 -119.056)"/>
  <path id="Path_996" data-name="Path 996" class="cls-5" d="M320.936,210.656c-2.151,2.821-2.03,5.257-2.262,8.673l-21.057-1.543a75.128,75.128,0,0,1,2.255-13.519c1.309-4.857,2.366-6.279,8.233-13.554,1.961-2.34,3.5-2.943,14.84-9.271a4.717,4.717,0,0,1,6.464,1.493l8.41-20.212c.141-.419,1.612-5.6,6.449-4.435,4.44,1.217,3.758,5.993,3.568,6.9l-7.8,28.671a.009.009,0,0,1,0,0,12.44,12.44,0,0,1-5.643,7.868C323.8,207.643,323.279,207.585,320.936,210.656Zm0,0" transform="translate(-227.688 -121.085)"/>
  <path id="Path_997" data-name="Path 997" class="cls-6" d="M438.585,183.8,447,163.589c.117-.349,1.151-3.964,4.258-4.528a5.337,5.337,0,0,0-1.681-.772c-4.837-1.16-6.307,4.015-6.449,4.435l-7.861,18.892A5.17,5.17,0,0,1,438.585,183.8Zm0,0" transform="translate(-332.991 -121.085)"/>
  <path id="Path_998" data-name="Path 998" class="cls-6" d="M303.745,278.683c1.309-4.858,2.366-6.279,8.233-13.554,1.961-2.34,3.5-2.943,14.84-9.272a6.025,6.025,0,0,1,1.449-.59,4.493,4.493,0,0,0-5.322-.274c-11.34,6.328-12.879,6.931-14.84,9.271-5.867,7.275-6.924,8.7-8.233,13.554a75.128,75.128,0,0,0-2.255,13.519l3.923.287A74.742,74.742,0,0,1,303.745,278.683Zm0,0" transform="translate(-227.688 -194.636)"/>
  <path id="Path_999" data-name="Path 999" class="cls-6" d="M380.917,265.113a1.816,1.816,0,0,1-1.1-3.258c.078-.06,7.858-6.005,11.138-8.491a2.254,2.254,0,0,0,.8-2.984l1.706-4.1,1.055,1.568a6.053,6.053,0,0,1-1.364,8.413c-3.273,2.481-11.048,8.422-11.127,8.482A1.805,1.805,0,0,1,380.917,265.113Zm0,0" transform="translate(-290.025 -188.529)"/>
  <path id="Path_1000" data-name="Path 1000" class="cls-7" d="M299.157,433.885h-26.62A2.041,2.041,0,0,1,270.5,431.7l1.443-19.685a2.018,2.018,0,0,1,2.16-1.865l26.549,1.946a2.017,2.017,0,0,1,1.865,2.16l-1.3,17.716A2.069,2.069,0,0,1,299.157,433.885Zm0,0" transform="translate(-206.94 -313.89)"/>
  <path id="Path_1001" data-name="Path 1001" class="cls-7" d="M275.343,431.7l1.442-19.685a2.017,2.017,0,0,1,1-1.6l-3.679-.27a2.018,2.018,0,0,0-2.16,1.865L270.5,431.7a2.041,2.041,0,0,0,2.035,2.189h4.842A2.04,2.04,0,0,1,275.343,431.7Zm0,0" transform="translate(-206.94 -313.89)"/>
</svg>
