<svg id="_005-law" data-name="005-law" xmlns="http://www.w3.org/2000/svg" width="155.549" height="141.708" viewBox="0 0 155.549 141.708">
  <defs>
    <style>
      .cls-1 {
        fill: #feca57;
      }

      .cls-2 {
        fill: #ccd2db;
      }

      .cls-3 {
        fill: #3e4b5a;
      }

      .cls-4 {
        fill: #c46f5f;
      }

      .cls-5 {
        fill: #f4b537;
      }

      .cls-6 {
        fill: #e59d1f;
      }

      .cls-7 {
        fill: #303f49;
      }

      .cls-8 {
        fill: #576574;
      }

      .cls-9 {
        fill: #fecf68;
      }
    </style>
  </defs>
  <path id="Path_1002" data-name="Path 1002" class="cls-1" d="M59.692,297.818a20.319,20.319,0,0,1-40.271,0Z" transform="translate(-13.521 -214.26)"/>
  <path id="Path_1003" data-name="Path 1003" class="cls-2" d="M107.62,169.1,90.089,121.7a2.347,2.347,0,1,1,4.4-1.628l17.531,47.4a2.347,2.347,0,1,1-4.4,1.628Z" transform="translate(-62.617 -89.443)"/>
  <path id="Path_1004" data-name="Path 1004" class="cls-2" d="M16.051,170.487a2.348,2.348,0,0,1-1.387-3.016l17.531-47.4a2.347,2.347,0,0,1,4.4,1.628L19.067,169.1A2.348,2.348,0,0,1,16.051,170.487Z" transform="translate(-10.107 -89.443)"/>
  <path id="Path_1005" data-name="Path 1005" class="cls-2" d="M350.42,171.7a2.347,2.347,0,0,1-1.376-3.021l17.531-46.871a2.347,2.347,0,0,1,4.4,1.645l-17.531,46.871A2.348,2.348,0,0,1,350.42,171.7Z" transform="translate(-242.898 -90.664)"/>
  <path id="Path_1006" data-name="Path 1006" class="cls-2" d="M442,170.329l-17.531-46.871a2.347,2.347,0,0,1,4.4-1.645L446.4,168.684a2.347,2.347,0,0,1-4.4,1.645Z" transform="translate(-295.408 -90.664)"/>
  <g id="Group_174" data-name="Group 174" transform="translate(28.437 19.065)">
    <path id="Path_1007" data-name="Path 1007" class="cls-3" d="M95.948,100.4a2.348,2.348,0,0,1-.217-4.685c7.8-.732,9.879-1.62,40.8-10.1a2.348,2.348,0,1,1,1.242,4.528c-31.084,8.526-33.4,9.478-41.6,10.248Q96.058,100.4,95.948,100.4Z" transform="translate(-93.603 -85.532)"/>
  </g>
  <g id="Group_175" data-name="Group 175" transform="translate(80.137 18.821)">
    <path id="Path_1008" data-name="Path 1008" class="cls-3" d="M308.982,100.007c-.074,0-.147,0-.222-.01-8.517-.8-10.8-1.754-43.256-10.657a2.348,2.348,0,1,1,1.242-4.528c32.506,8.915,34.458,9.759,42.453,10.51a2.348,2.348,0,0,1-.217,4.685Z" transform="translate(-263.777 -84.728)"/>
  </g>
  <path id="Path_1009" data-name="Path 1009" class="cls-4" d="M244.933,33.428a9.122,9.122,0,0,1,4.607,1.243V25.96a3.181,3.181,0,0,0-3.181-3.181h-2.852a3.181,3.181,0,0,0-3.181,3.181v8.711A9.119,9.119,0,0,1,244.933,33.428Z" transform="translate(-167.314 -22.779)"/>
  <path id="Path_1010" data-name="Path 1010" class="cls-4" d="M249.54,210.122V114.078a9.158,9.158,0,0,1-9.213,0v96.044Z" transform="translate(-167.314 -86.341)"/>
  <g id="Group_176" data-name="Group 176" transform="translate(73.013 0)">
    <path id="Path_1011" data-name="Path 1011" class="cls-4" d="M246.528,25.96a3.175,3.175,0,0,1,1.506-2.7,3.161,3.161,0,0,0-1.675-.48h-2.852a3.181,3.181,0,0,0-3.181,3.181v8.711a9.1,9.1,0,0,1,6.2-1.1Z" transform="translate(-240.327 -22.779)"/>
  </g>
  <g id="Group_177" data-name="Group 177" transform="translate(73.013 27.737)">
    <path id="Path_1012" data-name="Path 1012" class="cls-4" d="M244.934,115.322a9.119,9.119,0,0,1-4.607-1.243v96.044h6.2V115.178A9.161,9.161,0,0,1,244.934,115.322Z" transform="translate(-240.327 -114.079)"/>
  </g>
  <path id="Path_1013" data-name="Path 1013" class="cls-5" d="M338.326,266.77h46.066a3.96,3.96,0,0,1,3.949,3.949v1.536a3.96,3.96,0,0,1-3.949,3.949H338.325a3.96,3.96,0,0,1-3.949-3.949v-1.536A3.96,3.96,0,0,1,338.326,266.77Z" transform="translate(-232.791 -192.644)"/>
  <path id="Path_1014" data-name="Path 1014" class="cls-6" d="M384.391,273.577H338.326a3.945,3.945,0,0,1-3.153-1.586,3.919,3.919,0,0,0-.8,2.362v1.536a3.96,3.96,0,0,0,3.949,3.949h46.066a3.96,3.96,0,0,0,3.949-3.949v-1.536a3.917,3.917,0,0,0-.8-2.362A3.944,3.944,0,0,1,384.391,273.577Z" transform="translate(-232.791 -196.279)"/>
  <path id="Path_1015" data-name="Path 1015" class="cls-1" d="M400.294,297.818a20.319,20.319,0,0,1-40.271,0Z" transform="translate(-250.646 -214.26)"/>
  <path id="Path_1016" data-name="Path 1016" class="cls-1" d="M28.811,297.818h-9.39A20.337,20.337,0,0,0,44.252,314.87,20.34,20.34,0,0,1,28.811,297.818Z" transform="translate(-13.521 -214.26)"/>
  <path id="Path_1017" data-name="Path 1017" class="cls-1" d="M369.414,297.818h-9.39a20.337,20.337,0,0,0,24.831,17.052A20.341,20.341,0,0,1,369.414,297.818Z" transform="translate(-250.647 -214.26)"/>
  <circle id="Ellipse_26" data-name="Ellipse 26" class="cls-1" cx="6.292" cy="6.292" r="6.292" transform="translate(20.689 25.147)"/>
  <circle id="Ellipse_27" data-name="Ellipse 27" class="cls-1" cx="6.292" cy="6.292" r="6.292" transform="translate(122.275 25.147)"/>
  <path id="Path_1018" data-name="Path 1018" class="cls-3" d="M223.493,427.125H187.957a3.96,3.96,0,0,0-3.949,3.949V437.5h43.434v-6.423A3.96,3.96,0,0,0,223.493,427.125Z" transform="translate(-128.105 -304.282)"/>
  <path id="Path_1019" data-name="Path 1019" class="cls-7" d="M184.085,437.568a3.914,3.914,0,0,0-.078.776v6.423h43.434v-6.423a3.908,3.908,0,0,0-.078-.776Z" transform="translate(-128.105 -311.553)"/>
  <path id="Path_1020" data-name="Path 1020" class="cls-8" d="M216.969,458.173H170.9a3.96,3.96,0,0,0-3.949,3.949v1.536a3.96,3.96,0,0,0,3.949,3.949h46.066a3.96,3.96,0,0,0,3.949-3.949v-1.536A3.96,3.96,0,0,0,216.969,458.173Z" transform="translate(-116.232 -325.898)"/>
  <path id="Path_1021" data-name="Path 1021" class="cls-3" d="M216.969,464.98H170.9a3.944,3.944,0,0,1-3.153-1.586,3.918,3.918,0,0,0-.8,2.362v1.536a3.96,3.96,0,0,0,3.949,3.949H216.97a3.96,3.96,0,0,0,3.949-3.949v-1.536a3.918,3.918,0,0,0-.8-2.362A3.946,3.946,0,0,1,216.969,464.98Z" transform="translate(-116.233 -329.533)"/>
  <circle id="Ellipse_28" data-name="Ellipse 28" class="cls-1" cx="9.166" cy="9.166" r="9.166" transform="translate(68.454 10.648)"/>
  <path id="Path_1022" data-name="Path 1022" class="cls-1" d="M77.489,111.843a6.262,6.262,0,0,1,1.6-4.179,6.292,6.292,0,1,0,0,8.358A6.262,6.262,0,0,1,77.489,111.843Z" transform="translate(-47.41 -80.404)"/>
  <path id="Path_1023" data-name="Path 1023" class="cls-9" d="M411.867,111.843a6.262,6.262,0,0,1,1.6-4.179,6.292,6.292,0,1,0,0,8.358A6.26,6.26,0,0,1,411.867,111.843Z" transform="translate(-280.202 -80.404)"/>
  <path id="Path_1024" data-name="Path 1024" class="cls-1" d="M234.71,66.995a9.161,9.161,0,0,1,4.471-7.872,9.166,9.166,0,1,0,0,15.744A9.16,9.16,0,0,1,234.71,66.995Z" transform="translate(-156.866 -47.181)"/>
  <path id="Path_1025" data-name="Path 1025" class="cls-5" d="M3.949,266.77H50.015a3.96,3.96,0,0,1,3.949,3.949v1.536a3.96,3.96,0,0,1-3.949,3.949H3.949A3.961,3.961,0,0,1,0,272.254v-1.536A3.96,3.96,0,0,1,3.949,266.77Z" transform="translate(0 -192.644)"/>
  <path id="Path_1026" data-name="Path 1026" class="cls-6" d="M50.014,273.577H3.949A3.945,3.945,0,0,1,.8,271.991a3.918,3.918,0,0,0-.8,2.362v1.536a3.96,3.96,0,0,0,3.949,3.949H50.014a3.96,3.96,0,0,0,3.949-3.949v-1.536a3.918,3.918,0,0,0-.8-2.362A3.945,3.945,0,0,1,50.014,273.577Z" transform="translate(0 -196.279)"/>
</svg>
