<svg xmlns="http://www.w3.org/2000/svg" width="92.925" height="141.057" viewBox="0 0 92.925 141.057">
  <defs>
    <style>
      .cls-1 {
        fill: #3c81e9;
        stroke: #fff;
        stroke-width: 2px;
      }
    </style>
  </defs>
  <g id="_036-swastika" data-name="036-swastika" transform="translate(-87.61 1)">
    <g id="Group_222" data-name="Group 222" transform="translate(88.61 0)">
      <g id="Group_221" data-name="Group 221" transform="translate(0 0)">
        <path id="Path_1154" data-name="Path 1154" class="cls-1" d="M179.535,181.632a4.4,4.4,0,0,0-4.4-4.4H134.073a4.4,4.4,0,0,0-4.4,4.4v77.717H93.012a4.4,4.4,0,1,0,0,8.8H134.07a4.4,4.4,0,0,0,4.4-4.4V186.034h36.661A4.4,4.4,0,0,0,179.535,181.632Z" transform="translate(-88.61 -129.096)"/>
        <path id="Path_1155" data-name="Path 1155" class="cls-1" d="M314.392,328.414H284.2a4.4,4.4,0,0,0,0,8.8H309.99v36.656a4.4,4.4,0,0,0,8.8,0V332.816A4.4,4.4,0,0,0,314.392,328.414Z" transform="translate(-227.871 -239.219)"/>
        <path id="Path_1156" data-name="Path 1156" class="cls-1" d="M93.012,227.094h30.246a4.4,4.4,0,1,0,0-8.8H97.414V181.632a4.4,4.4,0,0,0-8.8,0v41.061A4.4,4.4,0,0,0,93.012,227.094Z" transform="translate(-88.61 -129.096)"/>
        <path id="Path_1157" data-name="Path 1157" class="cls-1" d="M159.706,400.712a5.963,5.963,0,0,0,4.221,10.184,5.98,5.98,0,0,0,5.959-5.961,6.075,6.075,0,0,0-1.738-4.223A6.182,6.182,0,0,0,159.706,400.712Z" transform="translate(-139.129 -290.668)"/>
        <path id="Path_1158" data-name="Path 1158" class="cls-1" d="M311.864,248.558a5.959,5.959,0,1,0,8.442,0A6.187,6.187,0,0,0,311.864,248.558Z" transform="translate(-249.961 -179.84)"/>
        <path id="Path_1159" data-name="Path 1159" class="cls-1" d="M171.214,121.948a5.971,5.971,0,0,0,4.221-10.182,6.187,6.187,0,0,0-8.441,0,5.961,5.961,0,0,0,4.221,10.182Z" transform="translate(-144.437 -80.199)"/>
        <path id="Path_1160" data-name="Path 1160" class="cls-1" d="M304.576,111.765a5.988,5.988,0,0,0,0,8.442,5.969,5.969,0,0,0,8.442-8.442A6.187,6.187,0,0,0,304.576,111.765Z" transform="translate(-244.653 -80.199)"/>
        <path id="Path_1161" data-name="Path 1161" class="cls-1" d="M235.75,111.765a5.969,5.969,0,0,0,8.442,8.442,5.993,5.993,0,0,0,0-8.442A6.187,6.187,0,0,0,235.75,111.765Z" transform="translate(-194.52 -80.199)"/>
        <path id="Path_1162" data-name="Path 1162" class="cls-1" d="M239.97,11.846a5.971,5.971,0,0,0,4.221-10.182,6.187,6.187,0,0,0-8.441,0,6.088,6.088,0,0,0-1.741,4.221,5.943,5.943,0,0,0,5.961,5.961Z" transform="translate(-194.52 0)"/>
        <path id="Path_1163" data-name="Path 1163" class="cls-1" d="M163.925,258.7a5.881,5.881,0,0,0,4.2-1.741,5.911,5.911,0,0,0,0-8.42,6.133,6.133,0,0,0-8.418,0,5.962,5.962,0,0,0,0,8.42A5.949,5.949,0,0,0,163.925,258.7Z" transform="translate(-139.128 -179.816)"/>
        <path id="Path_1164" data-name="Path 1164" class="cls-1" d="M311.864,400.712a5.959,5.959,0,1,0,8.442,0A6.182,6.182,0,0,0,311.864,400.712Z" transform="translate(-249.961 -290.668)"/>
        <path id="Path_1165" data-name="Path 1165" class="cls-1" d="M199.457,28.482c11.625,0,21.08-8.351,21.08-18.614a4.4,4.4,0,0,0-8.8,0c0,5.411-5.508,9.81-12.276,9.81s-12.276-4.4-12.276-9.81a4.4,4.4,0,0,0-8.8,0C178.377,20.131,187.832,28.482,199.457,28.482Z" transform="translate(-153.997 -3.982)"/>
      </g>
    </g>
  </g>
</svg>
