<svg id="_026-children" data-name="026-children" xmlns="http://www.w3.org/2000/svg" width="129.001" height="138.466" viewBox="0 0 129.001 138.466">
  <defs>
    <style>
      .cls-1 {
        fill: #3c81e9;
      }
    </style>
  </defs>
  <path id="Path_1121" data-name="Path 1121" class="cls-1" d="M335.2,128.4a14.184,14.184,0,0,0,11.493-5.877,6.758,6.758,0,0,0,12.062-2.841,6.745,6.745,0,0,0,0-10.961,6.759,6.759,0,0,0-12.062-2.842A14.195,14.195,0,1,0,335.2,128.4Zm14.2-18.469a2.7,2.7,0,0,1,5.409,0,2.027,2.027,0,0,0,1.156,1.831,2.7,2.7,0,0,1,0,4.88,2.03,2.03,0,0,0-1.156,1.832,2.7,2.7,0,1,1-5.409,0Zm-14.2-5.87A10.142,10.142,0,1,1,325.057,114.2,10.153,10.153,0,0,1,335.2,104.057Zm0,0" transform="translate(-234.188 -72.956)"/>
  <path id="Path_1122" data-name="Path 1122" class="cls-1" d="M307.074,272.305l-14-4.666a4.02,4.02,0,0,1-2.461-3.415v-9.6h2.033a8.113,8.113,0,0,0,2.028-15.97V220.142a7.446,7.446,0,0,0-7.438-7.437H273.706a7.45,7.45,0,0,0-7.155,5.409H252.069a2.028,2.028,0,1,1,0-4.057h4.057a2.028,2.028,0,1,0,0-4.057h-4.057a6.085,6.085,0,1,0,0,12.17h14.2v16.483a8.113,8.113,0,0,0,2.028,15.97h2.033v30.856L263.6,287.72a2.028,2.028,0,1,0,1.284,3.849l8.113-2.7a2.028,2.028,0,0,0,1.387-1.924V254.623h12.17v9.6a8.063,8.063,0,0,0,5.234,7.263l12.615,4.2v6.652a2.028,2.028,0,0,0,4.057,0V274.23A2.028,2.028,0,0,0,307.074,272.305Zm-33.368-55.544h13.527a3.385,3.385,0,0,1,3.383,3.381V238.4H270.324V220.142A3.385,3.385,0,0,1,273.706,216.761Zm-9.469,29.749a4.061,4.061,0,0,1,4.059-4.057h24.348a4.057,4.057,0,1,1,0,8.113H268.3A4.062,4.062,0,0,1,264.237,246.51Zm0,0" transform="translate(-179.46 -153.207)"/>
  <path id="Path_1123" data-name="Path 1123" class="cls-1" d="M85.057,252.028A2.028,2.028,0,1,1,83.028,250,2.029,2.029,0,0,1,85.057,252.028Zm0,0" transform="translate(-59.094 -182.39)"/>
  <path id="Path_1124" data-name="Path 1124" class="cls-1" d="M115.057,252.028A2.028,2.028,0,1,1,113.028,250,2.029,2.029,0,0,1,115.057,252.028Zm0,0" transform="translate(-80.981 -182.39)"/>
  <path id="Path_1125" data-name="Path 1125" class="cls-1" d="M56.387,210H52.33a2.028,2.028,0,1,0,0,4.057h4.057a2.028,2.028,0,0,1,0,4.057H41.906a7.451,7.451,0,0,0-7.154-5.409H21.23a7.445,7.445,0,0,0-7.437,7.437v20.283a14.149,14.149,0,0,0,4.057,9.923v13.876a4.017,4.017,0,0,1-2.461,3.414l-14,4.667A2.028,2.028,0,0,0,0,274.229v8.113a2.028,2.028,0,1,0,4.057,0v-6.651l12.614-4.2a8.063,8.063,0,0,0,5.236-7.264V253.249a14.177,14.177,0,0,0,12.17,0v33.691a2.028,2.028,0,0,0,1.387,1.924l8.113,2.7a2.028,2.028,0,0,0,1.282-3.849l-6.726-2.242V250.348a14.149,14.149,0,0,0,4.057-9.923V222.17h14.2a6.085,6.085,0,1,0,0-12.17ZM21.23,216.761H34.752a3.384,3.384,0,0,1,3.381,3.381V238.4H17.849V220.142A3.384,3.384,0,0,1,21.23,216.761Zm-3.177,25.692H37.928a10.143,10.143,0,0,1-19.875,0Zm0,0" transform="translate(0 -153.207)"/>
  <path id="Path_1126" data-name="Path 1126" class="cls-1" d="M65.2,128.4A14.2,14.2,0,1,0,51,114.2,14.214,14.214,0,0,0,65.2,128.4ZM71.427,106.2a11.065,11.065,0,0,1-12.457,0,10.11,10.11,0,0,1,12.457,0Zm-15.106,3.1a15.12,15.12,0,0,0,17.753,0,10.141,10.141,0,1,1-17.753,0Zm0,0" transform="translate(-37.208 -72.956)"/>
  <path id="Path_1127" data-name="Path 1127" class="cls-1" d="M200.623,22.311a22.23,22.23,0,0,0-6.192-15.4c-.111-.128-.223-.255-.343-.375s-.265-.251-.4-.371A22.294,22.294,0,0,0,162.2,37.717c.11.126.22.251.339.371s.264.25.4.37a22.294,22.294,0,0,0,37.685-16.146Zm-16.575,5.736c-5.026,5.026-11.06,8.274-15.37,8.274a4.615,4.615,0,0,1-3.107-.954c-.11-.107-.218-.216-.324-.324-2.459-2.88-.125-11.017,7.327-18.469C177.6,11.549,183.633,8.3,187.944,8.3a4.61,4.61,0,0,1,3.108.955q.163.158.321.321C193.835,12.455,191.5,20.595,184.048,28.048ZM178.311,4.057a18.2,18.2,0,0,1,5.414.82c-4.548,1.276-9.612,4.422-14.02,8.829a34.89,34.89,0,0,0-8.532,13.035c-.11.331-.208.657-.3.98A18.258,18.258,0,0,1,178.311,4.057Zm0,36.51a18.2,18.2,0,0,1-5.415-.82c4.548-1.276,9.612-4.422,14.021-8.829a34.883,34.883,0,0,0,8.53-13.035c.111-.332.209-.658.3-.981a18.259,18.259,0,0,1-17.436,23.666Zm0,0" transform="translate(-113.811)"/>
</svg>
