<svg xmlns="http://www.w3.org/2000/svg" width="65" height="69.769" viewBox="0 0 65 69.769">
  <defs>
    <style>
      .cls-1 {
        fill: #b1b1b1;
      }
    </style>
  </defs>
  <g id="_026-children" data-name="026-children" transform="translate(0 0)">
    <path id="Path_1121" data-name="Path 1121" class="cls-1" d="M328.154,114.308a7.147,7.147,0,0,0,5.791-2.961,3.405,3.405,0,0,0,6.078-1.431,3.4,3.4,0,0,0,0-5.523,3.406,3.406,0,0,0-6.078-1.432,7.152,7.152,0,1,0-5.791,11.348ZM335.308,105a1.363,1.363,0,0,1,2.725,0,1.021,1.021,0,0,0,.582.922,1.359,1.359,0,0,1,0,2.459,1.023,1.023,0,0,0-.582.923,1.363,1.363,0,0,1-2.725,0Zm-7.154-2.958a5.11,5.11,0,1,1-5.11,5.11A5.116,5.116,0,0,1,328.154,102.044Zm0,0" transform="translate(-277.258 -86.373)"/>
    <path id="Path_1122" data-name="Path 1122" class="cls-1" d="M276.766,241.394l-7.055-2.351a2.026,2.026,0,0,1-1.24-1.721v-4.838h1.024a4.088,4.088,0,0,0,1.022-8.047V215.11a3.752,3.752,0,0,0-3.748-3.747h-6.816a3.754,3.754,0,0,0-3.605,2.725h-7.3a1.022,1.022,0,1,1,0-2.044h2.044a1.022,1.022,0,0,0,0-2.044H249.05a3.066,3.066,0,1,0,0,6.132H256.2v8.305a4.088,4.088,0,0,0,1.022,8.047h1.024v15.547l-3.39,1.13a1.022,1.022,0,1,0,.647,1.939l4.088-1.363a1.022,1.022,0,0,0,.7-.969V232.484h6.132v4.838a4.063,4.063,0,0,0,2.638,3.66l6.356,2.119v3.352a1.022,1.022,0,1,0,2.044,0v-4.088A1.022,1.022,0,0,0,276.766,241.394Zm-16.813-27.987h6.816a1.706,1.706,0,0,1,1.7,1.7v9.2H258.249v-9.2A1.705,1.705,0,0,1,259.952,213.407Zm-4.771,14.99a2.046,2.046,0,0,1,2.045-2.044h12.268a2.044,2.044,0,1,1,0,4.088H257.227A2.047,2.047,0,0,1,255.181,228.4Zm0,0" transform="translate(-212.465 -181.384)"/>
    <path id="Path_1123" data-name="Path 1123" class="cls-1" d="M83.044,251.022A1.022,1.022,0,1,1,82.022,250,1.022,1.022,0,0,1,83.044,251.022Zm0,0" transform="translate(-69.962 -215.933)"/>
    <path id="Path_1124" data-name="Path 1124" class="cls-1" d="M113.044,251.022A1.022,1.022,0,1,1,112.022,250,1.022,1.022,0,0,1,113.044,251.022Zm0,0" transform="translate(-95.874 -215.933)"/>
    <path id="Path_1125" data-name="Path 1125" class="cls-1" d="M28.412,210H26.368a1.022,1.022,0,1,0,0,2.044h2.044a1.022,1.022,0,0,1,0,2.044h-7.3a3.754,3.754,0,0,0-3.6-2.725H10.7A3.752,3.752,0,0,0,6.95,215.11v10.22a7.129,7.129,0,0,0,2.044,5v6.992a2.024,2.024,0,0,1-1.24,1.72L.7,241.394a1.022,1.022,0,0,0-.7.969v4.088a1.022,1.022,0,0,0,2.044,0V243.1L8.4,240.981a4.063,4.063,0,0,0,2.638-3.66v-5.529a7.143,7.143,0,0,0,6.132,0v16.976a1.022,1.022,0,0,0,.7.969l4.088,1.363a1.022,1.022,0,0,0,.646-1.939l-3.389-1.13v-17.7a7.129,7.129,0,0,0,2.044-5v-9.2h7.154a3.066,3.066,0,1,0,0-6.132ZM10.7,213.407H17.51a1.705,1.705,0,0,1,1.7,1.7v9.2H8.994v-9.2A1.7,1.7,0,0,1,10.7,213.407ZM9.1,226.352H19.111a5.111,5.111,0,0,1-10.015,0Zm0,0" transform="translate(0 -181.384)"/>
    <path id="Path_1126" data-name="Path 1126" class="cls-1" d="M58.154,114.308A7.154,7.154,0,1,0,51,107.154,7.162,7.162,0,0,0,58.154,114.308Zm3.138-11.183a5.576,5.576,0,0,1-6.277,0,5.094,5.094,0,0,1,6.277,0Zm-7.611,1.56a7.619,7.619,0,0,0,8.945,0,5.11,5.11,0,1,1-8.945,0Zm0,0" transform="translate(-44.05 -86.373)"/>
    <path id="Path_1127" data-name="Path 1127" class="cls-1" d="M178.484,11.242a11.2,11.2,0,0,0-3.12-7.76c-.056-.064-.112-.128-.173-.189s-.134-.127-.2-.187A11.233,11.233,0,0,0,159.122,19c.055.063.111.127.171.187s.133.126.2.186a11.233,11.233,0,0,0,18.989-8.136Zm-8.352,2.89c-2.533,2.533-5.573,4.169-7.744,4.169a2.325,2.325,0,0,1-1.565-.481c-.055-.054-.11-.109-.163-.163-1.239-1.451-.063-5.551,3.692-9.306,2.532-2.532,5.572-4.168,7.744-4.168a2.323,2.323,0,0,1,1.566.481q.082.08.162.162C175.064,6.276,173.888,10.377,170.133,14.133Zm-2.89-12.088a9.168,9.168,0,0,1,2.728.413,17.1,17.1,0,0,0-7.064,4.449,17.58,17.58,0,0,0-4.3,6.568c-.055.167-.1.331-.151.494a9.2,9.2,0,0,1,8.786-11.924Zm0,18.4a9.172,9.172,0,0,1-2.729-.413,17.1,17.1,0,0,0,7.065-4.449,17.576,17.576,0,0,0,4.3-6.568c.056-.167.105-.332.151-.495a9.2,9.2,0,0,1-8.786,11.925Zm0,0" transform="translate(-134.742)"/>
  </g>
</svg>
