<svg xmlns="http://www.w3.org/2000/svg" width="63.5" height="35.684" viewBox="0 0 63.5 35.684">
  <defs>
    <style>
      .cls-1 {
        fill: #b1b1b1;
      }
    </style>
  </defs>
  <g id="_027-weightlifting" data-name="027-weightlifting" transform="translate(0 -14.017)">
    <path id="Clocks" class="cls-1" d="M62.529,26.141A3.337,3.337,0,0,0,59.981,24.9H58.538V23.731a3.935,3.935,0,0,0-4.051-3.8h-1.9v-2.15a3.753,3.753,0,0,0-1.183-2.71,4.193,4.193,0,0,0-5.571,0,3.754,3.754,0,0,0-1.184,2.711V27.874h-25.8V17.786a3.749,3.749,0,0,0-1.183-2.71,4.193,4.193,0,0,0-5.571,0,3.75,3.75,0,0,0-1.184,2.71v2.15H8.781a3.945,3.945,0,0,0-2.672,1.02,3.5,3.5,0,0,0-1.148,2.563V24.9H3.532a3.35,3.35,0,0,0-2.559,1.25A4.359,4.359,0,0,0,0,28.936v5.81a4.354,4.354,0,0,0,.974,2.79,3.349,3.349,0,0,0,2.558,1.25H4.961v1.377a3.5,3.5,0,0,0,1.15,2.565,3.94,3.94,0,0,0,2.67,1.019h2.133V45.9A3.749,3.749,0,0,0,12.1,48.606a4.093,4.093,0,0,0,5.572,0A3.749,3.749,0,0,0,18.851,45.9V35.81h25.8V45.9a3.749,3.749,0,0,0,1.183,2.709,4.093,4.093,0,0,0,5.572,0A3.752,3.752,0,0,0,52.585,45.9v-2.15h1.9a3.934,3.934,0,0,0,4.051-3.8V38.787h1.443a3.344,3.344,0,0,0,2.549-1.245,4.337,4.337,0,0,0,.97-2.778V28.92A4.341,4.341,0,0,0,62.529,26.141ZM3.532,36.8A1.359,1.359,0,0,1,2.5,36.266a2.4,2.4,0,0,1-.515-1.52v-5.81a2.4,2.4,0,0,1,.515-1.52,1.359,1.359,0,0,1,1.033-.536H4.961V36.8H3.532Zm5.249,4.961a1.983,1.983,0,0,1-1.329-.5,1.492,1.492,0,0,1-.507-1.1V23.519a1.492,1.492,0,0,1,.505-1.1,1.989,1.989,0,0,1,1.331-.5h2.133V41.763H8.781ZM16.867,45.9a1.734,1.734,0,0,1-.561,1.266,2.186,2.186,0,0,1-2.847,0A1.733,1.733,0,0,1,12.9,45.9V17.785a1.734,1.734,0,0,1,.561-1.266,2.11,2.11,0,0,1,2.848,0,1.736,1.736,0,0,1,.561,1.267V45.9Zm1.984-12.072V29.857h25.8v3.969ZM50.6,45.9a1.734,1.734,0,0,1-.561,1.266,2.186,2.186,0,0,1-2.847,0,1.733,1.733,0,0,1-.562-1.266V17.786a1.734,1.734,0,0,1,.561-1.266,2.11,2.11,0,0,1,2.848,0,1.732,1.732,0,0,1,.561,1.266V45.9Zm5.953-5.946a1.954,1.954,0,0,1-2.067,1.812h-1.9V21.92h1.9a1.954,1.954,0,0,1,2.067,1.812v16.22Zm4.961-5.189A2.387,2.387,0,0,1,61,36.27a1.347,1.347,0,0,1-1.024.532H58.538V26.881h1.443A1.347,1.347,0,0,1,61,27.412a2.38,2.38,0,0,1,.51,1.508Z" transform="translate(0)"/>
  </g>
</svg>
