<svg xmlns="http://www.w3.org/2000/svg" width="90.693" height="61.615" viewBox="0 0 90.693 61.615">
  <defs>
    <style>
      .cls-1 {
        fill: #b1b1b1;
        stroke: #fff;
        stroke-width: 3px;
      }
    </style>
  </defs>
  <g id="_028-swimming-pool" data-name="028-swimming-pool" transform="translate(1.5 1.5)">
    <path id="Path_1128" data-name="Path 1128" class="cls-1" d="M76.73,292.337a5.622,5.622,0,0,1-3.94-1.542,10.882,10.882,0,0,0-14.045,0,5.8,5.8,0,0,1-7.879,0,10.882,10.882,0,0,0-14.045,0,5.8,5.8,0,0,1-7.878,0,10.531,10.531,0,0,0-7.022-2.569A10.531,10.531,0,0,0,14.9,290.8a5.619,5.619,0,0,1-3.939,1.542A5.619,5.619,0,0,1,7.022,290.8,10.528,10.528,0,0,0,0,288.227v5.138a5.614,5.614,0,0,1,3.939,1.541,10.531,10.531,0,0,0,7.022,2.569,10.531,10.531,0,0,0,7.022-2.569,5.8,5.8,0,0,1,7.879,0,10.881,10.881,0,0,0,14.044,0,5.8,5.8,0,0,1,7.879,0,10.882,10.882,0,0,0,14.045,0,5.8,5.8,0,0,1,7.879,0,10.883,10.883,0,0,0,14.045,0,5.619,5.619,0,0,1,3.94-1.541v-5.138A10.534,10.534,0,0,0,80.67,290.8,5.619,5.619,0,0,1,76.73,292.337Zm0,0" transform="translate(0 -238.861)"/>
    <path id="Path_1129" data-name="Path 1129" class="cls-1" d="M87.693,16.055V7.708a7.746,7.746,0,0,0-15.491,0v3.209H67.933V7.708a7.708,7.708,0,1,0-15.415,0v3.209H0v5.138H52.518V42.74a9.884,9.884,0,0,1-1.651-1.082,10.882,10.882,0,0,0-14.045,0,5.8,5.8,0,0,1-7.878,0,10.531,10.531,0,0,0-7.022-2.569A10.531,10.531,0,0,0,14.9,41.658,5.619,5.619,0,0,1,10.961,43.2a5.619,5.619,0,0,1-3.939-1.541A10.527,10.527,0,0,0,0,39.089v5.138a5.614,5.614,0,0,1,3.939,1.541,10.531,10.531,0,0,0,7.022,2.569,10.531,10.531,0,0,0,7.022-2.569,5.8,5.8,0,0,1,7.879,0,10.881,10.881,0,0,0,14.044,0,5.8,5.8,0,0,1,7.879,0,10.882,10.882,0,0,0,14.045,0,5.8,5.8,0,0,1,7.879,0,10.883,10.883,0,0,0,14.045,0,5.619,5.619,0,0,1,3.94-1.541V39.089a10.534,10.534,0,0,0-7.023,2.569,5.787,5.787,0,0,1-3.33,1.517V16.055ZM77.34,7.708a2.569,2.569,0,1,1,5.139,0v3.209H77.34Zm-19.684,0a2.569,2.569,0,1,1,5.139,0v3.209H57.656ZM72.2,30.907H57.656V25.769H72.2Zm-6.433,8.182a10.531,10.531,0,0,0-7.022,2.569c-.389.292-.737.553-1.09.773V36.045H72.2v5.176A10.123,10.123,0,0,0,65.768,39.089ZM72.2,20.631H57.656V16.055H72.2Zm0,0"/>
  </g>
</svg>
