<svg xmlns="http://www.w3.org/2000/svg" width="63.768" height="55.967" viewBox="0 0 63.768 55.967">
  <defs>
    <style>
      .cls-1 {
        fill: #b1b1b1;
        stroke: #fff;
        stroke-width: 2px;
      }
    </style>
  </defs>
  <g id="_030-pawprint" data-name="030-pawprint" transform="translate(1.025 1)">
    <path id="Path_1132" data-name="Path 1132" class="cls-1" d="M97.972,188.871a15.033,15.033,0,0,0-25.313,0l-6.694,10.443A9.515,9.515,0,0,0,77.8,213.16l.123-.055a18.7,18.7,0,0,1,14.9.055,9.462,9.462,0,0,0,3.818.808,9.583,9.583,0,0,0,2.13-.242,9.516,9.516,0,0,0,5.893-14.412Zm3.165,19.41a5.863,5.863,0,0,1-6.855,1.566,22.331,22.331,0,0,0-17.931,0l-.081.036a5.9,5.9,0,0,1-7.259-8.614l6.695-10.443a11.414,11.414,0,0,1,19.22,0l6.694,10.443A5.863,5.863,0,0,1,101.137,208.281Zm0,0" transform="translate(-56.687 -160.009)"/>
    <path id="Path_1133" data-name="Path 1133" class="cls-1" d="M11.08,115.818a7.3,7.3,0,0,0,4.26-4.519,9.43,9.43,0,0,0-.167-6.5,9.436,9.436,0,0,0-4.236-4.934,7.3,7.3,0,0,0-6.188-.5c-4,1.538-5.836,6.481-4.091,11.021a8.815,8.815,0,0,0,7.928,5.895A6.911,6.911,0,0,0,11.08,115.818Zm-7.044-6.733c-1.028-2.675-.125-5.521,2.014-6.344a3.358,3.358,0,0,1,1.211-.223,4.081,4.081,0,0,1,1.948.524A5.812,5.812,0,0,1,11.8,106.1a5.809,5.809,0,0,1,.13,4,3.742,3.742,0,0,1-2.144,2.341h0C7.644,113.264,5.067,111.758,4.036,109.085Zm0,0" transform="translate(0 -86.97)"/>
    <path id="Path_1134" data-name="Path 1134" class="cls-1" d="M133.482,20.666c5,0,9.069-4.635,9.069-10.332S138.482,0,133.482,0s-9.068,4.636-9.068,10.334S128.482,20.666,133.482,20.666Zm0-17.047c3,0,5.45,3.013,5.45,6.715s-2.445,6.713-5.45,6.713-5.449-3.012-5.449-6.713S130.477,3.619,133.482,3.619Zm0,0" transform="translate(-109.412)"/>
    <path id="Path_1135" data-name="Path 1135" class="cls-1" d="M289.657,58.6h0a7.392,7.392,0,0,0,2.335.377c3.647,0,7.2-2.654,8.557-6.733a10.133,10.133,0,0,0-.145-6.99,7.666,7.666,0,0,0-11.365-3.777,10.133,10.133,0,0,0-4.3,5.513C283.094,51.947,285.3,57.156,289.657,58.6Zm-1.483-10.469a6.516,6.516,0,0,1,2.74-3.559,4.055,4.055,0,0,1,6.136,2.039,6.516,6.516,0,0,1,.065,4.491c-1.017,3.06-3.851,4.883-6.316,4.064S287.157,51.195,288.174,48.135Zm0,0" transform="translate(-249.926 -35.4)"/>
    <path id="Path_1136" data-name="Path 1136" class="cls-1" d="M390.137,172.427h0c-3.448-2.547-8.606-1.443-11.5,2.463s-2.437,9.161,1.006,11.71a7.089,7.089,0,0,0,4.258,1.375,9.167,9.167,0,0,0,7.241-3.835C394.032,180.23,393.58,174.977,390.137,172.427Zm-1.9,9.558c-1.707,2.3-4.594,3.069-6.437,1.7s-1.953-4.346-.25-6.649a5.555,5.555,0,0,1,4.309-2.38,3.535,3.535,0,0,1,2.128.676C389.824,176.7,389.936,179.683,388.234,181.985Zm0,0" transform="translate(-331.308 -150.428)"/>
  </g>
</svg>
