<svg xmlns="http://www.w3.org/2000/svg" width="155.838" height="105.159" viewBox="0 0 155.838 105.159">
  <defs>
    <style>
      .cls-1 {
        fill: #3c81e9;
        stroke: #fff;
        stroke-width: 3px;
      }
    </style>
  </defs>
  <g id="_028-swimming-pool" data-name="028-swimming-pool" transform="translate(1.5 1.5)">
    <path id="Path_1128" data-name="Path 1128" class="cls-1" d="M133.732,295.391c-3.284,0-4.709-1.069-6.867-2.687-2.66-2-5.97-4.478-12.239-4.478s-9.579,2.483-12.239,4.478c-2.157,1.617-3.582,2.687-6.867,2.687s-4.707-1.069-6.865-2.687c-2.66-2-5.97-4.478-12.239-4.478s-9.579,2.483-12.239,4.478c-2.157,1.617-3.582,2.687-6.865,2.687s-4.709-1.069-6.866-2.687c-2.66-2-5.97-4.478-12.239-4.478s-9.579,2.483-12.239,4.478c-2.157,1.617-3.582,2.687-6.866,2.687s-4.709-1.069-6.866-2.687c-2.659-2-5.969-4.478-12.238-4.478v8.955c3.284,0,4.709,1.068,6.865,2.687,2.66,2,5.97,4.478,12.239,4.478s9.579-2.483,12.239-4.478c2.157-1.618,3.582-2.687,6.866-2.687s4.709,1.068,6.866,2.687c2.66,2,5.97,4.478,12.239,4.478s9.578-2.483,12.238-4.478c2.157-1.618,3.582-2.687,6.866-2.687s4.709,1.068,6.866,2.687c2.66,2,5.97,4.478,12.238,4.478s9.579-2.483,12.24-4.478c2.157-1.618,3.582-2.687,6.866-2.687s4.709,1.068,6.866,2.687c2.661,2,5.971,4.478,12.24,4.478s9.579-2.483,12.239-4.478c2.158-1.618,3.583-2.687,6.867-2.687v-8.955c-6.269,0-9.579,2.483-12.24,4.478C138.441,294.322,137.016,295.391,133.732,295.391Zm0,0" transform="translate(0 -202.187)"/>
    <path id="Path_1129" data-name="Path 1129" class="cls-1" d="M152.838,27.982V13.434a13.5,13.5,0,0,0-27,0v5.592H118.4V13.434a13.434,13.434,0,1,0-26.867,0v5.592H0v8.955H91.533V74.49A17.227,17.227,0,0,1,88.656,72.6c-2.66-2-5.97-4.478-12.239-4.478S66.838,70.61,64.178,72.6c-2.157,1.617-3.582,2.687-6.865,2.687S52.6,74.222,50.447,72.6c-2.66-2-5.97-4.478-12.239-4.478S28.629,70.61,25.969,72.6c-2.157,1.617-3.582,2.687-6.866,2.687S14.4,74.222,12.238,72.6C9.579,70.61,6.269,68.127,0,68.127v8.955c3.284,0,4.709,1.068,6.865,2.687,2.66,2,5.97,4.478,12.239,4.478s9.579-2.483,12.239-4.478c2.157-1.618,3.582-2.687,6.866-2.687s4.709,1.068,6.866,2.687c2.66,2,5.97,4.478,12.239,4.478s9.578-2.483,12.238-4.478c2.157-1.618,3.582-2.687,6.866-2.687s4.709,1.068,6.866,2.687c2.66,2,5.97,4.478,12.238,4.478s9.579-2.483,12.24-4.478c2.157-1.618,3.582-2.687,6.866-2.687s4.709,1.068,6.866,2.687c2.661,2,5.971,4.478,12.24,4.478s9.579-2.483,12.239-4.478c2.158-1.618,3.583-2.687,6.867-2.687V68.127c-6.269,0-9.579,2.483-12.24,4.478-1.908,1.432-3.246,2.431-5.8,2.643V27.982ZM134.795,13.434a4.478,4.478,0,1,1,8.957,0v5.592h-8.957Zm-34.307,0a4.478,4.478,0,1,1,8.957,0v5.592h-8.957Zm25.351,40.433H100.488V44.912h25.351Zm-11.213,14.26c-6.269,0-9.579,2.483-12.239,4.478-.679.508-1.285.963-1.9,1.347V62.823h25.351v9.021A17.644,17.644,0,0,0,114.626,68.127Zm11.213-32.171H100.488V27.982h25.351Zm0,0"/>
  </g>
</svg>
