<svg xmlns="http://www.w3.org/2000/svg" width="126.891" height="71.306" viewBox="0 0 126.891 71.306">
  <defs>
    <style>
      .cls-1 {
        fill: #3c81e9;
      }
    </style>
  </defs>
  <g id="_027-weightlifting" data-name="027-weightlifting" transform="translate(0 -14.017)">
    <path id="Clocks" class="cls-1" d="M124.95,38.245a6.669,6.669,0,0,0-5.091-2.488h-2.883V33.429a7.863,7.863,0,0,0-8.1-7.586h-3.8v-4.3a7.5,7.5,0,0,0-2.363-5.415,8.379,8.379,0,0,0-11.132,0,7.5,7.5,0,0,0-2.365,5.417V41.707H37.67V21.549a7.492,7.492,0,0,0-2.363-5.415,8.379,8.379,0,0,0-11.132,0,7.494,7.494,0,0,0-2.365,5.415v4.3H17.546a7.883,7.883,0,0,0-5.339,2.038A7,7,0,0,0,9.913,33v2.752H7.058a6.694,6.694,0,0,0-5.113,2.5A8.711,8.711,0,0,0,0,43.83V55.44a8.7,8.7,0,0,0,1.947,5.575,6.693,6.693,0,0,0,5.111,2.5H9.913v2.752a7,7,0,0,0,2.3,5.125,7.874,7.874,0,0,0,5.335,2.036h4.263v4.3a7.492,7.492,0,0,0,2.363,5.413,8.18,8.18,0,0,0,11.134,0,7.491,7.491,0,0,0,2.363-5.413V57.566H89.219V77.723a7.492,7.492,0,0,0,2.363,5.413,8.18,8.18,0,0,0,11.134,0,7.5,7.5,0,0,0,2.363-5.413v-4.3h3.8a7.862,7.862,0,0,0,8.1-7.586V63.514h2.883a6.682,6.682,0,0,0,5.093-2.488,8.667,8.667,0,0,0,1.939-5.551V43.8A8.674,8.674,0,0,0,124.95,38.245ZM7.058,59.548a2.715,2.715,0,0,1-2.064-1.071A4.791,4.791,0,0,1,3.965,55.44V43.83a4.8,4.8,0,0,1,1.029-3.037,2.715,2.715,0,0,1,2.064-1.071H9.913V59.548H7.058Zm10.488,9.913a3.962,3.962,0,0,1-2.655-.993,2.982,2.982,0,0,1-1.013-2.2V33a2.982,2.982,0,0,1,1.009-2.2,3.975,3.975,0,0,1,2.659-1h4.263V69.462H17.546ZM33.7,77.723a3.465,3.465,0,0,1-1.12,2.53,4.368,4.368,0,0,1-5.688,0,3.463,3.463,0,0,1-1.122-2.53V21.547a3.465,3.465,0,0,1,1.12-2.53,4.217,4.217,0,0,1,5.69,0,3.469,3.469,0,0,1,1.12,2.532V77.723ZM37.67,53.6V45.67H89.219V53.6Zm63.444,24.123a3.465,3.465,0,0,1-1.12,2.53,4.368,4.368,0,0,1-5.688,0,3.463,3.463,0,0,1-1.122-2.53V21.549a3.465,3.465,0,0,1,1.12-2.53,4.217,4.217,0,0,1,5.69,0,3.462,3.462,0,0,1,1.12,2.53V77.723Zm11.9-11.882a3.9,3.9,0,0,1-4.13,3.62h-3.8V29.809h3.8a3.905,3.905,0,0,1,4.13,3.62V65.841Zm9.913-10.369a4.771,4.771,0,0,1-1.019,3.014,2.691,2.691,0,0,1-2.046,1.063h-2.883V39.722h2.883a2.691,2.691,0,0,1,2.046,1.063,4.755,4.755,0,0,1,1.019,3.014Z" transform="translate(0)"/>
  </g>
</svg>
