<svg xmlns="http://www.w3.org/2000/svg" width="137.577" height="120.456" viewBox="0 0 137.577 120.456">
  <defs>
    <style>
      .cls-1 {
        fill: #3c81e9;
        stroke: #fff;
        stroke-width: 2px;
      }
    </style>
  </defs>
  <g id="_030-pawprint" data-name="030-pawprint" transform="translate(1.053 1)">
    <path id="Path_1132" data-name="Path 1132" class="cls-1" d="M138.02,197.142a33,33,0,0,0-55.563,0L67.763,220.065a20.886,20.886,0,0,0,25.989,30.392l.27-.12a41.058,41.058,0,0,1,32.7.12,20.77,20.77,0,0,0,8.381,1.773,21.035,21.035,0,0,0,4.675-.53,20.888,20.888,0,0,0,12.935-31.635Zm6.947,42.606a12.868,12.868,0,0,1-15.046,3.437,49.016,49.016,0,0,0-39.36,0l-.178.079A12.942,12.942,0,0,1,74.45,224.352l14.695-22.923a25.054,25.054,0,0,1,42.187,0l14.693,22.922A12.869,12.869,0,0,1,144.966,239.749Zm0,0" transform="translate(-47.398 -133.791)"/>
    <path id="Path_1133" data-name="Path 1133" class="cls-1" d="M24.322,136.041a16.022,16.022,0,0,0,9.352-9.919,20.7,20.7,0,0,0-.366-14.272,20.712,20.712,0,0,0-9.3-10.831,16.022,16.022,0,0,0-13.582-1.094c-8.78,3.376-12.809,14.225-8.98,24.191,3.058,7.932,10.191,12.939,17.4,12.939A15.17,15.17,0,0,0,24.322,136.041ZM8.86,121.262c-2.256-5.873-.274-12.119,4.421-13.925a7.37,7.37,0,0,1,2.659-.489A8.958,8.958,0,0,1,20.216,108a12.759,12.759,0,0,1,5.679,6.706,12.751,12.751,0,0,1,.284,8.782,8.213,8.213,0,0,1-4.706,5.14l0,0C16.78,130.435,11.123,127.13,8.86,121.262Zm0,0" transform="translate(0 -72.719)"/>
    <path id="Path_1134" data-name="Path 1134" class="cls-1" d="M144.318,45.363c10.976,0,19.906-10.174,19.906-22.679S155.294,0,144.318,0s-19.9,10.176-19.9,22.684S133.343,45.363,144.318,45.363Zm0-37.419c6.6,0,11.962,6.613,11.962,14.74s-5.367,14.735-11.962,14.735-11.96-6.611-11.96-14.735S137.722,7.943,144.318,7.943Zm0,0" transform="translate(-91.485)"/>
    <path id="Path_1135" data-name="Path 1135" class="cls-1" d="M296.185,80.534h0a16.225,16.225,0,0,0,5.126.828c8,0,15.805-5.826,18.782-14.78a22.242,22.242,0,0,0-.317-15.344,16.827,16.827,0,0,0-24.947-8.291,22.242,22.242,0,0,0-9.437,12.1C281.778,65.921,286.62,77.353,296.185,80.534ZM292.93,57.553a14.3,14.3,0,0,1,6.015-7.811,8.9,8.9,0,0,1,13.468,4.476,14.3,14.3,0,0,1,.143,9.858C310.323,70.792,304.1,74.794,298.691,73S290.7,64.269,292.93,57.553Zm0,0" transform="translate(-208.974 -29.6)"/>
    <path id="Path_1136" data-name="Path 1136" class="cls-1" d="M406.152,174.067l0,0c-7.569-5.591-18.889-3.168-25.237,5.405s-5.349,20.108,2.208,25.7a15.561,15.561,0,0,0,9.346,3.018,20.123,20.123,0,0,0,15.893-8.418C414.7,191.2,413.71,179.664,406.152,174.067Zm-4.176,20.98c-3.748,5.059-10.085,6.737-14.128,3.742s-4.286-9.54-.549-14.6a12.194,12.194,0,0,1,9.458-5.223,7.76,7.76,0,0,1,4.671,1.484C405.465,183.447,405.71,189.994,401.976,195.047Zm0,0" transform="translate(-277.022 -125.779)"/>
  </g>
</svg>
