<svg xmlns="http://www.w3.org/2000/svg" width="119.682" height="120.605" viewBox="0 0 119.682 120.605">
  <defs>
    <style>
      .cls-1 {
        fill: #3c81e9;
        stroke: #3c81e9;
        stroke-width: 2px;
      }
    </style>
  </defs>
  <path id="_031-home" data-name="031-home" class="cls-1" d="M117.036,53.953,99.449,37.623V10.869H79.19v7.943L58.932,0,.829,53.953a2.027,2.027,0,1,0,2.759,2.97l6.724-6.244V118.24h97.242V50.677l6.724,6.244a2.026,2.026,0,0,0,2.757-2.968ZM83.242,14.921H95.4v18.94L83.242,22.574ZM46.776,114.189V71.518a1.9,1.9,0,0,1,1.9-1.9H69.189a1.9,1.9,0,0,1,1.9,1.9v42.671H46.776Zm56.725,0H75.139V71.518a5.955,5.955,0,0,0-5.95-5.95H48.675a5.955,5.955,0,0,0-5.95,5.95v42.671H14.362V46.915L58.932,5.529l28.93,26.863L99.449,43.151h0l4.052,3.762Z" transform="translate(0.999 1.365)"/>
</svg>
