<svg xmlns="http://www.w3.org/2000/svg" width="101.172" height="108.8" viewBox="0 0 101.172 108.8">
  <defs>
    <style>
      .cls-1 {
        fill: #3c81e9;
        stroke: #3c81e9;
        stroke-width: 2px;
      }
    </style>
  </defs>
  <g id="_032-power" data-name="032-power" transform="translate(-1 1)">
    <path id="Path_1137" data-name="Path 1137" class="cls-1" d="M65.527,5.088a1.907,1.907,0,0,0-1.068,3.662,45.77,45.77,0,1,1-25.691-.017A1.907,1.907,0,0,0,37.7,5.071a49.586,49.586,0,1,0,27.823.017Z" transform="translate(0 4.528)"/>
    <path id="Path_1138" data-name="Path 1138" class="cls-1" d="M28.907,51.493a1.905,1.905,0,0,0,1.907-1.907V1.907a1.907,1.907,0,0,0-3.814,0V49.586A1.905,1.905,0,0,0,28.907,51.493Z" transform="translate(22.679)"/>
  </g>
</svg>
