<svg xmlns="http://www.w3.org/2000/svg" width="104.608" height="135.833" viewBox="0 0 104.608 135.833">
  <defs>
    <style>
      .cls-1 {
        fill: #3c81e9;
      }
    </style>
  </defs>
  <g id="_033-policeman" data-name="033-policeman" transform="translate(-58.849 0)">
    <g id="Group_212" data-name="Group 212" transform="translate(58.85)">
      <g id="Group_211" data-name="Group 211">
        <path id="Path_1139" data-name="Path 1139" class="cls-1" d="M160.1,95.785l-.047-.078q-.171-.28-.351-.555-.1-.152-.2-.3c-.082-.122-.165-.243-.249-.363q-.164-.234-.333-.464c-.034-.046-.065-.092-.1-.138s-.05-.063-.074-.095q-.2-.27-.415-.533c-.049-.062-.1-.123-.148-.184-.14-.171-.284-.34-.429-.507-.06-.07-.12-.14-.181-.209-.121-.136-.245-.27-.369-.4-.093-.1-.184-.2-.279-.3-.071-.073-.144-.144-.215-.216a23.064,23.064,0,0,0-9.945-5.934,1.952,1.952,0,0,0-.2-.048l-17.987-3.341c-.032-.006-.064-.007-.1-.012a4.407,4.407,0,0,0-2.473.314,4.637,4.637,0,0,1-1.039-2.8V76.359a28.865,28.865,0,0,0,3.306-2.459,23.367,23.367,0,0,0,7.87-15.421,6.184,6.184,0,0,0,5.888-6.17V47.67a6.151,6.151,0,0,0-2.256-4.771V32.233c6.5-3.205,7.917-6.942,7.917-9.578,0-4.524-4.213-10.186-11-14.778a45.383,45.383,0,0,0-51.1,0c-6.783,4.592-11,10.254-11,14.778,0,2.637,1.413,6.373,7.917,9.578V42.9a6.151,6.151,0,0,0-2.256,4.771v4.64a6.184,6.184,0,0,0,5.888,6.17A23.365,23.365,0,0,0,94.026,73.9a28.867,28.867,0,0,0,3.306,2.459v3.256a4.636,4.636,0,0,1-1.039,2.8,4.4,4.4,0,0,0-2.569-.3L75.737,85.456a1.953,1.953,0,0,0-.2.048,23.065,23.065,0,0,0-9.941,5.93c-.073.074-.148.147-.22.222-.093.1-.183.2-.275.294-.125.135-.251.27-.373.407-.06.068-.119.137-.179.206q-.219.252-.431.51c-.05.06-.1.122-.147.183q-.212.264-.416.534c-.024.032-.05.062-.074.095s-.065.092-.1.138q-.169.23-.333.464-.127.181-.25.364-.1.15-.2.3-.179.276-.351.556l-.047.077a23.06,23.06,0,0,0-3.356,12.03l.228,7.016c0,1.1.663-2.6,1.762-2.6a1.99,1.99,0,0,0,1.99-1.99v-2.426a19.268,19.268,0,0,1,.842-5.646,6.51,6.51,0,0,0,4.07,1.428,6.629,6.629,0,0,0,.712-.038,6.519,6.519,0,0,0,4.409-2.406l2.166-2.686a6.562,6.562,0,0,0-.216-8.493c.572-.233,1.156-.443,1.755-.622l11.477-2.132,9.107,12.744a4.685,4.685,0,0,0,3.819,1.978,4.744,4.744,0,0,0,1.857-.381l.606-.258,2.65,3.081-3.823,27.469H77.251V115.714a1.99,1.99,0,0,0-3.981,0v16.139H65.309a2.481,2.481,0,0,1-2.478-2.478V105.569c0-1.1-3.753,8.162-3.753,9.261l-.228,14.544a6.466,6.466,0,0,0,6.459,6.459H157a6.466,6.466,0,0,0,6.459-6.459v-21.56A23.066,23.066,0,0,0,160.1,95.785Zm-88.172.183-2.166,2.686a2.581,2.581,0,0,1-3.629.389l-.831-.67q.267-.477.56-.936l.007-.011c.167-.262.343-.517.522-.77.054-.076.109-.153.164-.229q.24-.328.492-.644c.044-.055.086-.11.13-.164q.285-.35.587-.684c.059-.066.118-.13.178-.194.2-.216.4-.428.61-.634l.053-.054a19.229,19.229,0,0,1,2.5-2.066l.436.352a2.58,2.58,0,0,1,.389,3.629Zm78.836-3.63.436-.352a19.213,19.213,0,0,1,2.5,2.066l.053.054c.209.206.411.419.61.634.059.064.119.129.178.194q.3.335.587.684c.044.054.087.11.13.164q.253.317.492.644c.055.076.11.152.164.229.179.253.355.508.522.77l.007.011q.292.459.56.936l-.831.67a2.581,2.581,0,0,1-3.63-.389l-2.166-2.686A2.584,2.584,0,0,1,150.766,92.337ZM127,86.5l.008-.006.521-.389a.419.419,0,0,1,.324-.076l2.088.388-8.026,11.232a.727.727,0,0,1-.881.248l-5.917-2.514Zm-15.849,6.876-11.6-8.669a8.547,8.547,0,0,0,1.757-5.092V78.45a25.949,25.949,0,0,0,9.819,2h.045a25.959,25.959,0,0,0,9.819-2v1.165a8.548,8.548,0,0,0,1.757,5.092Zm3.874,6.293-1.813,2.108h-4.122L107.28,99.67l3.874-1.646ZM82.523,27.7c-2.558-1.577-3.936-3.319-3.936-5.041,0-3.588,4.793-8.467,9.247-11.482a41.4,41.4,0,0,1,46.639,0c4.454,3.015,9.247,7.894,9.247,11.482,0,1.722-1.378,3.465-3.936,5.041V24.076a6.145,6.145,0,0,0-4.627-5.957,108.558,108.558,0,0,0-25.25-3.53h-.025a87.962,87.962,0,0,0-22.874,3.494A6.17,6.17,0,0,0,82.523,24Zm6.9,6.988-.084-.053c-.129-.083-.253-.166-.374-.249l-.145-.1q-.148-.105-.287-.211c-.064-.049-.126-.1-.187-.146s-.145-.117-.214-.175-.143-.125-.212-.188c-.051-.047-.1-.094-.152-.141-.078-.075-.151-.15-.222-.226-.034-.036-.07-.072-.1-.108l-.01-.012,42.506-.841c1.1,0,5.76-.051,5.76-1.15s-4.139-1.99-5.238-1.99H86.5V24a2.175,2.175,0,0,1,1.581-2.086,83.945,83.945,0,0,1,21.8-3.346h.024a104.5,104.5,0,0,1,24.266,3.406,2.166,2.166,0,0,1,1.632,2.1v5.016h-5.338a1.99,1.99,0,0,0,0,3.981h4.406l-.01.012c-.032.036-.068.072-.1.108-.071.075-.144.15-.222.226-.049.047-.1.094-.152.141-.068.063-.138.125-.212.188s-.141.117-.214.175-.123.1-.187.146q-.139.106-.287.211l-.145.1c-.121.083-.245.166-.374.249l-.084.053a19.644,19.644,0,0,1-2.939,1.489c-.024.01-.045.024-.068.034-4.264,1.758-10.673,3.086-18.721,3.086S96.7,37.964,92.433,36.206c-.023-.011-.044-.024-.068-.034A19.644,19.644,0,0,1,89.426,34.684Zm.188,4.625v3.878a11.044,11.044,0,0,0-3.11-1.035V37.526A20.13,20.13,0,0,0,89.614,39.309Zm43.08,0a20.123,20.123,0,0,0,3.11-1.783v4.625a11.046,11.046,0,0,0-3.11,1.036ZM96.623,70.884a19.531,19.531,0,0,1-6.605-14.431,1.99,1.99,0,0,0-1.99-1.948H86.444a2.2,2.2,0,0,1-2.2-2.2V47.67a2.186,2.186,0,0,1,.808-1.7,7.224,7.224,0,0,1,3.123.978l.033.021a4.6,4.6,0,0,1,.455.335l.051.043c.071.061.141.124.209.191s.121.113.184.165l.056.045q.072.056.146.107l.059.04c.067.044.136.085.206.122h0c.071.037.144.071.218.1l.062.024c.056.022.113.042.17.06l.064.02c.075.022.151.041.227.056h0c.079.015.158.026.237.035l.064.005q.09.008.181.009l.041,0h.027c.078,0,.157,0,.235-.011h.006c.08-.008.161-.02.241-.036l.068-.014q.089-.019.178-.045l.07-.02c.079-.025.157-.052.234-.084a2.739,2.739,0,0,0,1.689-2.534v-4.76a60.554,60.554,0,0,0,17.559,2.449,60.554,60.554,0,0,0,17.559-2.449v4.76a2.739,2.739,0,0,0,1.689,2.534c.077.032.156.06.235.085l.067.02c.06.017.121.033.182.046l.064.014a2.7,2.7,0,0,0,.485.048h.025l.038,0c.062,0,.124,0,.187-.009l.06-.005a2.706,2.706,0,0,0,.47-.092l.063-.019c.058-.018.115-.038.172-.06l.061-.024c.074-.031.147-.064.219-.1h0c.07-.037.138-.078.205-.121l.059-.04q.074-.051.145-.106l.057-.045c.063-.052.125-.106.184-.165s.136-.129.207-.189l.055-.047c.065-.055.131-.107.2-.158l.019-.014c.073-.054.148-.1.223-.153l.061-.039c.067-.042.135-.083.2-.122l.03-.017q.117-.065.235-.123l.059-.029c.071-.034.141-.067.212-.1l.029-.013c.082-.035.163-.068.245-.1l.044-.016q.116-.043.232-.082l.013,0q.129-.043.257-.079l.01,0a8.362,8.362,0,0,1,1.54-.284,2.186,2.186,0,0,1,.808,1.7v4.64a2.2,2.2,0,0,1-2.2,2.2H134.28a1.99,1.99,0,0,0-1.99,1.948,19.531,19.531,0,0,1-6.605,14.431,21.7,21.7,0,0,1-29.062,0ZM101.272,97.9a.728.728,0,0,1-.881-.248L92.364,86.417l2.088-.388a.417.417,0,0,1,.324.076l.521.389.008.006,11.884,8.882Zm5.009,33.956,3.631-26.094H112.4l3.631,26.094Zm50.718,0h-7.961V115.714a1.99,1.99,0,0,0-3.981,0v16.139H120.046l-3.823-27.469,2.65-3.081.606.258a4.742,4.742,0,0,0,1.857.381,4.684,4.684,0,0,0,3.82-1.978l9.107-12.744,11.477,2.132c.6.18,1.183.389,1.755.622a6.572,6.572,0,0,0-.217,8.492l2.166,2.686a6.518,6.518,0,0,0,4.408,2.405,6.632,6.632,0,0,0,.712.038,6.512,6.512,0,0,0,4.07-1.428,19.268,19.268,0,0,1,.842,5.646v21.56h0A2.481,2.481,0,0,1,157,131.853Z" transform="translate(-58.85)"/>
      </g>
    </g>
    <g id="Group_214" data-name="Group 214" transform="translate(124.589 113.723)">
      <g id="Group_213" data-name="Group 213">
        <path id="Path_1140" data-name="Path 1140" class="cls-1" d="M320.376,428.66H309.894a3.255,3.255,0,0,0-3.251,3.252V437.5a3.255,3.255,0,0,0,3.251,3.252h10.482a3.255,3.255,0,0,0,3.251-3.252v-5.584A3.255,3.255,0,0,0,320.376,428.66Zm-9.753,8.106v-4.126h9.023v4.126Z" transform="translate(-306.643 -428.66)"/>
      </g>
    </g>
    <g id="Group_216" data-name="Group 216" transform="translate(80.734 113.723)">
      <g id="Group_215" data-name="Group 215" transform="translate(0)">
        <path id="Path_1141" data-name="Path 1141" class="cls-1" d="M155.07,428.659H144.588a3.255,3.255,0,0,0-3.251,3.251v5.584a3.255,3.255,0,0,0,3.251,3.252H155.07a3.255,3.255,0,0,0,3.252-3.252V431.91A3.255,3.255,0,0,0,155.07,428.659Zm-.729,8.106h-9.023V432.64h9.023Z" transform="translate(-141.337 -428.659)"/>
      </g>
    </g>
  </g>
</svg>
