<svg xmlns="http://www.w3.org/2000/svg" width="155" height="116.53" viewBox="0 0 155 116.53">
  <defs>
    <style>
      .cls-1 {
        fill: #3c81e9;
        stroke: #fff;
      }
    </style>
  </defs>
  <g id="_034-cctv" data-name="034-cctv" transform="translate(0.5 -63.471)">
    <g id="Group_218" data-name="Group 218" transform="translate(0 64.002)">
      <g id="Group_217" data-name="Group 217">
        <path id="Path_1142" data-name="Path 1142" class="cls-1" d="M152.382,115.7,65.372,65.937A15.818,15.818,0,0,0,45.051,70.5l-16.856,24.1a14.012,14.012,0,0,0,4.468,20.158l18.35,10.6L47.7,129.771a13.635,13.635,0,0,0,.159,16.714l-4.884,7.349H19.25v-9.657A3.179,3.179,0,0,0,16.041,141H3.208A3.179,3.179,0,0,0,0,144.178V176.29A3.208,3.208,0,0,0,3.208,179.5H16.042a3.208,3.208,0,0,0,3.208-3.211v-3.205H42.974a19.2,19.2,0,0,0,16.016-8.576l5.259-7.9a14.528,14.528,0,0,0,3.078.419,14.69,14.69,0,0,0,12.539-7.106l3.525-5.881,27.3,15.768a3.206,3.206,0,0,0,4.474-1.345l2.375-4.761c.39.029.765.114,1.162.114a22.5,22.5,0,0,0,22.458-22.478,20.728,20.728,0,0,0-.5-4.2l11.56-5.784a3.212,3.212,0,0,0,.156-5.661ZM12.833,173.085H6.417V147.418h6.417v25.666Zm40.818-12.122a12.8,12.8,0,0,1-10.678,5.715H19.25v-6.417H42.974a6.39,6.39,0,0,0,5.339-2.857l4.443-6.666,5.51,3.3ZM74.364,146.65a8.44,8.44,0,0,1-11.257,2.813l-8.137-4.881a7.492,7.492,0,0,1-2.14-10.919l3.779-5.038L77.832,140.87Zm36.588,5.922L35.868,109.25a7.576,7.576,0,0,1-2.416-10.9l8.055-11.5,79.4,45.8Zm9.846-5.356,6.716-13.449,7.127-3.563c.036.394.107.8.107,1.182A16.013,16.013,0,0,1,120.8,147.216Zm4.434-19.481L45.2,81.565l5.106-7.293a9.03,9.03,0,0,1,11.881-2.663l81.805,46.746Z" transform="translate(0 -64.002)"/>
        <circle id="Ellipse_1" data-name="Ellipse 1" class="cls-1" cx="3.208" cy="3.208" r="3.208" transform="translate(102.666 70.582)"/>
      </g>
    </g>
  </g>
</svg>
