<svg xmlns="http://www.w3.org/2000/svg" width="133.676" height="116.752" viewBox="0 0 133.676 116.752">
  <defs>
    <style>
      .cls-1 {
        fill: #3c81e9;
      }
    </style>
  </defs>
  <g id="Group_282" data-name="Group 282" transform="translate(-94 -242.784)">
    <g id="bed" transform="translate(94 192)">
      <g id="Group_193" data-name="Group 193" transform="translate(0 84)">
        <path id="Path_1095" data-name="Path 1095" class="cls-1" d="M106.849,109.255h-1.943V93.714A9.725,9.725,0,0,0,95.193,84H29.141a9.725,9.725,0,0,0-9.714,9.714v15.542H17.484A17.506,17.506,0,0,0,0,126.74v27.2H3.885v13.6H13.6v-13.6h97.135v13.6h9.714v-13.6h3.885v-27.2A17.506,17.506,0,0,0,106.849,109.255ZM23.313,93.714a5.828,5.828,0,0,1,5.828-5.828H95.193a5.828,5.828,0,0,1,5.828,5.828v15.542H95.193v-7.771a5.828,5.828,0,0,0-5.828-5.828H71.88a5.828,5.828,0,0,0-5.828,5.828v7.771H58.281v-7.771a5.828,5.828,0,0,0-5.828-5.828H34.969a5.828,5.828,0,0,0-5.828,5.828v7.771H23.313Zm67.995,7.771v7.771H69.938v-7.771a1.943,1.943,0,0,1,1.943-1.943H89.365A1.943,1.943,0,0,1,91.307,101.484Zm-36.911,0v7.771H33.026v-7.771a1.943,1.943,0,0,1,1.943-1.943H52.453A1.943,1.943,0,0,1,54.4,101.484ZM9.714,163.651H7.771v-9.714H9.714Zm106.849,0H114.62v-9.714h1.943Zm3.885-13.6H3.885v-9.714H120.448Zm0-13.6H3.885V126.74a13.615,13.615,0,0,1,13.6-13.6h89.365a13.615,13.615,0,0,1,13.6,13.6Z" transform="translate(0 -84)"/>
      </g>
    </g>
    <path id="Path_1202" data-name="Path 1202" class="cls-1" d="M.42,0h4.7l5.124-7.434L15.456,0H20.2c-1.218-1.638-6.216-8.652-7.434-10.29L19.95-20.2H15.288l-4.872,7.1L5.46-20.2H.672L7.938-10.29Z" transform="translate(193 270)"/>
    <path id="Path_1203" data-name="Path 1203" class="cls-1" d="M11.676,0V-27.216H8.064c-.63,2.94-3.234,5.04-7.014,5.124v2.9H7.644V0Z" transform="translate(216 270)"/>
  </g>
</svg>
