<svg xmlns="http://www.w3.org/2000/svg" width="165.717" height="116.752" viewBox="0 0 165.717 116.752">
  <defs>
    <style>
      .cls-1 {
        fill: #3c81e9;
      }
    </style>
  </defs>
  <g id="Group_285" data-name="Group 285" transform="translate(-94 -242.784)">
    <g id="bed" transform="translate(94 192)">
      <g id="Group_193" data-name="Group 193" transform="translate(0 84)">
        <path id="Path_1095" data-name="Path 1095" class="cls-1" d="M106.849,109.255h-1.943V93.714A9.725,9.725,0,0,0,95.193,84H29.141a9.725,9.725,0,0,0-9.714,9.714v15.542H17.484A17.506,17.506,0,0,0,0,126.74v27.2H3.885v13.6H13.6v-13.6h97.135v13.6h9.714v-13.6h3.885v-27.2A17.506,17.506,0,0,0,106.849,109.255ZM23.313,93.714a5.828,5.828,0,0,1,5.828-5.828H95.193a5.828,5.828,0,0,1,5.828,5.828v15.542H95.193v-7.771a5.828,5.828,0,0,0-5.828-5.828H71.88a5.828,5.828,0,0,0-5.828,5.828v7.771H58.281v-7.771a5.828,5.828,0,0,0-5.828-5.828H34.969a5.828,5.828,0,0,0-5.828,5.828v7.771H23.313Zm67.995,7.771v7.771H69.938v-7.771a1.943,1.943,0,0,1,1.943-1.943H89.365A1.943,1.943,0,0,1,91.307,101.484Zm-36.911,0v7.771H33.026v-7.771a1.943,1.943,0,0,1,1.943-1.943H52.453A1.943,1.943,0,0,1,54.4,101.484ZM9.714,163.651H7.771v-9.714H9.714Zm106.849,0H114.62v-9.714h1.943Zm3.885-13.6H3.885v-9.714H120.448Zm0-13.6H3.885V126.74a13.615,13.615,0,0,1,13.6-13.6h89.365a13.615,13.615,0,0,1,13.6,13.6Z" transform="translate(0 -84)"/>
      </g>
    </g>
    <path id="Path_1206" data-name="Path 1206" class="cls-1" d="M.42,0h4.7l5.124-7.434L15.456,0H20.2c-1.218-1.638-6.216-8.652-7.434-10.29L19.95-20.2H15.288l-4.872,7.1L5.46-20.2H.672L7.938-10.29Z" transform="translate(193 270)"/>
    <path id="Path_1207" data-name="Path 1207" class="cls-1" d="M9.45-12.642a7.34,7.34,0,0,1,2.394-.42c2.688,0,5.544,1.512,5.544,5.082,0,2.73-2.016,5.04-5.754,5.04A5.876,5.876,0,0,1,5.586-8.82L1.554-7.9C1.806-3.444,5.376.672,11.676.672c6.342,0,9.87-4.158,9.87-8.736,0-5.586-4.41-8.274-8.4-8.274l7.77-7.182v-3.7H2.436v3.78h13.02L7.434-16.044Zm15.073-1.092v3.318h7.854v8.274h3.444v-8.274h7.9v-3.318h-7.9v-8.19H32.377v8.19Z" transform="translate(216 270)"/>
  </g>
</svg>
