<svg xmlns="http://www.w3.org/2000/svg" width="116" height="116" viewBox="0 0 116 116">
  <defs>
    <style>
      .cls-1 {
        fill: #3c81e9;
      }
    </style>
  </defs>
  <g id="apartment" transform="translate(0)">
    <g id="Group_190" data-name="Group 190" transform="translate(0 0)">
      <g id="Group_189" data-name="Group 189">
        <path id="Path_1075" data-name="Path 1075" class="cls-1" d="M188.667,78.867h9.667a1.826,1.826,0,0,0,1.933-1.933V69.2a1.826,1.826,0,0,0-1.933-1.933h-9.667a1.826,1.826,0,0,0-1.933,1.933v7.733A1.827,1.827,0,0,0,188.667,78.867Zm1.933-7.733h5.8V75h-5.8Z" transform="translate(-144.201 -51.8)"/>
        <path id="Path_1076" data-name="Path 1076" class="cls-1" d="M265.467,78.867h9.667a1.826,1.826,0,0,0,1.933-1.933V69.2a1.826,1.826,0,0,0-1.933-1.933h-9.667a1.826,1.826,0,0,0-1.933,1.933v7.733A1.826,1.826,0,0,0,265.467,78.867Zm1.933-7.733h5.8V75h-5.8Z" transform="translate(-203.601 -51.8)"/>
        <path id="Path_1077" data-name="Path 1077" class="cls-1" d="M188.667,147.134h9.667a1.826,1.826,0,0,0,1.933-1.933v-7.733a1.826,1.826,0,0,0-1.933-1.933h-9.667a1.826,1.826,0,0,0-1.933,1.933V145.2A1.826,1.826,0,0,0,188.667,147.134ZM190.6,139.4h5.8v3.867h-5.8Z" transform="translate(-144.201 -104.601)"/>
        <path id="Path_1078" data-name="Path 1078" class="cls-1" d="M265.467,147.134h9.667a1.826,1.826,0,0,0,1.933-1.933v-7.733a1.826,1.826,0,0,0-1.933-1.933h-9.667a1.826,1.826,0,0,0-1.933,1.933V145.2A1.826,1.826,0,0,0,265.467,147.134ZM267.4,139.4h5.8v3.867h-5.8Z" transform="translate(-203.601 -104.601)"/>
        <path id="Path_1079" data-name="Path 1079" class="cls-1" d="M188.667,215.4h9.667a1.826,1.826,0,0,0,1.933-1.933v-7.733a1.826,1.826,0,0,0-1.933-1.933h-9.667a1.826,1.826,0,0,0-1.933,1.933v7.733A1.826,1.826,0,0,0,188.667,215.4Zm1.933-7.733h5.8v3.867h-5.8Z" transform="translate(-144.201 -157.401)"/>
        <path id="Path_1080" data-name="Path 1080" class="cls-1" d="M265.467,215.4h9.667a1.826,1.826,0,0,0,1.933-1.933v-7.733a1.826,1.826,0,0,0-1.933-1.933h-9.667a1.826,1.826,0,0,0-1.933,1.933v7.733A1.826,1.826,0,0,0,265.467,215.4Zm1.933-7.733h5.8v3.867h-5.8Z" transform="translate(-203.601 -157.401)"/>
        <path id="Path_1081" data-name="Path 1081" class="cls-1" d="M188.667,283.667h9.667a1.826,1.826,0,0,0,1.933-1.933V274a1.826,1.826,0,0,0-1.933-1.933h-9.667A1.826,1.826,0,0,0,186.734,274v7.733A1.827,1.827,0,0,0,188.667,283.667Zm1.933-7.733h5.8V279.8h-5.8Z" transform="translate(-144.201 -210.2)"/>
        <path id="Path_1082" data-name="Path 1082" class="cls-1" d="M265.467,283.667h9.667a1.826,1.826,0,0,0,1.933-1.933V274a1.826,1.826,0,0,0-1.933-1.933h-9.667A1.826,1.826,0,0,0,263.534,274v7.733A1.827,1.827,0,0,0,265.467,283.667Zm1.933-7.733h5.8V279.8h-5.8Z" transform="translate(-203.601 -210.2)"/>
        <path id="Path_1083" data-name="Path 1083" class="cls-1" d="M188.667,351.934h9.667A1.826,1.826,0,0,0,200.267,350v-7.733a1.826,1.826,0,0,0-1.933-1.933h-9.667a1.826,1.826,0,0,0-1.933,1.933V350A1.826,1.826,0,0,0,188.667,351.934ZM190.6,344.2h5.8v3.867h-5.8Z" transform="translate(-144.201 -263.001)"/>
        <path id="Path_1084" data-name="Path 1084" class="cls-1" d="M265.467,351.934h9.667A1.826,1.826,0,0,0,277.067,350v-7.733a1.826,1.826,0,0,0-1.933-1.933h-9.667a1.826,1.826,0,0,0-1.933,1.933V350A1.826,1.826,0,0,0,265.467,351.934ZM267.4,344.2h5.8v3.867h-5.8Z" transform="translate(-203.601 -263.001)"/>
        <path id="Path_1085" data-name="Path 1085" class="cls-1" d="M53.267,135.533H43.6a1.826,1.826,0,0,0-1.933,1.933V145.2a1.826,1.826,0,0,0,1.933,1.933h9.667A1.826,1.826,0,0,0,55.2,145.2v-7.733A1.827,1.827,0,0,0,53.267,135.533Zm-1.933,7.733h-5.8V139.4h5.8Z" transform="translate(-32 -104.6)"/>
        <path id="Path_1086" data-name="Path 1086" class="cls-1" d="M53.267,203.8H43.6a1.826,1.826,0,0,0-1.933,1.933v7.733A1.826,1.826,0,0,0,43.6,215.4h9.667a1.826,1.826,0,0,0,1.933-1.933v-7.733A1.826,1.826,0,0,0,53.267,203.8Zm-1.933,7.733h-5.8v-3.867h5.8Z" transform="translate(-32 -157.4)"/>
        <path id="Path_1087" data-name="Path 1087" class="cls-1" d="M53.267,272.067H43.6A1.826,1.826,0,0,0,41.667,274v7.733a1.826,1.826,0,0,0,1.933,1.933h9.667a1.826,1.826,0,0,0,1.933-1.933V274A1.826,1.826,0,0,0,53.267,272.067ZM51.334,279.8h-5.8v-3.867h5.8Z" transform="translate(-32 -210.2)"/>
        <path id="Path_1088" data-name="Path 1088" class="cls-1" d="M53.267,340.333H43.6a1.826,1.826,0,0,0-1.933,1.933V350a1.826,1.826,0,0,0,1.933,1.933h9.667A1.826,1.826,0,0,0,55.2,350v-7.733A1.827,1.827,0,0,0,53.267,340.333Zm-1.933,7.733h-5.8V344.2h5.8Z" transform="translate(-32 -263)"/>
        <path id="Path_1089" data-name="Path 1089" class="cls-1" d="M410.533,215.4H420.2a1.826,1.826,0,0,0,1.933-1.933v-7.733A1.826,1.826,0,0,0,420.2,203.8h-9.667a1.826,1.826,0,0,0-1.933,1.933v7.733A1.826,1.826,0,0,0,410.533,215.4Zm1.933-7.733h5.8v3.867h-5.8Z" transform="translate(-315.8 -157.401)"/>
        <path id="Path_1090" data-name="Path 1090" class="cls-1" d="M410.533,283.667H420.2a1.826,1.826,0,0,0,1.933-1.933V274a1.826,1.826,0,0,0-1.933-1.933h-9.667A1.826,1.826,0,0,0,408.6,274v7.733A1.827,1.827,0,0,0,410.533,283.667Zm1.933-7.733h5.8V279.8h-5.8Z" transform="translate(-315.8 -210.2)"/>
        <path id="Path_1091" data-name="Path 1091" class="cls-1" d="M410.533,351.934H420.2A1.826,1.826,0,0,0,422.133,350v-7.733a1.826,1.826,0,0,0-1.933-1.933h-9.667a1.826,1.826,0,0,0-1.933,1.933V350A1.826,1.826,0,0,0,410.533,351.934Zm1.933-7.733h5.8v3.867h-5.8Z" transform="translate(-315.8 -263.001)"/>
        <path id="Path_1092" data-name="Path 1092" class="cls-1" d="M115,39.6V31.867a1.826,1.826,0,0,0-1.933-1.933H80.2V10.6a1.826,1.826,0,0,0,1.933-1.933V.933A1.826,1.826,0,0,0,80.2-1H33.8A1.826,1.826,0,0,0,31.867.933V8.667A1.826,1.826,0,0,0,33.8,10.6v3.867H.933A1.827,1.827,0,0,0-1,16.4v7.733A1.826,1.826,0,0,0,.933,26.067V99.533A1.826,1.826,0,0,0-1,101.466v11.6A1.826,1.826,0,0,0,.933,115H113.067A1.826,1.826,0,0,0,115,113.067v-11.6a1.826,1.826,0,0,0-1.933-1.933v-58A1.826,1.826,0,0,0,115,39.6Zm-3.867-5.8v3.867H80.2V33.8ZM80.2,49.267h3.867v3.867H80.2Zm0,15.467h3.867V68.6H80.2Zm0,15.467h3.867v3.867H80.2ZM35.733,2.867H78.267V6.733H35.733Zm40.6,7.733V99.533H37.667V10.6ZM33.8,84.067H29.933V80.2H33.8Zm0-15.467H29.933V64.733H33.8Zm0-15.467H29.933V49.267H33.8Zm0-15.467H29.933V33.8H33.8ZM2.867,18.333H33.8V22.2H2.867ZM4.8,26.067h29v3.867H28a1.826,1.826,0,0,0-1.933,1.933V39.6A1.826,1.826,0,0,0,28,41.533h5.8V45.4H28a1.826,1.826,0,0,0-1.933,1.933v7.733A1.826,1.826,0,0,0,28,57h5.8v3.867H28A1.826,1.826,0,0,0,26.067,62.8v7.733A1.826,1.826,0,0,0,28,72.466h5.8v3.867H28a1.826,1.826,0,0,0-1.933,1.933V86A1.826,1.826,0,0,0,28,87.933h5.8v11.6H4.8V26.067Zm106.333,85.067H2.867V103.4H111.133v7.733Zm-1.933-11.6h-29v-11.6H86A1.826,1.826,0,0,0,87.933,86V78.267A1.826,1.826,0,0,0,86,76.333H80.2V72.467H86a1.826,1.826,0,0,0,1.933-1.933V62.8A1.826,1.826,0,0,0,86,60.867H80.2V57H86a1.826,1.826,0,0,0,1.933-1.933V47.333A1.826,1.826,0,0,0,86,45.4H80.2V41.533h29Z" transform="translate(1 1)"/>
      </g>
    </g>
  </g>
</svg>
