<svg xmlns="http://www.w3.org/2000/svg" width="30" height="26.25" viewBox="0 0 30 26.25">
  <defs>
    <style>
      .cls-1 {
        opacity: 0.3;
      }
    </style>
  </defs>
  <g id="if_004_Calendar_183569" class="cls-1">
    <path id="Rectangle_134" data-name="Rectangle 134" d="M26.261,26.25H3.739A3.757,3.757,0,0,1,0,22.484V7.516A3.757,3.757,0,0,1,3.739,3.75H5.624v1.88a3.75,3.75,0,0,0,7.5,0V3.75h3.75v1.88a3.75,3.75,0,0,0,7.5,0V3.75h1.887A3.757,3.757,0,0,1,30,7.516V22.484A3.757,3.757,0,0,1,26.261,26.25ZM20.624,7.5A1.885,1.885,0,0,1,18.75,5.607V1.893A1.864,1.864,0,0,1,20.624,0,1.886,1.886,0,0,1,22.5,1.893V5.607A1.863,1.863,0,0,1,20.624,7.5ZM9.376,7.5A1.886,1.886,0,0,1,7.5,5.607V1.893A1.865,1.865,0,0,1,9.376,0,1.886,1.886,0,0,1,11.25,1.893V5.607A1.863,1.863,0,0,1,9.376,7.5Z" transform="translate(0 0)"/>
  </g>
</svg>
