<svg xmlns="http://www.w3.org/2000/svg" width="169.153" height="169.111" viewBox="0 0 169.153 169.111">
  <defs>
    <style>
      .cls-1 {
        fill: #88b337;
      }

      .cls-2 {
        fill: #fff;
      }

      .cls-3 {
        fill: #feca57;
      }

      .cls-4 {
        fill: #ffcdbf;
      }

      .cls-5 {
        fill: #f7bb8f;
      }

      .cls-6 {
        fill: #452fe3;
      }

      .cls-7 {
        fill: #d9d9d9;
      }
    </style>
  </defs>
  <g id="bank" transform="translate(0 -0.063)">
    <g id="Group_179" data-name="Group 179" transform="translate(29.157 0.063)">
      <path id="Path_1027" data-name="Path 1027" class="cls-1" d="M199.051,151.266a6.854,6.854,0,0,0-1.021-3.616l-6.5-10.467a11.463,11.463,0,0,1-1.225-5.19V99.745a37.9,37.9,0,0,0-37.9-37.9H134.9A37.9,37.9,0,0,0,97,99.745v32.248a11.453,11.453,0,0,1-1.225,5.19l-6.5,10.467a6.854,6.854,0,0,0-1.021,3.616h0a6.819,6.819,0,0,0,6.794,6.793h97.21A6.819,6.819,0,0,0,199.051,151.266Z" transform="translate(-88.253 -41.431)"/>
      <path id="Path_1028" data-name="Path 1028" class="cls-1" d="M217.408,20.473,231.986.063H185.335l14.578,20.41V26.3h17.494Z" transform="translate(-153.261 -0.063)"/>
    </g>
    <path id="Path_1029" data-name="Path 1029" class="cls-1" d="M265.225,177.2l-6.5-10.467a11.463,11.463,0,0,1-1.225-5.19V129.294a37.894,37.894,0,0,0-7.96-23.326c-7.785,42.89-35.193,67.616-60.938,81.64h70.852a6.824,6.824,0,0,0,5.831-10.409Z" transform="translate(-126.291 -70.917)"/>
    <path id="Path_1030" data-name="Path 1030" class="cls-2" d="M240.9,158.764V156.9a9.826,9.826,0,0,0-9.8-9.8h-1.866V141.27h-5.831V147.1h-1.866a9.8,9.8,0,0,0-3.441,18.981l5.307,1.983v11.109h-1.866a3.966,3.966,0,0,1-3.966-3.965h0v-1.866h-5.831v1.866a9.826,9.826,0,0,0,9.8,9.8h9.564a9.8,9.8,0,0,0,3.441-18.981l-5.307-1.983V152.933h1.866a3.966,3.966,0,0,1,3.965,3.965h0v1.866H240.9Zm-8.4,12.713a4.026,4.026,0,0,1,2.566,3.732,3.966,3.966,0,0,1-3.965,3.966h-1.866v-8.922Zm-9.1-9.622-3.266-1.225a4.026,4.026,0,0,1-2.566-3.732,3.966,3.966,0,0,1,3.966-3.966h1.866Z" transform="translate(-141.768 -94.556)"/>
    <g id="Group_180" data-name="Group 180" transform="translate(0 5.894)">
      <path id="Path_1031" data-name="Path 1031" class="cls-3" d="M408.808,41.039h0a14.17,14.17,0,0,0-11.663-11.663h0a14.17,14.17,0,0,0,11.663-11.663h0a14.17,14.17,0,0,0,11.663,11.663h0A14.17,14.17,0,0,0,408.808,41.039Z" transform="translate(-265.938 -17.713)"/>
      <path id="Path_1032" data-name="Path 1032" class="cls-3" d="M11.663,217.549h0A14.169,14.169,0,0,0,0,205.886H0a14.17,14.17,0,0,0,11.663-11.663h0a14.17,14.17,0,0,0,11.663,11.663h0A14.169,14.169,0,0,0,11.663,217.549Z" transform="translate(0 -135.908)"/>
    </g>
    <path id="Path_1033" data-name="Path 1033" class="cls-4" d="M197.406,279.084a8.747,8.747,0,0,0-11.663-3.236l-41.374,17.669a5.852,5.852,0,0,1-2.3.466H90.778a5.831,5.831,0,0,1,0-11.663H114.1A17.493,17.493,0,0,0,131.6,264.826H83.081a26.511,26.511,0,0,0-20.672,9.943L44.127,296.9l20.585,37.729,79.22-19.04a42.073,42.073,0,0,0,9.855-3.616l40.82-20.906A8.744,8.744,0,0,0,197.406,279.084Z" transform="translate(-29.549 -177.292)"/>
    <path id="Path_1034" data-name="Path 1034" class="cls-5" d="M86.578,395.188l6.56,12.013,79.22-19.04a42.073,42.073,0,0,0,9.855-3.616L204.286,373.2C167.606,384.428,118.913,391.426,86.578,395.188Z" transform="translate(-57.975 -249.864)"/>
    <path id="Path_1035" data-name="Path 1035" class="cls-6" d="M0,335.352v52.483H37.9l8.747-8.747L11.663,326.605Z" transform="translate(0 -218.661)"/>
    <path id="Path_1036" data-name="Path 1036" class="cls-6" d="M0,474.708H37.9l8.747-8.747-6.415-9.622A206.2,206.2,0,0,1,0,468.323Z" transform="translate(0 -305.534)"/>
    <circle id="Ellipse_29" data-name="Ellipse 29" class="cls-7" cx="5.831" cy="5.831" r="5.831" transform="translate(20.41 148.773)"/>
  </g>
</svg>
