<svg xmlns="http://www.w3.org/2000/svg" width="163.666" height="76.391" viewBox="0 0 163.666 76.391">
  <defs>
    <style>
      .cls-1 {
        fill: #3c81e9;
      }
    </style>
  </defs>
  <path id="bus" class="cls-1" d="M162.441,29.459l-8.434-18.587A18.666,18.666,0,0,0,137.1,0H16.176A16.192,16.192,0,0,0,0,16.176V56.6a8.877,8.877,0,0,0,8.865,8.865H22.1a13.639,13.639,0,0,0,26.732,0h66.012a13.639,13.639,0,0,0,26.732,0h14.513a7.59,7.59,0,0,0,7.583-7.583V35.107A13.588,13.588,0,0,0,162.441,29.459Zm-5.914.178L130.933,27.5V16.039l18.391-2.3ZM35.461,70.922a8.183,8.183,0,1,1,8.183-8.183A8.184,8.184,0,0,1,35.461,70.922Zm92.744,0a8.183,8.183,0,1,1,8.183-8.183A8.184,8.184,0,0,1,128.205,70.922Zm27.878-10.911H141.571a13.639,13.639,0,0,0-26.732,0H48.827a13.639,13.639,0,0,0-26.732,0H8.865a3.415,3.415,0,0,1-3.41-3.41V16.176A10.731,10.731,0,0,1,16.176,5.456H137.1A13.15,13.15,0,0,1,145.72,8.7l-17.684,2.21H21.822a2.728,2.728,0,0,0-2.728,2.728V30.005a2.728,2.728,0,0,0,2.728,2.728H128.09l30.12,2.509V57.884A2.13,2.13,0,0,1,156.083,60.011ZM24.55,27.278V16.367H43.644V27.278ZM49.1,16.367H70.922V27.278H49.1Zm27.278,0H95.472V27.278H76.377Zm24.55,0h24.55V27.278h-24.55Zm0,0"/>
</svg>
