<svg xmlns="http://www.w3.org/2000/svg" width="172" height="119.332" viewBox="0 0 172 119.332">
  <defs>
    <style>
      .cls-1 {
        fill: #3c81e9;
        stroke: #fff;
        stroke-width: 3px;
      }

      .cls-2 {
        fill: none;
        stroke: #3c81e9;
        stroke-linecap: round;
        stroke-width: 4px;
      }
    </style>
  </defs>
  <g id="relationship" transform="translate(28.5 1.5)">
    <g id="Group_196" data-name="Group 196" transform="translate(0 27.031)">
      <g id="Group_195" data-name="Group 195">
        <path id="Path_1097" data-name="Path 1097" class="cls-1" d="M98.438,120H84.922a16.9,16.9,0,0,0-12.653,5.7c-.82.84-.254.244-11.038,14.574H54.1C43.293,125.912,43.882,126.538,43.062,125.7A16.9,16.9,0,0,0,30.41,120H16.894A16.914,16.914,0,0,0,0,136.894v27.031a10.154,10.154,0,0,0,6.758,9.558V208.3H40.546V155.987l3.419,4.559h27.4l3.419-4.559V208.3h33.789V173.483a10.155,10.155,0,0,0,6.758-9.558V136.894A16.914,16.914,0,0,0,98.438,120ZM47.885,153.789h-.541L33.789,135.714v65.829H27.031V167.529H20.273v34.014H13.515V167.3H10.136a3.382,3.382,0,0,1-3.378-3.379V136.894a10.148,10.148,0,0,1,10.137-10.137H30.41a10.142,10.142,0,0,1,7.636,3.469c.73.783-.78-1.093,10.979,14.54a10.114,10.114,0,0,0-1.139,9.021Zm60.689,10.137A3.382,3.382,0,0,1,105.2,167.3h-3.38v34.239H95.059V167.529H88.3v34.014H81.543V135.714L67.987,153.789H57.441a3.379,3.379,0,0,1,0-6.758h7.17c5.891-7.845,13.1-17.507,12.676-16.8a10.143,10.143,0,0,1,7.636-3.47H98.438a10.148,10.148,0,0,1,10.137,10.137Z" transform="translate(0 -120)"/>
      </g>
    </g>
    <g id="Group_198" data-name="Group 198" transform="translate(10.137)">
      <g id="Group_197" data-name="Group 197">
        <path id="Path_1098" data-name="Path 1098" class="cls-1" d="M58.515,0A13.515,13.515,0,1,0,72.031,13.515,13.531,13.531,0,0,0,58.515,0Zm0,20.273a6.758,6.758,0,1,1,6.758-6.758A6.765,6.765,0,0,1,58.515,20.273Z" transform="translate(-45)"/>
      </g>
    </g>
    <g id="Group_200" data-name="Group 200" transform="translate(78.164)">
      <g id="Group_199" data-name="Group 199">
        <path id="Path_1099" data-name="Path 1099" class="cls-1" d="M360.515,0a13.515,13.515,0,1,0,13.515,13.515A13.531,13.531,0,0,0,360.515,0Zm0,20.273a6.758,6.758,0,1,1,6.758-6.758A6.765,6.765,0,0,1,360.515,20.273Z" transform="translate(-347)"/>
      </g>
    </g>
    <line id="Line_18" data-name="Line 18" class="cls-2" x2="168" transform="translate(-26.5 115.832)"/>
  </g>
</svg>
