<svg xmlns="http://www.w3.org/2000/svg" width="123" height="116.216" viewBox="0 0 123 116.216">
  <defs>
    <style>
      .cls-1 {
        fill: #3c81e9;
      }
    </style>
  </defs>
  <g id="calendar" transform="translate(0 -10.656)">
    <g id="Group_224" data-name="Group 224" transform="translate(0 10.48)">
      <g id="Group_223" data-name="Group 223" transform="translate(0 0.176)">
        <path id="Path_1166" data-name="Path 1166" class="cls-1" d="M117.459,21.356H98.711V13.069a2.589,2.589,0,0,0-5.179,0v8.26H64.089v-8.26a2.589,2.589,0,1,0-5.179,0v8.26H29.468v-8.26a2.589,2.589,0,1,0-5.179,0v8.26H5.541A5.542,5.542,0,0,0,0,26.871v94.283A5.542,5.542,0,0,0,5.541,126.7H117.459A5.542,5.542,0,0,0,123,121.154V26.9A5.542,5.542,0,0,0,117.459,21.356Zm.363,99.8a.362.362,0,0,1-.363.363H5.541a.362.362,0,0,1-.363-.363V57.841H117.821Zm0-68.492H5.179V26.9a.362.362,0,0,1,.363-.363H24.315v8.39a2.589,2.589,0,0,0,5.179,0V26.638H58.911v8.286a2.589,2.589,0,0,0,5.179,0V26.638H93.532v8.286a2.589,2.589,0,1,0,5.179,0V26.638h18.774a.362.362,0,0,1,.363.363Z" transform="translate(0 -10.48)"/>
      </g>
    </g>
    <g id="hurry" transform="translate(28 47.581)">
      <g id="Group_194" data-name="Group 194" transform="translate(0 16)">
        <path id="Path_1096" data-name="Path 1096" class="cls-1" d="M65.209,75.042H50.963c.012-.033.024-.067.036-.1s.03-.1.042-.145l3.92-15.679a5.919,5.919,0,0,0-2.352-6.7l-7.471-4.98,1.878-3.757,2.08,2.08a5.866,5.866,0,0,0,4.175,1.73h8a5.9,5.9,0,1,0,0-11.808H55.714L51.763,31.73a7.878,7.878,0,1,0-8.193-6.378L30.383,20.077a1.968,1.968,0,0,0-1.462,3.655l10.192,4.077H33.589a5.934,5.934,0,0,0-2.641.623l-7.872,3.936a5.913,5.913,0,0,0-1.627,1.2l-2.026-4.153a1.968,1.968,0,0,0-2.632-.906L2.64,35.407a1.969,1.969,0,0,0-.906,2.632l8.628,17.689a1.968,1.968,0,0,0,2.632.906l14.151-6.9A1.969,1.969,0,0,0,28.05,47.1L26.3,43.522a5.931,5.931,0,0,0,2.052-.591l6.624-3.313h.862L29.071,53.16l-14.277,7a1.979,1.979,0,0,0-.225.129,5.9,5.9,0,0,0,6.437,9.9l15.645-7.823A5.77,5.77,0,0,0,38.87,59.97l.945-1.89,2.608,1.739L39.764,71.3a5.874,5.874,0,0,0,.069,3.739H1.968a1.968,1.968,0,1,0,0,3.936H65.209a1.968,1.968,0,0,0,0-3.936Zm-11.7-36a1.968,1.968,0,0,0,1.392.577h6.374a1.968,1.968,0,0,1,0,3.936h-8a1.981,1.981,0,0,1-1.391-.577l-3.007-3.007,1.808-3.616c.016-.032.03-.065.045-.1ZM51.3,19.936a3.936,3.936,0,1,1-3.936,3.936A3.941,3.941,0,0,1,51.3,19.936Zm-38.265,32.3-6.9-14.151,10.613-5.176,6.9,14.151ZM35.35,58.208a1.983,1.983,0,0,1-.587.7L19.147,66.717a1.971,1.971,0,0,0-.213.123,1.968,1.968,0,0,1-2.271-3.213L31.4,56.4a1.968,1.968,0,0,0,.894-.887l.98-1.961a5.883,5.883,0,0,0,.974.816l2.265,1.51Zm9.424,16.734a1.971,1.971,0,0,1-1.245-2.49c.044-.131-.161.734,3.035-13.071a1.968,1.968,0,0,0-.826-2.081l-9.306-6.2a1.972,1.972,0,0,1-.67-2.518l5.024-10.048a1.97,1.97,0,0,0-1.76-2.848H34.517a1.968,1.968,0,0,0-.88.208L26.6,39.409a1.968,1.968,0,1,1-1.761-3.521l7.872-3.936a1.978,1.978,0,0,1,.88-.207H45.4a1.973,1.973,0,0,1,1.752,2.867L44.734,39.44l0,.007L40.839,47.23a1.973,1.973,0,0,0,.669,2.518l8.918,5.945a1.974,1.974,0,0,1,.775,2.261c-.037.109.181-.749-3.957,15.8A1.968,1.968,0,0,1,44.774,74.942Z" transform="translate(0 -16)"/>
      </g>
    </g>
  </g>
</svg>
