<svg xmlns="http://www.w3.org/2000/svg" width="167.263" height="67.558" viewBox="0 0 167.263 67.558">
  <defs>
    <style>
      .cls-1 {
        fill: #3c81e9;
        stroke: #fff;
      }
    </style>
  </defs>
  <g id="car" transform="translate(0.5 0.008)">
    <path id="Path_1100" data-name="Path 1100" class="cls-1" d="M240,86.891h11.084v5.543H240Zm0,0" transform="translate(-170.724 -61.46)"/>
    <path id="Path_1101" data-name="Path 1101" class="cls-1" d="M163.885,17.146l-18.823-2.688a94.972,94.972,0,0,0-10.667-5.652A93.316,93.316,0,0,0,95.789.492h-3.27A94.192,94.192,0,0,0,47.543,11.961l-9.5,5.182a65.476,65.476,0,0,0-31.686,8.59A12.65,12.65,0,0,0,0,36.687V53.141a2.771,2.771,0,0,0,2.771,2.771h9.3a16.565,16.565,0,0,0,31.266,0h74.034a16.565,16.565,0,0,0,31.266,0h.995a2.782,2.782,0,0,0,1.031-.2l8.975-3.6a10.479,10.479,0,0,0,6.621-9.779V19.889A2.773,2.773,0,0,0,163.885,17.146ZM38.57,52.588a11.085,11.085,0,1,1,.224-2.217A11.084,11.084,0,0,1,38.57,52.588Zm50.1-2.217H44.336a16.626,16.626,0,1,0-33.252,0H5.542V36.687a7.088,7.088,0,0,1,3.566-6.143,59.911,59.911,0,0,1,29.686-7.884H88.673Zm0-33.252H49.663l.534-.292A88.6,88.6,0,0,1,88.673,6.156ZM94.215,6.034h1.568a87.7,87.7,0,0,1,32.605,6.247l-4.838,4.838H94.215ZM143.87,52.588a11.085,11.085,0,1,1,.224-2.217A11.084,11.084,0,0,1,143.87,52.588Zm16.851-27.157h-8.313v5.543h8.313V42.335a4.959,4.959,0,0,1-3.137,4.63l-7.948,3.192c0-.255-.033-.507-.05-.762s-.023-.554-.05-.831-.083-.555-.127-.831-.078-.555-.133-.806-.136-.532-.209-.8-.127-.529-.211-.787-.183-.5-.276-.757-.18-.512-.277-.762-.228-.476-.344-.711-.23-.494-.36-.732-.277-.441-.4-.662-.276-.475-.434-.7-.306-.407-.458-.612-.325-.447-.5-.66-.343-.38-.515-.555-.363-.409-.554-.6-.38-.347-.571-.519-.4-.374-.608-.555-.424-.318-.634-.476-.422-.327-.643-.475-.471-.276-.709-.432-.433-.277-.657-.4-.5-.245-.759-.366-.454-.23-.69-.329-.555-.205-.831-.3-.458-.178-.693-.253c-.316-.1-.639-.167-.962-.247-.211-.05-.413-.116-.626-.16-.341-.07-.69-.108-1.036-.159-.205-.027-.4-.072-.607-.091a16.889,16.889,0,0,0-1.69-.086,16.643,16.643,0,0,0-16.627,16.627H94.216V22.659H124.7a2.766,2.766,0,0,0,1.959-.812l7.186-7.186a88.859,88.859,0,0,1,8.785,4.806,2.779,2.779,0,0,0,1.075.394l17.02,2.43Zm0,0" transform="translate(0 0)"/>
  </g>
</svg>
