<svg xmlns="http://www.w3.org/2000/svg" width="124.426" height="124.359" viewBox="0 0 124.426 124.359">
  <defs>
    <style>
      .cls-1 {
        fill: #3c81e9;
        stroke: #fff;
        stroke-width: 2px;
      }
    </style>
  </defs>
  <g id="clock" transform="translate(1 0.832)">
    <g id="Group_208" data-name="Group 208" transform="translate(0 0.168)">
      <path id="Path_1119" data-name="Path 1119" class="cls-1" d="M117.539,37.518a59.978,59.978,0,0,0-32.6-32.464A60.168,60.168,0,0,0,61.112.168,59.546,59.546,0,0,0,37.35,5.055,60.168,60.168,0,0,0,4.819,37.518a61.156,61.156,0,0,0,0,47.592A60.3,60.3,0,0,0,37.35,117.642a59.549,59.549,0,0,0,23.762,4.885,60.189,60.189,0,0,0,23.829-4.885,60.109,60.109,0,0,0,32.6-32.531,60.383,60.383,0,0,0,0-47.592Zm-9.772,50.805a53.7,53.7,0,0,1-19.679,19.612,52.722,52.722,0,0,1-26.975,7.229,51.835,51.835,0,0,1-20.884-4.284A54.73,54.73,0,0,1,23.093,99.435a54.4,54.4,0,0,1-11.445-17.2A52.7,52.7,0,0,1,7.431,61.28a52.622,52.622,0,0,1,7.163-26.907A53.73,53.73,0,0,1,34.206,14.761a52.314,52.314,0,0,1,26.906-7.23,52.72,52.72,0,0,1,26.975,7.23,53.867,53.867,0,0,1,19.679,19.612,52.317,52.317,0,0,1,7.229,26.907A52.82,52.82,0,0,1,107.767,88.324Z" transform="translate(0 -0.168)"/>
      <path id="Path_1120" data-name="Path 1120" class="cls-1" d="M294.657,149.342V114.669a3.859,3.859,0,0,0-3.883-3.748,3.773,3.773,0,0,0-3.681,3.748v35.208a3.059,3.059,0,0,1,.134.536,3.5,3.5,0,0,0,1,3.013l20.015,20.013a3.808,3.808,0,0,0,5.154,0,3.61,3.61,0,0,0,0-5.221Z" transform="translate(-229.662 -88.766)"/>
    </g>
  </g>
</svg>
