<svg xmlns="http://www.w3.org/2000/svg" width="26.531" height="25.887" viewBox="0 0 26.531 25.887">
  <defs>
    <style>
      .cls-1 {
        opacity: 0.3;
      }
    </style>
  </defs>
  <g id="noun_921094_cc" class="cls-1" transform="translate(0 0)">
    <g id="Group" transform="translate(0 0)">
      <path id="Shape" d="M26.025,11.029,22.733,8.08V2.068a.844.844,0,0,0-.859-.859H20.7a.844.844,0,0,0-.859.859V5.447L14.345.408a1.617,1.617,0,0,0-2.147,0L.517,11.058a1.621,1.621,0,0,0,2.2,2.376L13.257,3.786l10.564,9.619a1.621,1.621,0,1,0,2.2-2.376Z"/>
      <path id="Shape-2" data-name="Shape" d="M14.743,20.183H4.409a2.593,2.593,0,0,1-2.548-2.118L0,8.531,9.477,0l9.676,8.531-1.861,9.534A2.593,2.593,0,0,1,14.743,20.183Zm-4.695-7.616v2.863h2.863V12.567Zm-3.979,0v2.863H8.9V12.567Zm3.979-3.692v2.862h2.863V8.875Zm-3.979,0v2.862H8.9V8.875Z" transform="translate(3.753 5.704)"/>
    </g>
  </g>
</svg>
