<svg xmlns="http://www.w3.org/2000/svg" width="103.661" height="107.499" viewBox="0 0 103.661 107.499">
  <defs>
    <style>
      .cls-1 {
        fill: #3c81e9;
      }
    </style>
  </defs>
  <g id="duplex-house" transform="translate(0)">
    <path id="Path_729" data-name="Path 729" class="cls-1" d="M186.32,338.83a2.071,2.071,0,1,0-1.464-.608A2.086,2.086,0,0,0,186.32,338.83Z" transform="translate(-138.5 -248.099)"/>
    <path id="Path_730" data-name="Path 730" class="cls-1" d="M80.715,271.375H66.195a2.07,2.07,0,0,0-2.07,2.07V294.11a2.07,2.07,0,0,0,2.07,2.07H80.715a2.07,2.07,0,0,0,2.07-2.07V273.445A2.07,2.07,0,0,0,80.715,271.375Zm-2.07,4.14v6.193H68.265v-6.193ZM68.265,292.04v-6.193H78.646v6.193Z" transform="translate(-49.453 -201.165)"/>
    <path id="Path_731" data-name="Path 731" class="cls-1" d="M282.028,296.18h14.521a2.07,2.07,0,0,0,2.07-2.07V273.445a2.07,2.07,0,0,0-2.07-2.07H282.028a2.07,2.07,0,0,0-2.07,2.07V294.11A2.07,2.07,0,0,0,282.028,296.18Zm2.07-4.14v-6.193h10.381v6.193Zm10.381-16.526v6.193H284.1v-6.193Z" transform="translate(-209.446 -201.165)"/>
    <path id="Path_732" data-name="Path 732" class="cls-1" d="M80.715,151.292H66.195a2.07,2.07,0,0,0-2.07,2.07v20.665a2.07,2.07,0,0,0,2.07,2.07H80.715a2.07,2.07,0,0,0,2.07-2.07V153.362A2.07,2.07,0,0,0,80.715,151.292Zm-2.07,4.14v6.193H68.265v-6.193ZM68.265,171.957v-6.193H78.646v6.193Z" transform="translate(-49.453 -112.15)"/>
    <path id="Path_733" data-name="Path 733" class="cls-1" d="M162.153,176.1h20.525a2.07,2.07,0,0,0,2.07-2.07V153.362a2.07,2.07,0,0,0-2.07-2.07H162.153a2.07,2.07,0,0,0-2.07,2.07v20.665A2.07,2.07,0,0,0,162.153,176.1Zm2.07-4.14v-6.193h16.386v6.193Zm16.386-16.526v6.193H164.223v-6.193Z" transform="translate(-120.585 -112.15)"/>
    <path id="Path_734" data-name="Path 734" class="cls-1" d="M282.028,176.1h14.521a2.07,2.07,0,0,0,2.07-2.07V153.362a2.07,2.07,0,0,0-2.07-2.07H282.028a2.07,2.07,0,0,0-2.07,2.07v20.665A2.07,2.07,0,0,0,282.028,176.1Zm2.07-4.14v-6.193h10.381v6.193Zm10.381-16.526v6.193H284.1v-6.193Z" transform="translate(-209.446 -112.15)"/>
    <path id="Path_735" data-name="Path 735" class="cls-1" d="M109.008,103.359h-2.156V34.971h2.043a2.071,2.071,0,0,0,1.889-2.917L102.62,9.661A2.07,2.07,0,0,0,100.675,8.3H96.643V2.07A2.07,2.07,0,0,0,94.574,0H82.058a2.07,2.07,0,0,0-2.07,2.07V8.3H17.82a2.07,2.07,0,0,0-1.945,1.361L7.661,32.192a2.07,2.07,0,0,0,1.945,2.779h2.037v68.388H9.487a2.07,2.07,0,0,0,0,4.14h99.521a2.07,2.07,0,0,0,0-4.14ZM84.128,4.14H92.5V8.3H84.128Zm-64.86,8.3H99.227l6.705,18.391H12.563Zm-3.486,22.53h86.93v68.388H71.58V72.28a2.07,2.07,0,0,0-2.07-2.07H48.985a2.07,2.07,0,0,0-2.07,2.07v31.079H15.782ZM67.44,103.359H51.054V74.35H67.44Z" transform="translate(-7.417)"/>
  </g>
</svg>
