<svg xmlns="http://www.w3.org/2000/svg" width="122.332" height="131.07" viewBox="0 0 122.332 131.07">
  <defs>
    <style>
      .cls-1 {
        fill: #3c81e9;
      }
    </style>
  </defs>
  <g id="factory" transform="translate(-15.999)">
    <g id="Group_226" data-name="Group 226" transform="translate(16 0)">
      <g id="Group_225" data-name="Group 225">
        <path id="Path_1167" data-name="Path 1167" class="cls-1" d="M137.255,57.1a2.185,2.185,0,0,0-2.167-.026l-6.012,3.34L127.41,2.123A2.184,2.184,0,0,0,125.225,0H109.934a2.184,2.184,0,0,0-2.185,2.123L105.713,73.4l-6.7,3.714V58.982a2.184,2.184,0,0,0-3.244-1.909L59.69,77.113V58.982a2.184,2.184,0,0,0-3.244-1.909L17.125,78.917A2.184,2.184,0,0,0,16,80.827v48.059a2.185,2.185,0,0,0,2.185,2.185H136.148a2.185,2.185,0,0,0,2.185-2.185v-69.9A2.184,2.184,0,0,0,137.255,57.1Zm-25.2-52.73H123.1l.127,4.369h-11.3Zm-.251,8.738h11.547l1.42,49.7-14.621,8.12ZM74.982,126.7H61.875V115.779H74.982Zm17.476,0H79.351V115.779H92.458Zm41.506,0H96.827V113.594a2.185,2.185,0,0,0-2.185-2.185H59.69a2.185,2.185,0,0,0-2.185,2.185V126.7H20.369V82.113L55.321,62.7V80.827a2.184,2.184,0,0,0,3.244,1.909L94.642,62.7V80.827a2.184,2.184,0,0,0,3.244,1.909l20.6-11.445,9.577-5.319,5.9-3.277Z" transform="translate(-16 0)"/>
      </g>
    </g>
    <g id="Group_228" data-name="Group 228" transform="translate(26.923 87.38)">
      <g id="Group_227" data-name="Group 227">
        <path id="Path_1168" data-name="Path 1168" class="cls-1" d="M75.661,320H58.185A2.185,2.185,0,0,0,56,322.185v8.738a2.185,2.185,0,0,0,2.185,2.185H75.661a2.185,2.185,0,0,0,2.184-2.185v-8.738A2.185,2.185,0,0,0,75.661,320Zm-2.185,8.738H60.369v-4.369H73.476Z" transform="translate(-56 -320)"/>
      </g>
    </g>
    <g id="Group_230" data-name="Group 230" transform="translate(66.244 87.38)">
      <g id="Group_229" data-name="Group 229">
        <path id="Path_1169" data-name="Path 1169" class="cls-1" d="M219.661,320H202.185A2.185,2.185,0,0,0,200,322.185v8.738a2.185,2.185,0,0,0,2.185,2.185h17.476a2.185,2.185,0,0,0,2.185-2.185v-8.738A2.185,2.185,0,0,0,219.661,320Zm-2.185,8.738H204.369v-4.369h13.107Z" transform="translate(-200 -320)"/>
      </g>
    </g>
    <g id="Group_232" data-name="Group 232" transform="translate(105.565 87.38)">
      <g id="Group_231" data-name="Group 231">
        <path id="Path_1170" data-name="Path 1170" class="cls-1" d="M363.661,320H346.185A2.185,2.185,0,0,0,344,322.185v8.738a2.185,2.185,0,0,0,2.184,2.185h17.476a2.185,2.185,0,0,0,2.185-2.185v-8.738A2.185,2.185,0,0,0,363.661,320Zm-2.185,8.738H348.369v-4.369h13.107Z" transform="translate(-344 -320)"/>
      </g>
    </g>
  </g>
</svg>
