<svg xmlns="http://www.w3.org/2000/svg" width="30.85" height="31.928" viewBox="0 0 30.85 31.928">
  <defs>
    <style>
      .cls-1 {
        opacity: 0.3;
      }
    </style>
  </defs>
  <g id="if_sofa-chair_353396" class="cls-1" transform="translate(0 0)">
    <path id="Shape" d="M27.636,0a5.175,5.175,0,0,0-5.142,5.2v.949a21.135,21.135,0,0,0-7.07-.949,21.139,21.139,0,0,0-7.07.949V5.2A5.175,5.175,0,0,0,3.213,0,3.253,3.253,0,0,0,1.979,6.246a.972.972,0,0,1,.592.9l.643,2.6A4.535,4.535,0,0,0,7.2,14.257a1.57,1.57,0,1,0,1.4.031H22.249a1.564,1.564,0,1,0,1.4-.031,4.535,4.535,0,0,0,3.987-4.515l.643-2.6a.972.972,0,0,1,.592-.9A3.253,3.253,0,0,0,27.636,0Z" transform="translate(0 14.663)"/>
    <path id="Shape-2" data-name="Shape" d="M4.338,18.34a29.32,29.32,0,0,1,5.3-.43,29.32,29.32,0,0,1,5.3.43,7.145,7.145,0,0,1,4.339-5.131V9.742A9.692,9.692,0,0,0,9.64,0,9.692,9.692,0,0,0,0,9.742v3.467A7.144,7.144,0,0,1,4.338,18.34Z" transform="translate(5.784 0)"/>
  </g>
</svg>
