<svg xmlns="http://www.w3.org/2000/svg" xmlns:xlink="http://www.w3.org/1999/xlink" width="37.255" height="37.255" viewBox="0 0 37.255 37.255">
  <defs>
    <style>
      .cls-1 {
        fill: #fff;
      }

      .cls-2 {
        fill: rgba(0,0,0,0.9);
      }

      .cls-3 {
        filter: url(#Ellipse_8);
      }
    </style>
    <filter id="Ellipse_8" x="0" y="0" width="37.255" height="37.255" filterUnits="userSpaceOnUse">
      <feOffset dy="1" input="SourceAlpha"/>
      <feGaussianBlur stdDeviation="1" result="blur"/>
      <feFlood flood-opacity="0.161"/>
      <feComposite operator="in" in2="blur"/>
      <feComposite in="SourceGraphic"/>
    </filter>
  </defs>
  <g id="Heart" transform="translate(3 2)">
    <g class="cls-3" transform="matrix(1, 0, 0, 1, -3, -2)">
      <circle id="Ellipse_8-2" data-name="Ellipse 8" class="cls-1" cx="15.627" cy="15.627" r="15.627" transform="translate(3 2)"/>
    </g>
    <g id="_026-heart" data-name="026-heart" transform="translate(5.47 8.22)">
      <g id="Group_11" data-name="Group 11">
        <path id="Path_738" data-name="Path 738" class="cls-2" d="M17.938,18.491a5.6,5.6,0,0,0-7.824,0l-.345.341-.345-.341a5.608,5.608,0,0,0-7.549-.259q-.144.125-.277.259a5.335,5.335,0,0,0,0,7.614l7.665,7.555a.733.733,0,0,0,.987.025l.027-.025L17.938,26.1A5.334,5.334,0,0,0,17.938,18.491Zm-1.01,6.715h0L9.769,32.262,2.611,25.206a4.076,4.076,0,0,1,0-5.817,4.143,4.143,0,0,1,5.576-.21q.117.1.224.21l.851.839a.755.755,0,0,0,1.014,0l.851-.839a4.143,4.143,0,0,1,5.576-.21q.117.1.224.21A4.041,4.041,0,0,1,16.928,25.206Z" transform="translate(0 -16.896)"/>
      </g>
    </g>
  </g>
</svg>
