<svg xmlns="http://www.w3.org/2000/svg" width="33.648" height="29.224" viewBox="0 0 33.648 29.224">
  <g id="Heart" transform="translate(-0.001)">
    <g id="_026-heart" data-name="026-heart" transform="translate(0 0)">
      <g id="Group_11" data-name="Group 11" transform="translate(0 0)">
        <path id="Path_738" data-name="Path 738" d="M30.9,19.643a9.638,9.638,0,0,0-13.476,0l-.594.587-.594-.587a9.66,9.66,0,0,0-13-.446q-.247.215-.478.446a9.188,9.188,0,0,0,0,13.114l13.2,13.012a1.263,1.263,0,0,0,1.7.043l.046-.043L30.9,32.757A9.188,9.188,0,0,0,30.9,19.643Zm-1.74,11.566h0L16.827,43.363,4.5,31.209a7.021,7.021,0,0,1,0-10.02,7.136,7.136,0,0,1,9.6-.361q.2.173.386.361l1.466,1.445a1.3,1.3,0,0,0,1.746,0l1.466-1.444a7.136,7.136,0,0,1,9.6-.361q.2.173.386.361A6.96,6.96,0,0,1,29.157,31.209Z" transform="translate(0 -16.896)"/>
      </g>
    </g>
  </g>
</svg>
