<svg xmlns="http://www.w3.org/2000/svg" width="290.021" height="35.502" viewBox="0 0 290.021 35.502">
  <defs>
    <style>
      .cls-1, .cls-2 {
        fill: #ff005b;
      }

      .cls-1 {
        fill-rule: evenodd;
      }

      .cls-3 {
        fill: rgba(0,0,0,0.8);
      }
    </style>
  </defs>
  <g id="logo_big" data-name="logo big" transform="translate(-31.714 177.775)">
    <g id="Group_325" data-name="Group 325" transform="translate(193.8 -177.68)">
      <path id="Path_1239" data-name="Path 1239" class="cls-1" d="M2463.989,354.13h4.839v12.826h-4.839Z" transform="translate(-2463.989 -332.794)"/>
      <path id="Path_1240" data-name="Path 1240" class="cls-1" d="M2818.692,208.194h4.839v21.618h-4.839Z" transform="translate(-2797.322 -195.65)"/>
      <path id="Path_1241" data-name="Path 1241" class="cls-1" d="M2524.748,486.678v4.84h-20.6v-4.84Z" transform="translate(-2501.725 -457.356)"/>
      <path id="Path_1242" data-name="Path 1242" class="cls-1" d="M2496.6.044l3.421,3.422-12.346,12.35-3.421-3.422Z" transform="translate(-2483.029 -0.041)"/>
      <path id="Path_1243" data-name="Path 1243" class="cls-1" d="M2653.091,12.342l-3.421,3.422L2637.325,3.416l3.421-3.422Z" transform="translate(-2626.882 0.006)"/>
    </g>
    <path id="Path_1246" data-name="Path 1246" class="cls-2" d="M31.349,47V13.677H24.816V27.072H10.293V13.677H3.807V47h6.486V33.182H24.816V47Z" transform="translate(156.013 -190.11)"/>
    <path id="Path_1248" data-name="Path 1248" class="cls-2" d="M40.984,0V-33.323H32.148L22.372-9.259,12.361-33.323H3.807V0h6.2V-23.171L19.6,0H25l9.588-23.359V0ZM69.466,0V-6.11H55.084v-7.708H68.1V-19.6H55.084v-7.614H69.466v-6.11H48.6V0Zm28.9-25.38c-.752-3.76-3.854-8.648-11.938-8.648-6.3,0-11.609,4.512-11.609,10.434,0,5.029,3.431,8.46,8.742,9.541l4.653.94c2.585.517,4.042,2.021,4.042,3.948,0,2.35-1.927,4.089-5.4,4.089-4.7,0-7-2.961-7.285-6.251l-6.016,1.6C74.072-4.982,77.973.7,86.809.7c7.755,0,12.032-5.17,12.032-10.293,0-4.7-3.243-8.648-9.306-9.823L84.882-20.3c-2.444-.47-3.619-1.927-3.619-3.76,0-2.209,2.068-4.23,5.217-4.23,4.23,0,5.734,2.867,6.063,4.7Z" transform="translate(222.895 -143.747)"/>
    <path id="Path_1247" data-name="Path 1247" class="cls-3" d="M18.659.7C26.32.7,31.584-3.76,33.37-10.011l-4.089-1.5a10.592,10.592,0,0,1-10.622,7.99C12.6-3.525,6.815-7.99,6.815-16.685S12.6-29.8,18.659-29.8c5.452,0,9.118,2.82,10.387,7.849l4.277-1.5c-1.692-6.439-7.05-10.575-14.664-10.575-8.272,0-16.544,6.2-16.544,17.343S10.058.7,18.659.7ZM56.729,0h5.358L54.144-13.959c5.029-.94,8.084-4.653,8.084-9.447,0-5.5-3.9-9.917-10.2-9.917H39.48V0h4.653V-13.63h4.982Zm-12.6-17.766V-29.187h7.05c3.76,0,6.3,2.256,6.3,5.781,0,3.431-2.538,5.64-6.3,5.64ZM88.83,0V-4.277H73.179v-10.2H87.373V-18.8H73.179V-29.046H88.83v-4.277H68.573V0Zm11.656-4.089V-29.234H107.4c6.157,0,11.233,4.23,11.233,12.643,0,8.366-5.17,12.5-11.327,12.5ZM107.442,0c8.46,0,15.933-5.687,15.933-16.591,0-10.951-7.379-16.732-15.839-16.732H95.88V0Z" transform="translate(29.599 -142.978)"/>
  </g>
</svg>
