<svg xmlns="http://www.w3.org/2000/svg" xmlns:xlink="http://www.w3.org/1999/xlink" width="44" height="36.348" viewBox="0 0 44 36.348">
  <defs>
    <style>
      .cls-1 {
        fill: #babab9;
      }

      .cls-2 {
        clip-path: url(#clip-path);
      }
    </style>
    <clipPath id="clip-path">
      <rect id="Rectangle_63" data-name="Rectangle 63" class="cls-1" width="44" height="36.348" transform="translate(13 1682)"/>
    </clipPath>
  </defs>
  <g id="Mask_Group_10" data-name="Mask Group 10" class="cls-2" transform="translate(-13 -1682)">
    <g id="circular-line-with-word-age-in-the-center" transform="translate(15.422 1682)">
      <g id="Group_160" data-name="Group 160" transform="translate(0 0)">
        <path id="Path_862" data-name="Path 862" class="cls-1" d="M39.156,23.62,34.445,14.2,29.733,23.62h3.174a15.487,15.487,0,1,1-.3-10.265l1.547-3.095a18.185,18.185,0,1,0,1.558,13.36h3.444Z" transform="translate(0 -0.734)"/>
        <path id="Path_863" data-name="Path 863" class="cls-1" d="M4.457,15.592h1.7l.517-1.862H8.752l.56,1.862h1.765L8.828,8.338H6.675Zm2.885-4.628c.118-.42.226-.969.334-1.4H7.7c.108.43.237.97.367,1.4L8.516,12.5h-1.6Z" transform="translate(4.069 6.208)"/>
        <path id="Path_864" data-name="Path 864" class="cls-1" d="M12.233,9.655a4.043,4.043,0,0,1,1.689.311l.345-1.313A5.005,5.005,0,0,0,12.255,8.3c-2.379,0-4.132,1.377-4.145,3.789a3.516,3.516,0,0,0,1.023,2.638,4.043,4.043,0,0,0,2.95.979,8.119,8.119,0,0,0,2.421-.409V11.473H11.8v1.281h1.121v1.517a2.181,2.181,0,0,1-.808.108A2.18,2.18,0,0,1,9.833,12,2.194,2.194,0,0,1,12.233,9.655Z" transform="translate(7.404 6.172)"/>
        <path id="Path_865" data-name="Path 865" class="cls-1" d="M16.6,9.683V8.338H12.124v7.253h4.628V14.247H13.771V12.525h2.67V11.189h-2.67V9.683Z" transform="translate(11.07 6.209)"/>
      </g>
    </g>
  </g>
</svg>
