<svg xmlns="http://www.w3.org/2000/svg" width="124.909" height="124.887" viewBox="0 0 124.909 124.887">
  <defs>
    <style>
      .cls-1 {
        fill: #3c81e9;
        stroke: #fff;
      }
    </style>
  </defs>
  <g id="pedestrian" transform="translate(0.5 0.5)">
    <path id="Path_1110" data-name="Path 1110" class="cls-1" d="M74.518,47.259a7.259,7.259,0,1,0-7.259,7.259A7.267,7.267,0,0,0,74.518,47.259Zm-7.259,2.42a2.42,2.42,0,1,1,2.42-2.42A2.422,2.422,0,0,1,67.259,49.679Zm0,0" transform="translate(-45.482 -30.321)"/>
    <path id="Path_1111" data-name="Path 1111" class="cls-1" d="M74.518,107.259a7.259,7.259,0,1,0-7.259,7.259A7.267,7.267,0,0,0,74.518,107.259Zm-7.259,2.42a2.42,2.42,0,1,1,2.42-2.42A2.422,2.422,0,0,1,67.259,109.679Zm0,0" transform="translate(-45.482 -75.803)"/>
    <path id="Path_1112" data-name="Path 1112" class="cls-1" d="M74.518,167.259a7.259,7.259,0,1,0-7.259,7.259A7.267,7.267,0,0,0,74.518,167.259Zm-9.679,0a2.42,2.42,0,1,1,2.42,2.42A2.422,2.422,0,0,1,64.839,167.259Zm0,0" transform="translate(-45.482 -121.285)"/>
    <path id="Path_1114" data-name="Path 1114" class="cls-1" d="M352,115.679A9.679,9.679,0,1,0,361.679,106,9.69,9.69,0,0,0,352,115.679Zm9.679-4.839a4.839,4.839,0,1,1-4.839,4.839A4.845,4.845,0,0,1,361.679,110.839Zm0,0" transform="translate(-266.828 -80.352)"/>
    <path id="Path_1115" data-name="Path 1115" class="cls-1" d="M121.467,119.047H117.9a7.244,7.244,0,0,0-.535-6.021L101.6,85.435a7.232,7.232,0,0,0,.513-2.682V66.226l3.816,2.949L109.909,78a7.259,7.259,0,0,0,13.458-5.446c-.022-.054-.045-.108-.071-.161l-5.423-11.143a2.426,2.426,0,0,0-.691-.852L98.419,45.81c-.983-.764-5.287-1.729-8.391,1.028L68.25,66.2A7.215,7.215,0,0,0,66.569,68.4a7.259,7.259,0,0,0-7.776-.323l-2.1,1.21a7.268,7.268,0,0,0-9.916-2.657l-4.191,2.42a7.254,7.254,0,0,0-2.657,9.916l9.678,16.763a7.255,7.255,0,0,0,9.917,2.657l4.19-2.419a7.266,7.266,0,0,0,2.657-9.916l2.1-1.21A7.234,7.234,0,0,0,72.1,78.809a7.258,7.258,0,0,0,5.8-1.762l9.7-8.617V80.125L77.18,92.622a7.255,7.255,0,0,0-1.686,4.648v19.357a7.225,7.225,0,0,0,.416,2.42H38.715v-2.42a7.267,7.267,0,0,0-7.259-7.259H24.2V62.911h7.259a7.267,7.267,0,0,0,7.259-7.259V7.259A7.267,7.267,0,0,0,31.456,0H12.1A7.267,7.267,0,0,0,4.839,7.259V55.652A7.267,7.267,0,0,0,12.1,62.911h7.259v46.458H12.1a7.267,7.267,0,0,0-7.259,7.259v2.42H2.42a2.42,2.42,0,0,0,0,4.839H121.467a2.42,2.42,0,1,0,0-4.839ZM9.679,55.652V7.259a2.422,2.422,0,0,1,2.42-2.42H31.456a2.422,2.422,0,0,1,2.42,2.42V55.652a2.422,2.422,0,0,1-2.42,2.42H12.1A2.422,2.422,0,0,1,9.679,55.652Zm102.582,63.076a2.418,2.418,0,0,1-3.3-.9L95.175,93.7l3.3-3.967,14.682,25.693A2.422,2.422,0,0,1,112.261,118.728Zm-22.25-2.1V99.9l1.857-2.229,12.217,21.378H89.6A7.225,7.225,0,0,0,90.011,116.628ZM118.9,74.42a2.42,2.42,0,0,1-4.52,1.731c-.013-.032-.026-.064-.041-.1l-4.251-9.42a2.419,2.419,0,0,0-.726-.919L102.11,60.11v-5.3l11.66,9.066ZM61.3,91.778,57.11,94.2a2.418,2.418,0,0,1-3.306-.885L44.126,76.549a2.418,2.418,0,0,1,.885-3.306l4.19-2.419a2.422,2.422,0,0,1,3.306.885c.016.027,9.7,16.8,9.678,16.763A2.423,2.423,0,0,1,61.3,91.778Zm4.752-11.126-2.1,1.21L59.117,73.48l2.095-1.209a2.417,2.417,0,0,1,3.306.885l2.419,4.19A2.418,2.418,0,0,1,66.052,80.652Zm14.281,35.975V97.27a2.416,2.416,0,0,1,.561-1.548L91.871,82.549A2.419,2.419,0,0,0,92.431,81V63.042A2.422,2.422,0,0,0,88.4,61.234l-13.719,12.2a2.421,2.421,0,1,1-3.219-3.616L93.242,50.457a2.421,2.421,0,0,1,4.028,1.808V82.752a2.4,2.4,0,0,1-.423,1.366c-.043.061-.089.123-.138.182L85.733,97.474a2.421,2.421,0,0,0-.56,1.548v17.606a2.42,2.42,0,1,1-4.839,0Zm-70.654,0a2.422,2.422,0,0,1,2.42-2.42H31.456a2.422,2.422,0,0,1,2.42,2.42v2.42H9.679Zm0,0"/>
  </g>
</svg>
