<svg xmlns="http://www.w3.org/2000/svg" width="150.405" height="154.769" viewBox="0 0 150.405 154.769">
  <defs>
    <style>
      .cls-1 {
        fill: #feca57;
      }

      .cls-2 {
        fill: #40bf7c;
      }

      .cls-3 {
        fill: #2b8955;
      }

      .cls-4 {
        fill: #f52f57;
      }

      .cls-5 {
        fill: #f9c170;
      }

      .cls-6 {
        fill: #ee575d;
      }

      .cls-7 {
        fill: #faa108;
      }
    </style>
  </defs>
  <g id="repair" transform="translate(-0.009)">
    <path id="Path_1042" data-name="Path 1042" class="cls-1" d="M352.041,175.992l-18.893,18.866,9.446,9.472,9.446-9.446a13.344,13.344,0,0,0,0-18.893Zm0,0" transform="translate(-222.02 -117.29)"/>
    <path id="Path_1043" data-name="Path 1043" class="cls-1" d="M365.583,175.992l-3.122,3.1a13.344,13.344,0,0,1-2.215,15.771l-6.778,6.8,2.668,2.668,9.446-9.446a13.343,13.343,0,0,0,0-18.893Zm0,0" transform="translate(-235.563 -117.29)"/>
    <path id="Path_1044" data-name="Path 1044" class="cls-2" d="M134.173,190.492l10.861-10.86,1.894,1.868a8.006,8.006,0,0,0,11.313,0l7.552-7.526-20.76-20.76L163.9,134.348a13.343,13.343,0,0,0-18.865,0L128.062,151.32a8.006,8.006,0,0,0,0,11.313l1.868,1.894-14.623,14.65-7.552,7.552-17.931,17.9a18.679,18.679,0,1,0,15.1,15.1L119.071,205.6ZM92.2,228.677a8,8,0,1,1,0-11.313A8,8,0,0,1,92.2,228.677Zm0,0" transform="translate(-45.219 -86.933)"/>
    <path id="Path_1045" data-name="Path 1045" class="cls-2" d="M128.943,216.8a240.2,240.2,0,0,1,9.42-54.728l-10.22,10.22a8,8,0,0,0,0,11.313l1.894,1.894-14.65,14.65-7.631,7.659-17.931,17.9a18.679,18.679,0,1,0,15.1,15.1l14.143-14.142ZM92.2,249.758a8,8,0,1,1,0-11.313A8,8,0,0,1,92.2,249.758Zm0,0" transform="translate(-45.219 -108.014)"/>
    <path id="Path_1046" data-name="Path 1046" class="cls-3" d="M173.556,306.74a5.339,5.339,0,0,0-7.55-7.552l-1.281,1.255-2.668-2.508-9.953,9.979,2.668,2.668-3.79,3.763a5.337,5.337,0,1,0,7.552,7.471l4.963,4.964,15.1-15.1Zm0,0" transform="translate(-99.332 -198.352)"/>
    <path id="Path_1047" data-name="Path 1047" class="cls-4" d="M142.83,42.052,79.748,12.779a10.678,10.678,0,0,0-9.072,0L7.595,42.132a5.362,5.362,0,1,1-4.43-9.765L70.676,1.012a10.669,10.669,0,0,1,9.072,0l67.51,31.354a5.325,5.325,0,1,1-4.429,9.686Zm0,0" transform="translate(0)"/>
    <path id="Path_1048" data-name="Path 1048" class="cls-4" d="M.737,39.865A5.325,5.325,0,0,1,3.165,37.7L70.676,6.349a10.669,10.669,0,0,1,9.072,0L147.259,37.7a5.33,5.33,0,0,1,2.348,2.162c0-.134.16-.241.241-.4a5.336,5.336,0,0,0-2.668-7.1L79.748,1.012a10.669,10.669,0,0,0-9.072,0L3.165,32.366A5.336,5.336,0,0,0,.5,39.463C.5,39.624.656,39.73.737,39.865Zm0,0" transform="translate(0)"/>
    <path id="Path_1049" data-name="Path 1049" class="cls-1" d="M176.12,104.793H165.446l-5.337,9.26,5.337,9.233H176.12l5.337-9.233Zm0,0" transform="translate(-106.698 -69.839)"/>
    <path id="Path_1050" data-name="Path 1050" class="cls-2" d="M231.343,335.525l15.1-15.095a5.335,5.335,0,0,1,7.547,0l22.642,22.642a5.335,5.335,0,0,1,0,7.547l-15.094,15.094a5.336,5.336,0,0,1-7.548,0l-22.642-22.641A5.339,5.339,0,0,1,231.343,335.525Zm0,0" transform="translate(-153.13 -212.509)"/>
    <path id="Path_1051" data-name="Path 1051" class="cls-5" d="M186.079,290.267l15.094-15.1a5.337,5.337,0,0,1,7.547,7.548l-15.094,15.095a5.336,5.336,0,0,1-7.547-7.547Zm0,0" transform="translate(-122.964 -182.346)"/>
    <path id="Path_1052" data-name="Path 1052" class="cls-2" d="M211.859,316.028l15.095-15.094,7.548,7.548-15.094,15.095Zm0,0" transform="translate(-141.187 -200.557)"/>
    <path id="Path_1053" data-name="Path 1053" class="cls-6" d="M76.031,165.113l3.789,11.341,37.73,37.732,7.552-7.552L87.372,168.9Zm0,0" transform="translate(-50.665 -110.04)"/>
    <path id="Path_1054" data-name="Path 1054" class="cls-6" d="M245.781,342.415l7.547-7.548,30.19,30.189L275.97,372.6Zm0,0" transform="translate(-163.794 -223.172)"/>
    <path id="Path_1055" data-name="Path 1055" class="cls-7" d="M196.379,309.064l-4.109-4.189-6.245,6.218a5.339,5.339,0,1,0,7.552,7.551l6.244-6.216Zm0,0" transform="translate(-122.927 -203.184)"/>
    <path id="Path_1056" data-name="Path 1056" class="cls-2" d="M223.13,337.574l2.668-2.668c-2.668-2.349-5.177-4.8-7.766-7.312l-6.244,6.218,7.552,7.552,3.789-3.763Zm0,0" transform="translate(-141.14 -218.324)"/>
    <path id="Path_1057" data-name="Path 1057" class="cls-6" d="M76.031,165.113l3.789,11.341,37.73,37.651,2.456-2.455A258.818,258.818,0,0,1,85.69,168.342Zm0,0" transform="translate(-50.665 -110.04)"/>
    <path id="Path_1058" data-name="Path 1058" class="cls-6" d="M248.457,349.434l-2.668,2.668,30.18,30.206,6.564-6.564A250.493,250.493,0,0,1,248.457,349.434Zm0,0" transform="translate(-163.8 -232.88)"/>
    <path id="Path_1059" data-name="Path 1059" class="cls-3" d="M235.2,357.113l-3.9,3.9a5.338,5.338,0,0,0,0,7.552l22.654,22.628a5.338,5.338,0,0,0,7.552,0l3.789-3.763Zm0,0" transform="translate(-153.102 -237.998)"/>
    <path id="Path_1060" data-name="Path 1060" class="cls-1" d="M171.236,117.682l-5.337-9.26,2.108-3.629h-2.562l-5.337,9.26,5.337,9.233H176.12l3.229-5.6Zm0,0" transform="translate(-106.698 -69.839)"/>
  </g>
</svg>
