<svg xmlns="http://www.w3.org/2000/svg" width="131.279" height="123.074" viewBox="0 0 131.279 123.074">
  <defs>
    <style>
      .cls-1 {
        fill: #3c81e9;
      }

      .cls-2, .cls-3 {
        stroke: none;
      }

      .cls-3 {
        fill: #fff;
      }
    </style>
  </defs>
  <g id="hurry" transform="translate(0 -16)">
    <g id="Group_194" data-name="Group 194" transform="translate(0 16)">
      <g id="Path_1096" data-name="Path 1096" class="cls-1" transform="translate(0 -16)">
        <path class="cls-2" d="M 127.4331130981445 138.0742492675781 L 3.846078395843506 138.0742492675781 C 2.276751041412354 138.0742492675781 1.000005602836609 136.7976226806641 1.000005602836609 135.2284088134766 C 1.000005602836609 133.6590881347656 2.276751041412354 132.3823394775391 3.846078395843506 132.3823394775391 L 77.84368133544922 132.3823394775391 L 79.25969696044922 132.3823394775391 L 78.78607940673828 131.0478668212891 C 78.01493072509766 128.8750305175781 77.97198486328125 126.5677795410156 78.66191101074219 124.3755416870117 L 78.67353057861328 124.3386154174805 L 78.68228149414062 124.3008880615234 L 83.87831115722656 101.8575057983398 L 84.03433227539062 101.1836166381836 L 83.45878601074219 100.7999038696289 L 78.36198425292969 97.40203094482422 L 77.41942596435547 96.77366638183594 L 76.912841796875 97.78690338134766 L 75.06594848632812 101.4809265136719 C 73.94991302490234 103.7064895629883 72.08958435058594 105.2582321166992 71.17926025390625 105.7132873535156 L 40.60444259643555 121.0007095336914 L 40.55862426757812 121.0236129760742 L 40.51538848876953 121.0510864257812 C 38.82738876342773 122.1235961914062 36.87984085083008 122.6904907226562 34.88329696655273 122.6904907226562 C 31.34620475769043 122.6904907226562 28.06406021118164 120.9363250732422 26.10358810424805 117.9981079101562 C 24.54084205627441 115.6528701782227 23.98398780822754 112.8415451049805 24.53591537475586 110.0825271606445 C 25.0877513885498 107.3240509033203 26.68242454528809 104.9448165893555 29.02620506286621 103.3831100463867 C 29.12955093383789 103.3141937255859 29.23918724060059 103.2511444091797 29.35231399536133 103.1955413818359 L 57.25225830078125 89.51785278320312 L 57.55547714233398 89.36919403076172 L 57.70649719238281 89.06717681884766 C 59.11455154418945 86.25125122070312 65.08371734619141 74.31285095214844 68.59602355957031 67.28817749023438 L 70.9400634765625 62.60005187988281 L 71.66368103027344 61.15283203125 L 70.04563903808594 61.15283203125 L 68.36183929443359 61.15283203125 L 68.12569427490234 61.15283203125 L 67.91451263427734 61.25846862792969 L 54.96889495849609 67.73346710205078 C 53.82876968383789 68.30352783203125 52.59616851806641 68.65859985351562 51.30547714233398 68.78875732421875 L 49.87813186645508 68.93268585205078 L 50.50700378417969 70.22206878662109 L 53.91744232177734 77.21446990966797 C 54.25065994262695 77.89750671386719 54.29771423339844 78.66967010498047 54.04998779296875 79.38881683349609 C 53.80229568481445 80.10784912109375 53.28987884521484 80.68724822998047 52.60709762573242 81.02028656005859 L 24.95262336730957 94.5081787109375 C 24.55940628051758 94.69990539550781 24.1404972076416 94.79714202880859 23.70760536193848 94.79714202880859 C 22.60922431945801 94.79714202880859 21.62796974182129 94.18434143066406 21.14680480957031 93.19785308837891 L 4.286678314208984 58.6296501159668 C 3.953460216522217 57.94663238525391 3.906405687332153 57.17446899414062 4.154114723205566 56.45532608032227 C 4.401805400848389 55.73628997802734 4.914223670959473 55.15688705444336 5.597005367279053 54.8238525390625 L 33.25124359130859 41.33596038818359 C 33.64437103271484 41.14430618286133 34.06333160400391 41.04708862304688 34.4963493347168 41.04708862304688 C 35.59469604492188 41.04708862304688 36.57589721679688 41.65987014770508 37.05706024169922 42.64630508422852 L 41.01565933227539 50.76250457763672 L 41.64414978027344 52.05107116699219 L 42.63631439208984 51.01617813110352 C 43.47067642211914 50.14587020874023 44.44833374023438 49.42728805541992 45.5421142578125 48.88041687011719 L 60.92640686035156 41.18825149536133 C 62.38113403320312 40.46088790893555 64.01093292236328 40.076416015625 65.63958740234375 40.076416015625 L 76.43704223632812 40.076416015625 L 76.80844116210938 38.14794158935547 L 56.89042282104492 30.18068885803223 C 55.43340682983398 29.5977611541748 54.72215270996094 27.93816184997559 55.30496978759766 26.48117828369141 C 55.74000549316406 25.39379692077637 56.77778625488281 24.69114303588867 57.94880676269531 24.69114303588867 C 58.30995178222656 24.69114303588867 58.66511535644531 24.75997924804688 59.00442504882812 24.89572525024414 L 84.77494812011719 35.2037239074707 L 86.47138977050781 35.88228988647461 L 86.12857055664062 34.0876350402832 C 85.95694732666016 33.18915939331055 85.86993408203125 32.27961730957031 85.86993408203125 31.3842887878418 C 85.86993408203125 23.45276069641113 92.32269287109375 16.99999809265137 100.2542037963867 16.99999809265137 C 108.1857299804688 16.99999809265137 114.6384963989258 23.45276069641113 114.6384963989258 31.3842887878418 C 114.6384963989258 38.99306869506836 108.6914215087891 45.29952621459961 101.0994033813477 45.74152374267578 L 98.87453460693359 45.87105178833008 L 100.4504241943359 47.44694137573242 L 108.1712951660156 55.16781616210938 L 108.4641876220703 55.4607048034668 L 108.8784027099609 55.4607048034668 L 119.740966796875 55.4607048034668 C 125.5517501831055 55.4607048034668 130.2791748046875 60.18812561035156 130.2791748046875 65.99890899658203 C 130.2791748046875 71.80968475341797 125.5517501831055 76.537109375 119.740966796875 76.537109375 L 104.1002807617188 76.537109375 C 101.2864227294922 76.537109375 98.64020538330078 75.440673828125 96.64909362792969 73.44977569580078 L 92.5848388671875 69.38554382324219 L 91.60376739501953 68.40447235107422 L 90.98329925537109 69.64545440673828 L 87.31260681152344 76.98709106445312 L 86.91780853271484 77.77670288085938 L 87.65238952636719 78.266357421875 L 102.2533721923828 87.99923706054688 C 104.1657485961914 89.27412414550781 105.5808563232422 91.10101318359375 106.3456802368164 93.28241729736328 C 107.1098785400391 95.46199798583984 107.1465301513672 97.77095794677734 106.4517135620117 99.95967102050781 L 106.4422760009766 99.98943328857422 L 106.434700012207 100.0197219848633 L 98.77460479736328 130.6600952148438 C 98.75735473632812 130.7298278808594 98.73696899414062 130.7998657226562 98.71346282958984 130.8706207275391 C 98.70269775390625 130.9028930664062 98.69069671630859 130.9356231689453 98.67880249023438 130.9683380126953 C 98.66900634765625 130.9953308105469 98.65922546386719 131.0223083496094 98.649658203125 131.0494079589844 L 98.17949676513672 132.3821105957031 L 99.59269714355469 132.3821105957031 L 127.4331130981445 132.3821105957031 C 129.00244140625 132.3821105957031 130.2791748046875 133.6588592529297 130.2791748046875 135.2281799316406 C 130.2791748046875 136.7975006103516 129.00244140625 138.0742492675781 127.4331130981445 138.0742492675781 Z M 84.1376953125 125.9473571777344 C 84.13214111328125 125.9620056152344 84.12596130371094 125.9791564941406 84.11838531494141 126.0017776489258 C 83.27252960205078 128.5376739501953 84.64742279052734 131.2880401611328 87.182861328125 132.1340179443359 C 87.67720794677734 132.2994842529297 88.19271087646484 132.383544921875 88.71413421630859 132.383544921875 C 89.69169616699219 132.383544921875 90.63651275634766 132.0927124023438 91.44642639160156 131.5424957275391 C 92.28289794921875 130.9742126464844 92.91117095947266 130.1696929931641 93.26325988769531 129.2158813476562 L 93.28209686279297 129.1648712158203 L 93.29529571533203 129.1121215820312 C 95.47145843505859 120.4076156616211 97.03116607666016 114.1669616699219 98.1500244140625 109.6902847290039 C 100.5136108398438 100.2332611083984 100.9309692382812 98.56330871582031 100.9924087524414 98.34255981445312 C 100.9962997436523 98.33193206787109 101.0006561279297 98.31958770751953 101.0059127807617 98.30387115478516 C 101.6950073242188 96.23334503173828 100.9097900390625 93.9442138671875 99.09687805175781 92.73571014404297 L 81.66928100585938 81.11854553222656 C 80.47775268554688 80.32361602783203 80.06193542480469 78.75819396972656 80.70238494873047 77.47747039794922 L 88.30838775634766 62.26781463623047 L 88.31444549560547 62.25570678710938 L 88.31647491455078 62.25135040283203 L 93.03061676025391 52.8243408203125 C 93.80424499511719 51.31954956054688 93.73285675048828 49.54653167724609 92.83924102783203 48.08045196533203 C 91.95687866210938 46.63281631469727 90.41558837890625 45.76856231689453 88.71626281738281 45.76856231689453 L 65.63983917236328 45.76856231689453 C 64.89024353027344 45.76856231689453 64.14066314697266 45.94525146484375 63.47215270996094 46.27952575683594 L 48.08786010742188 53.97163391113281 C 45.69758605957031 55.16663360595703 44.72526168823242 58.08377838134766 45.92040634155273 60.47439575195312 C 46.74669647216797 62.12672424316406 48.40753173828125 63.15306854248047 50.25487899780273 63.15299606323242 C 51.00466156005859 63.15296173095703 51.75445938110352 62.97623443603516 52.42318725585938 62.64190673828125 L 66.18098449707031 55.76121520996094 C 66.57402038574219 55.56461715698242 67.01416778564453 55.4607048034668 67.45389556884766 55.4607048034668 L 76.26909637451172 55.4607048034668 C 77.27532958984375 55.4607048034668 78.15507507324219 55.95037841796875 78.68275451660156 56.80416107177734 C 79.20871734619141 57.65519714355469 79.25800323486328 58.69270706176758 78.81460571289062 59.57952499389648 L 68.99660491943359 79.21548461914062 C 67.90631103515625 81.39604949951172 68.61476898193359 84.06147003173828 70.64451599121094 85.41552734375 L 88.83000183105469 97.53926849365234 C 89.80975341796875 98.19235992431641 90.28958892822266 99.40200042724609 90.02404022216797 100.5493240356445 C 88.45091247558594 107.3443069458008 87.29936981201172 112.320671081543 86.45547485351562 115.9675216674805 C 84.58451080322266 124.0529098510742 84.20161437988281 125.7076263427734 84.1376953125 125.9473571777344 Z M 64.76558685302734 87.67626953125 L 64.13262176513672 88.94221496582031 L 62.21651458740234 92.77443695068359 C 61.9394416809082 93.32875823974609 61.48031616210938 93.78433990478516 60.92364120483398 94.05741882324219 L 32.12371444702148 108.1762161254883 L 32.04000473022461 108.2172546386719 L 31.96533203125 108.2730484008789 C 29.90547752380371 109.812141418457 29.41082382202148 112.6968307495117 30.83920478820801 114.8403244018555 C 31.74067878723145 116.1915588378906 33.25022506713867 116.9980010986328 34.8775520324707 116.9980010986328 C 35.83377075195312 116.9980010986328 36.7603874206543 116.7168350219727 37.55720520019531 116.1849212646484 C 37.65536880493164 116.1194305419922 37.75893402099609 116.059326171875 37.86480712890625 116.0064010620117 L 68.38213348388672 100.7477035522461 L 68.46107482910156 100.7082366943359 L 68.53189849853516 100.6555404663086 C 69.13722229003906 100.2051086425781 69.63673400878906 99.60910797119141 69.97642517089844 98.93197631835938 L 72.25115203857422 94.38105010986328 L 72.64579010009766 93.59154510498047 L 71.91136932373047 93.10192108154297 L 67.48580932617188 90.15146636962891 C 66.86160278320312 89.73525238037109 66.27669525146484 89.24549102783203 65.74736785888672 88.69580078125 L 64.76558685302734 87.67626953125 Z M 33.18894958496094 47.69954299926758 L 32.2901496887207 48.13790512084961 L 11.54905986785889 58.25385284423828 L 10.65025997161865 58.69221496582031 L 11.08862400054932 59.59101486206055 L 24.57655143737793 87.24552154541016 L 25.01491546630859 88.14432525634766 L 25.91371536254883 87.70596313476562 L 46.65478897094727 77.59003448486328 L 47.5535888671875 77.15167236328125 L 47.1152229309082 76.25286865234375 L 33.62731552124023 48.59834289550781 L 33.18894958496094 47.69954299926758 Z M 98.83262634277344 53.87866973876953 L 98.22315216064453 55.15485000610352 C 98.20887756347656 55.18476104736328 98.19504547119141 55.21481704711914 98.18124389648438 55.24486923217773 C 98.16858673095703 55.27245330810547 98.15609741210938 55.30012512207031 98.14242553710938 55.32745361328125 L 94.60962677001953 62.39332580566406 L 94.28731536865234 63.03797912597656 L 94.79695129394531 63.54763412475586 L 100.6742630004883 69.42494201660156 C 101.5763473510742 70.32733917236328 102.8251342773438 70.84497833251953 104.1002807617188 70.84497833251953 L 119.740966796875 70.84497833251953 C 122.4130935668945 70.84497833251953 124.587043762207 68.67103576660156 124.587043762207 65.99890899658203 C 124.587043762207 63.32677841186523 122.4130935668945 61.15283203125 119.740966796875 61.15283203125 L 107.2853546142578 61.15283203125 C 106.5251541137695 61.15283203125 105.8104400634766 60.856689453125 105.2728805541992 60.31894302368164 L 99.8326416015625 54.87868881225586 L 98.83262634277344 53.87866973876953 Z M 100.2542037963867 22.69214248657227 C 95.46134948730469 22.69214248657227 91.56208038330078 26.59141540527344 91.56208038330078 31.3842887878418 C 91.56208038330078 36.17714309692383 95.46134948730469 40.076416015625 100.2542037963867 40.076416015625 C 105.0470809936523 40.076416015625 108.9463500976562 36.17714309692383 108.9463500976562 31.3842887878418 C 108.9463500976562 26.59141540527344 105.0470809936523 22.69214248657227 100.2542037963867 22.69214248657227 Z"/>
        <path class="cls-3" d="M 127.4331130981445 137.0742492675781 C 128.4510192871094 137.0742492675781 129.2791748046875 136.2461090087891 129.2791748046875 135.2281799316406 C 129.2791748046875 134.2102508544922 128.4510192871094 133.3821105957031 127.4331130981445 133.3821105957031 L 99.59269714355469 133.3821105957031 L 96.76629638671875 133.3821105957031 L 97.70662689208984 130.7167053222656 C 97.71720886230469 130.6867065429688 97.72802734375 130.6568450927734 97.73887634277344 130.6269683837891 C 97.74774932861328 130.6025390625 97.75685882568359 130.5781555175781 97.76448059082031 130.5552825927734 C 97.77980804443359 130.5091857910156 97.79286193847656 130.4644317626953 97.80445861816406 130.4175415039062 L 105.4645538330078 99.77717590332031 L 105.4796981811523 99.71661376953125 L 105.4985885620117 99.6571044921875 C 106.7778625488281 95.62735748291016 105.2152633666992 91.17561340332031 101.6987152099609 88.83132171630859 L 87.09773254394531 79.09844970703125 L 85.62858581542969 78.11912536621094 L 86.41816711425781 76.53988647460938 L 90.08885955810547 69.19824981689453 L 91.32980346679688 66.71630859375 L 93.29195404052734 68.67843627929688 L 97.35617065429688 72.74263000488281 C 99.15840911865234 74.54467010498047 101.5535125732422 75.537109375 104.1002807617188 75.537109375 L 119.740966796875 75.537109375 C 125.0003509521484 75.537109375 129.2791748046875 71.25828552246094 129.2791748046875 65.99890899658203 C 129.2791748046875 60.73952484130859 125.0003509521484 56.4607048034668 119.740966796875 56.4607048034668 L 108.8784027099609 56.4607048034668 L 108.0499877929688 56.4607048034668 L 107.4641876220703 55.87492370605469 L 99.74331665039062 48.154052734375 L 96.591552734375 45.00226974487305 L 101.0412979125977 44.74321365356445 C 108.1051483154297 44.33196258544922 113.6384963989258 38.46403503417969 113.6384963989258 31.3842887878418 C 113.6384963989258 24.0041618347168 107.6343307495117 17.99999809265137 100.2542037963867 17.99999809265137 C 92.87409973144531 17.99999809265137 86.86993408203125 24.0041618347168 86.86993408203125 31.3842887878418 C 86.86993408203125 32.21681594848633 86.95096588134766 33.063232421875 87.11082458496094 33.89999771118164 L 87.79642486572266 37.48932647705078 L 84.40357208251953 36.13221740722656 L 58.63298797607422 25.82417869567871 C 58.41233444213867 25.73590660095215 58.18215179443359 25.69114303588867 57.94880676269531 25.69114303588867 C 57.18904113769531 25.69114303588867 56.51569747924805 26.1470890045166 56.23344039916992 26.85259819030762 C 55.85540390014648 27.79763412475586 56.31678771972656 28.87412452697754 57.26180648803711 29.25221633911133 L 77.17982482910156 37.2194709777832 L 76.43704223632812 41.076416015625 L 65.63958740234375 41.076416015625 C 64.16536712646484 41.076416015625 62.69022369384766 41.42437744140625 61.37362289428711 42.08268737792969 L 45.98933410644531 49.77483367919922 C 44.99829483032227 50.27036285400391 44.11304092407227 50.92083358764648 43.35816955566406 51.70821380615234 L 41.37384033203125 53.77799606323242 L 40.11687850952148 51.20087051391602 L 36.15829467773438 43.0847053527832 C 35.84609603881836 42.44468688964844 35.20927810668945 42.04708862304688 34.4963493347168 42.04708862304688 C 34.21646118164062 42.04708862304688 33.94493103027344 42.11027145385742 33.68962478637695 42.2347412109375 L 6.03540563583374 55.72263336181641 C 5.592641830444336 55.9385986328125 5.260314464569092 56.31446838378906 5.099605560302734 56.7810173034668 C 4.938896656036377 57.24754333496094 4.969369411468506 57.74832534790039 5.185460090637207 58.19128799438477 L 22.04558753967285 92.75945281982422 C 22.3577880859375 93.39952087402344 22.99464225769043 93.79714202880859 23.70760536193848 93.79714202880859 C 23.98735046386719 93.79714202880859 24.2588062286377 93.73394012451172 24.51424217224121 93.60939788818359 L 52.16869735717773 80.12150573730469 C 52.6114616394043 79.90554046630859 52.94378662109375 79.52967071533203 53.10451507568359 79.06312561035156 C 53.26520538330078 78.59659576416016 53.2347526550293 78.09581756591797 53.01866149902344 77.65285491943359 L 49.60822296142578 70.66045379638672 L 48.35046005249023 68.08167266845703 L 51.20513153076172 67.79380035400391 C 52.35815048217773 67.67752838134766 53.50504302978516 67.34734344482422 54.52154922485352 66.83910369873047 L 67.46717071533203 60.36410522460938 L 67.88957214355469 60.15283203125 L 68.36183929443359 60.15283203125 L 70.04563903808594 60.15283203125 L 73.28171539306641 60.15283203125 L 71.83449554443359 63.0472526550293 L 69.49044036865234 67.73539733886719 C 65.97813415527344 74.76007080078125 60.00896835327148 86.698486328125 58.60091400146484 89.51441192626953 L 58.29885864257812 90.11846923828125 L 57.69245910644531 90.41576385498047 L 29.79344177246094 104.0929794311523 C 29.71944236755371 104.1293640136719 29.64800643920898 104.1704177856445 29.58069610595703 104.2152862548828 C 27.45927810668945 105.6288528442383 26.01591491699219 107.7821960449219 25.5164966583252 110.2786865234375 C 25.01693344116211 112.7758483886719 25.52109718322754 115.3205795288086 26.93540573120117 117.4430847167969 C 28.70998764038086 120.102668762207 31.6811695098877 121.6904907226562 34.88329696655273 121.6904907226562 C 36.6895866394043 121.6904907226562 38.45167922973633 121.1775283813477 39.97909545898438 120.2070541381836 L 40.06558609008789 120.1520919799805 L 40.15724182128906 120.1062698364258 L 70.73211669921875 104.8188323974609 C 71.58622741699219 104.3918685913086 73.21829986572266 102.9346008300781 74.17151641845703 101.0337219238281 L 76.01840209960938 97.33970642089844 L 77.03157043457031 95.31325531005859 L 78.91667938232422 96.56999969482422 L 84.01348114013672 99.96787261962891 L 85.16458892822266 100.7352676391602 L 84.85253143310547 102.0830688476562 L 79.656494140625 124.5264511108398 L 79.63904571533203 124.6018905639648 L 79.61578369140625 124.6757431030273 C 78.99160766601562 126.6591033935547 79.03057098388672 128.7469024658203 79.72849273681641 130.7134094238281 L 80.67571258544922 133.3823394775391 L 77.84368133544922 133.3823394775391 L 3.846078395843506 133.3823394775391 C 2.828150987625122 133.3823394775391 2.000005483627319 134.2104949951172 2.000005483627319 135.2284088134766 C 2.000005483627319 136.2462158203125 2.828150987625122 137.0742492675781 3.846078395843506 137.0742492675781 L 127.4331130981445 137.0742492675781 M 83.18062591552734 125.6535491943359 C 83.27243804931641 125.2873764038086 83.74967956542969 123.224983215332 85.48122406005859 115.742073059082 C 86.32511138916016 112.0951995849609 87.47666168212891 107.1187973022461 89.04978942871094 100.3238372802734 C 89.22203826904297 99.57959747314453 88.91084289550781 98.79496002197266 88.27531433105469 98.37130737304688 L 70.08956909179688 86.24739837646484 C 67.64128112792969 84.61415863037109 66.78689575195312 81.39883422851562 68.1021728515625 78.76827239990234 L 77.920166015625 59.13232421875 C 78.20744323730469 58.55776214599609 78.17453002929688 57.88396072387695 77.83209991455078 57.32988739013672 C 77.67058563232422 57.06856155395508 77.19495391845703 56.4607048034668 76.26909637451172 56.4607048034668 L 67.45389556884766 56.4607048034668 C 67.16866302490234 56.4607048034668 66.88322448730469 56.52806854248047 66.6282958984375 56.65559768676758 L 52.8703498840332 63.53636169433594 C 52.0634765625 63.93974304199219 51.15907669067383 64.15296173095703 50.25491333007812 64.15299987792969 C 48.02637100219727 64.15309143066406 46.02278900146484 62.91494369506836 45.02595138549805 60.92156219482422 C 43.58424377441406 58.03774261474609 44.75722503662109 54.51876068115234 47.64065933227539 53.07721710205078 L 63.0249137878418 45.38510513305664 C 63.83156967163086 44.98176193237305 64.73580932617188 44.76856231689453 65.63983917236328 44.76856231689453 L 88.71626281738281 44.76856231689453 C 90.76722717285156 44.76856231689453 92.62775421142578 45.81208801269531 93.69313049316406 47.55999755859375 C 94.76831817626953 49.32395172119141 94.85398864746094 51.45946502685547 93.9232177734375 53.27520751953125 L 89.21699523925781 62.68637847900391 L 89.21489715576172 62.69088745117188 L 89.20278930664062 62.715087890625 L 81.59678649902344 77.92474365234375 C 81.18136596679688 78.75547027587891 81.45126342773438 79.77095794677734 82.22395324707031 80.28646850585938 L 99.65155029296875 91.90363311767578 C 101.8384780883789 93.36147308349609 102.7857894897461 96.12261199951172 101.9542770385742 98.62105560302734 C 101.9521636962891 98.62736511230469 101.9501419067383 98.63334655761719 101.9482040405273 98.63904571533203 C 101.858268737793 98.97734069824219 101.3237457275391 101.1159973144531 99.12018585205078 109.9327621459961 C 98.00133514404297 114.4094543457031 96.44160461425781 120.6501235961914 94.26544189453125 129.3546447753906 L 94.23905944824219 129.4601745605469 L 94.20138549804688 129.5622100830078 C 93.77664184570312 130.7127380371094 93.01831817626953 131.6835479736328 92.00836944580078 132.3696746826172 C 91.03202056884766 133.0329437255859 89.89289855957031 133.383544921875 88.71413421630859 133.383544921875 C 88.08458709716797 133.383544921875 87.46229553222656 133.2820892333984 86.86634826660156 133.0826110839844 C 83.80791473388672 132.0621185302734 82.14945983886719 128.7442626953125 83.170166015625 125.6841583251953 C 83.17375183105469 125.673469543457 83.17723846435547 125.6632766723633 83.18062591552734 125.6535491943359 M 64.50413513183594 85.96310424804688 L 66.46768188476562 88.00214385986328 C 66.94707489013672 88.49997711181641 67.47629547119141 88.94319915771484 68.04051208496094 89.31941223144531 L 72.46607971191406 92.26986694335938 L 73.93489837646484 93.24910736083984 L 73.14562225341797 94.82816314697266 L 70.8702392578125 99.38037872314453 C 70.46092987060547 100.1963043212891 69.85877227783203 100.9146728515625 69.12887573242188 101.4577941894531 L 68.98724365234375 101.5631942749023 L 68.82935333251953 101.6421432495117 L 38.31198883056641 116.9008331298828 C 38.24316787719727 116.9352493286133 38.17587661743164 116.9743041992188 38.11240386962891 117.0166549682617 C 37.15064239501953 117.6586532592773 36.03204345703125 117.9980010986328 34.8775520324707 117.9980010986328 C 32.91526031494141 117.9980010986328 31.0947322845459 117.0251998901367 30.00704193115234 115.3948669433594 C 28.28404235839844 112.8092346191406 28.88129615783691 109.3290863037109 31.36678695678711 107.4719619750977 L 31.51613235473633 107.3603820800781 L 31.68351554870605 107.2783050537109 L 60.48324203491211 93.15961456298828 C 60.84444046020508 92.98243713378906 61.14229583740234 92.68690490722656 61.32207870483398 92.32723236083984 L 63.23818588256836 88.49501800537109 L 64.50413513183594 85.96310424804688 M 33.64936828613281 46.36238098144531 L 34.52609634399414 48.15996170043945 L 48.01400375366211 75.81449127197266 L 48.89075088500977 77.61209106445312 L 47.0931510925293 78.48883056640625 L 26.35207748413086 88.60475921630859 L 24.55449676513672 89.48149108886719 L 23.67776870727539 87.68390655517578 L 10.18984222412109 60.02939605712891 L 9.313096046447754 58.23179626464844 L 11.11069679260254 57.35505294799805 L 31.85178756713867 47.23910522460938 L 33.64936828613281 46.36238098144531 M 98.53971099853516 52.17154312133789 L 100.5397491455078 54.17157745361328 L 105.980094909668 59.61196136474609 C 106.3287658691406 59.96074295043945 106.7923126220703 60.15283203125 107.2853546142578 60.15283203125 L 119.740966796875 60.15283203125 C 122.9644927978516 60.15283203125 125.587043762207 62.7753791809082 125.587043762207 65.99890899658203 C 125.587043762207 69.22243499755859 122.9644927978516 71.84497833251953 119.740966796875 71.84497833251953 L 104.1002807617188 71.84497833251953 C 102.5618209838867 71.84497833251953 101.0552749633789 71.22054290771484 99.96714782714844 70.13204956054688 L 94.08984375 64.25474548339844 L 93.07054901123047 63.23545074462891 L 93.71518707275391 61.94612503051758 L 97.24794769287109 54.88034439086914 C 97.25655364990234 54.86297988891602 97.26433563232422 54.8453254699707 97.27236938476562 54.82781600952148 C 97.28829956054688 54.79310607910156 97.30429840087891 54.7584342956543 97.32078552246094 54.72390747070312 L 98.53971099853516 52.17154312133789 M 100.2542037963867 21.69214248657227 C 105.5984802246094 21.69214248657227 109.9463500976562 26.04001617431641 109.9463500976562 31.3842887878418 C 109.9463500976562 36.72854232788086 105.5984802246094 41.076416015625 100.2542037963867 41.076416015625 C 94.90995025634766 41.076416015625 90.56208038330078 36.72854232788086 90.56208038330078 31.3842887878418 C 90.56208038330078 26.04001617431641 94.90995025634766 21.69214248657227 100.2542037963867 21.69214248657227 M 127.4331130981445 139.0742492675781 C 116.476936340332 139.0742492675781 4.322205543518066 139.0742492675781 3.846078395843506 139.0742492675781 C 1.722023725509644 139.0742492675781 5.584161954175215e-06 137.3524932861328 5.584161954175215e-06 135.2284088134766 C 5.584161954175215e-06 133.1043853759766 1.722023725509644 131.3823394775391 3.846078395843506 131.3823394775391 L 77.84368133544922 131.3823394775391 C 77.03369903564453 129.1000823974609 76.92935180664062 126.5496368408203 77.70803833007812 124.0753402709961 L 82.90407562255859 101.6319580078125 L 77.80728149414062 98.23408508300781 L 75.96038818359375 101.928108215332 C 74.77529907226562 104.2913970947266 72.80097198486328 106.0205993652344 71.62638854980469 106.6077575683594 L 41.05165863037109 121.8951263427734 C 39.14271545410156 123.108024597168 37.00288009643555 123.6904907226562 34.88330078125 123.6904907226562 C 31.15950202941895 123.6904907226562 27.49936294555664 121.8917083740234 25.27175140380859 118.5531463623047 C 21.73336982727051 113.2429962158203 23.16640472412109 106.0859603881836 28.4716968536377 102.5509262084961 C 28.61244201660156 102.4570846557617 28.75936889648438 102.3727264404297 28.91116905212402 102.2981033325195 L 56.81207656860352 88.61994171142578 C 58.65486145019531 84.93465423583984 68.30978393554688 65.62454223632812 70.04563903808594 62.15283203125 L 68.36183929443359 62.15283203125 L 55.41622543334961 68.62783050537109 C 54.16497039794922 69.25344848632812 52.79678726196289 69.6434326171875 51.40580368041992 69.78370666503906 L 54.81624221801758 76.77610778808594 C 55.74749755859375 78.68505096435547 54.95315170288086 80.98857879638672 53.04549789428711 81.9190673828125 L 25.39098739624023 95.406982421875 C 24.84777450561523 95.67184448242188 24.27335166931152 95.79714965820312 23.70760154724121 95.79714965820312 C 22.28253746032715 95.79714965820312 20.91390609741211 95.00142669677734 20.24802398681641 93.63625335693359 L 3.38787841796875 59.06803512573242 C 2.456605672836304 57.15910720825195 3.250951051712036 54.85556030273438 5.158605575561523 53.92507171630859 L 32.8128776550293 40.43716049194336 C 33.35592269897461 40.17242050170898 33.93040466308594 40.04708862304688 34.49635696411133 40.04708862304688 C 35.92065048217773 40.04708862304688 37.28938674926758 40.84160614013672 37.95584106445312 42.20788955688477 L 41.91445922851562 50.32412338256836 C 42.8195686340332 49.38003540039062 43.89031600952148 48.5882682800293 45.09491348266602 47.98598098754883 L 60.47918701171875 40.2938346862793 C 62.07196807861328 39.49743270874023 63.85629653930664 39.076416015625 65.63958740234375 39.076416015625 L 76.43704223632812 39.076416015625 L 56.51902389526367 31.10916137695312 C 54.54700469970703 30.32019805908203 53.58755111694336 28.08205223083496 54.37649536132812 26.10977935791016 C 54.97809219360352 24.60610580444336 56.42242431640625 23.69114303588867 57.94879531860352 23.69114303588867 C 58.42419052124023 23.69114303588867 58.90755081176758 23.7799015045166 59.37587738037109 23.96726989746094 L 85.14633178710938 34.27525329589844 C 84.96736907958984 33.33834457397461 84.86993408203125 32.37272644042969 84.86993408203125 31.3842887878418 C 84.86993408203125 22.90139770507812 91.77133178710938 15.99999713897705 100.2542037963867 15.99999713897705 C 108.7371139526367 15.99999713897705 115.6384963989258 22.90139770507812 115.6384963989258 31.3842887878418 C 115.6384963989258 39.56385040283203 109.2214584350586 46.27036285400391 101.1575317382812 46.73983383178711 L 108.8784027099609 54.4607048034668 L 119.740966796875 54.4607048034668 C 126.1031494140625 54.4607048034668 131.2791748046875 59.63674163818359 131.2791748046875 65.99890899658203 C 131.2791748046875 72.36106872558594 126.1031494140625 77.537109375 119.740966796875 77.537109375 L 104.1002807617188 77.537109375 C 101.0190811157227 77.537109375 98.1219482421875 76.33661651611328 95.94202423095703 74.15692138671875 L 91.87773132324219 70.0926513671875 L 88.20703887939453 77.43428802490234 L 102.8080215454102 87.16716003417969 C 107.0792083740234 90.0145263671875 108.9548034667969 95.37979888916016 107.4048385620117 100.2622528076172 L 99.7447509765625 130.9026184082031 C 99.72115325927734 130.9980010986328 99.69345855712891 131.0926208496094 99.66244506835938 131.1859588623047 C 99.64038848876953 131.2521057128906 99.61576843261719 131.3167114257812 99.59269714355469 131.3821105957031 L 127.4331130981445 131.3821105957031 C 129.5571746826172 131.3821105957031 131.2791748046875 133.1041107177734 131.2791748046875 135.2281799316406 C 131.2791748046875 137.3522186279297 129.5571746826172 139.0742492675781 127.4331130981445 139.0742492675781 Z M 67.45389556884766 54.4607048034668 L 76.26909637451172 54.4607048034668 C 79.15776824951172 54.4607048034668 80.97027587890625 57.50423431396484 79.70902252197266 60.02674102783203 L 69.89102172851562 79.66270446777344 C 69.02565765380859 81.3934326171875 69.58822631835938 83.50878143310547 71.199462890625 84.58363342285156 L 89.38471221923828 96.70721435546875 C 90.71673583984375 97.59514617919922 91.35927581787109 99.21510314941406 90.99827575683594 100.7748184204102 C 84.75249481201172 127.7529449462891 85.15249633789062 126.0629806518555 85.06660461425781 126.3193969726562 C 84.39558410644531 128.3311309814453 85.48683929443359 130.5139312744141 87.49936676025391 131.1854400634766 C 87.89964294433594 131.3194122314453 88.30926513671875 131.3835296630859 88.71413421630859 131.3835296630859 C 90.2666015625 131.3835296630859 91.74555969238281 130.4396057128906 92.32514953613281 128.8695831298828 C 100.4121704101562 96.52208709716797 99.98602294921875 98.20052337646484 100.0575485229492 97.98667144775391 C 100.6042022705078 96.34413909912109 99.98114776611328 94.52700042724609 98.54220581054688 93.56777954101562 L 81.1146240234375 81.95061492919922 C 79.50543975830078 80.87705230712891 78.94315338134766 78.75965118408203 79.80799102783203 77.03021240234375 L 87.41398620605469 61.82054138183594 C 87.41602325439453 61.81617736816406 87.41807556152344 61.81181716918945 87.42038726806641 61.80746841430664 L 92.13925933837891 52.37099838256836 C 93.41462707519531 49.897216796875 91.66055297851562 46.76856231689453 88.71626281738281 46.76856231689453 L 65.63983917236328 46.76856231689453 C 65.04445648193359 46.76856231689453 64.44960784912109 46.90881729125977 63.91936874389648 47.17394256591797 L 48.53507995605469 54.86606979370117 C 46.6323127746582 55.81734466552734 45.86360549926758 58.12446975708008 46.81486129760742 60.0272331237793 C 47.50505828857422 61.40743637084961 48.86648178100586 62.15304946899414 50.25484085083008 62.15299606323242 C 50.83983612060547 62.15297317504883 51.42974090576172 62.02056121826172 51.97602462768555 61.74745178222656 L 65.73368072509766 54.8668327331543 C 66.26776885986328 54.59967041015625 66.85673522949219 54.4607048034668 67.45389556884766 54.4607048034668 Z M 65.02703857421875 89.38943481445312 L 63.11093139648438 93.22164916992188 C 62.73427963256836 93.97523498535156 62.12044143676758 94.58418273925781 61.36404037475586 94.95521545410156 L 32.56389617919922 109.0741271972656 C 30.94624137878418 110.2828140258789 30.52727890014648 112.5689239501953 31.6713695526123 114.2857971191406 C 32.41130828857422 115.394905090332 33.63311386108398 115.9979934692383 34.87754821777344 115.9979934692383 C 35.60897064208984 115.9979934692383 36.34823226928711 115.7896347045898 37.00200653076172 115.3532180786133 C 37.13534927368164 115.2642517089844 37.2740592956543 115.183723449707 37.41764068603516 115.111946105957 L 67.93491363525391 99.85328674316406 C 68.41696929931641 99.49457550048828 68.81131744384766 99.02432250976562 69.08258819580078 98.48358154296875 L 71.35665893554688 93.9339599609375 L 66.93109893798828 90.98350524902344 C 66.22779083251953 90.51454162597656 65.59344482421875 89.97761535644531 65.02703857421875 89.38943481445312 Z M 32.728515625 49.03670501708984 L 11.98742389678955 59.15265274047852 L 25.47535133361816 86.80715942382812 L 46.21642303466797 76.69123077392578 L 32.728515625 49.03670501708984 Z M 99.12553405761719 55.58579635620117 C 99.09553527832031 55.64861679077148 99.06809997558594 55.71219635009766 99.03680419921875 55.77476119995117 L 95.50405883789062 62.84052276611328 L 101.3813705444336 68.71783447265625 C 102.0974960327148 69.43421173095703 103.0887680053711 69.84497833251953 104.1002807617188 69.84497833251953 L 119.740966796875 69.84497833251953 C 121.8616943359375 69.84497833251953 123.587043762207 68.11961364746094 123.587043762207 65.99890899658203 C 123.587043762207 63.87817764282227 121.8616943359375 62.15283203125 119.740966796875 62.15283203125 L 107.2853546142578 62.15283203125 C 106.2651138305664 62.15283203125 105.2869338989258 61.74745178222656 104.5656585693359 61.02594375610352 L 99.12553405761719 55.58579635620117 Z M 100.2542037963867 23.69214248657227 C 96.01277160644531 23.69214248657227 92.56208038330078 27.1428337097168 92.56208038330078 31.3842887878418 C 92.56208038330078 35.62572479248047 96.01277160644531 39.076416015625 100.2542037963867 39.076416015625 C 104.4956588745117 39.076416015625 107.9463500976562 35.62572479248047 107.9463500976562 31.3842887878418 C 107.9463500976562 27.1428337097168 104.4956588745117 23.69214248657227 100.2542037963867 23.69214248657227 Z"/>
      </g>
    </g>
  </g>
</svg>
