<svg xmlns="http://www.w3.org/2000/svg" width="118.872" height="118.896" viewBox="0 0 118.872 118.896">
  <defs>
    <style>
      .cls-1 {
        fill: #3c81e9;
      }
    </style>
  </defs>
  <g id="apartment" transform="translate(5.001 4.999)">
    <g id="train" transform="translate(-5.048 -4.999)">
      <path id="Path_1102" data-name="Path 1102" class="cls-1" d="M169.528,91.737a1.981,1.981,0,0,0,1.981-1.981V65.981A1.981,1.981,0,0,0,169.528,64h-63.4a1.981,1.981,0,0,0-1.981,1.981V89.755a1.981,1.981,0,0,0,1.981,1.981Zm-1.981-3.962H139.81V67.962h27.737ZM108.111,67.962h27.737V87.774H108.111Zm0,0" transform="translate(-78.32 -48.15)"/>
      <path id="Path_1103" data-name="Path 1103" class="cls-1" d="M118.364,115.489,90.047,87.172H95.17a5.944,5.944,0,0,0,5.944-5.944V21.793A13.884,13.884,0,0,0,87.245,7.925H77.34V5.944A5.944,5.944,0,0,0,71.4,0H47.622a5.944,5.944,0,0,0-5.944,5.944V7.925H31.772A13.884,13.884,0,0,0,17.9,21.793V81.229a5.944,5.944,0,0,0,5.944,5.944h5.123L.654,115.489a1.981,1.981,0,1,0,2.8,2.8L34.574,87.172h49.87l31.119,31.119a1.981,1.981,0,0,0,2.8-2.8ZM45.64,5.944a1.981,1.981,0,0,1,1.981-1.981H71.4a1.981,1.981,0,0,1,1.981,1.981V7.925H45.64ZM21.866,81.229V21.793a9.918,9.918,0,0,1,9.906-9.906H87.245a9.918,9.918,0,0,1,9.906,9.906V81.229A1.981,1.981,0,0,1,95.17,83.21H23.847A1.981,1.981,0,0,1,21.866,81.229Zm0,0" transform="translate(0)"/>
      <path id="Path_1104" data-name="Path 1104" class="cls-1" d="M179.584,253.793V233.981A1.981,1.981,0,0,0,177.6,232H122.13a1.981,1.981,0,0,0-1.981,1.981v19.812a1.981,1.981,0,0,0,1.981,1.981H177.6A1.981,1.981,0,0,0,179.584,253.793Zm-3.962-1.981H124.111v-15.85h51.511Zm0,0" transform="translate(-90.357 -174.546)"/>
      <path id="Path_1105" data-name="Path 1105" class="cls-1" d="M158.092,267.887a5.944,5.944,0,1,0-5.944-5.944A5.944,5.944,0,0,0,158.092,267.887Zm0-7.925a1.981,1.981,0,1,1-1.981,1.981A1.981,1.981,0,0,1,158.092,259.962Zm0,0" transform="translate(-114.433 -192.602)"/>
      <path id="Path_1106" data-name="Path 1106" class="cls-1" d="M286.092,267.887a5.944,5.944,0,1,0-5.944-5.944A5.944,5.944,0,0,0,286.092,267.887Zm0-7.925a1.981,1.981,0,1,1-1.981,1.981A1.981,1.981,0,0,1,286.092,259.962Zm0,0" transform="translate(-210.734 -192.602)"/>
      <path id="Path_1107" data-name="Path 1107" class="cls-1" d="M189.716,371.962a1.981,1.981,0,1,0,0-3.962H146.13a1.981,1.981,0,1,0,0,3.962Zm0,0" transform="translate(-108.414 -276.865)"/>
      <path id="Path_1108" data-name="Path 1108" class="cls-1" d="M104.148,417.981a1.981,1.981,0,0,0,1.981,1.981h63.4a1.981,1.981,0,1,0,0-3.962h-63.4A1.981,1.981,0,0,0,104.148,417.981Zm0,0" transform="translate(-78.32 -312.978)"/>
      <path id="Path_1109" data-name="Path 1109" class="cls-1" d="M145.3,464H58.13a1.981,1.981,0,1,0,0,3.962H145.3a1.981,1.981,0,1,0,0-3.962Zm0,0" transform="translate(-42.207 -349.091)"/>
    </g>
  </g>
</svg>
