<svg xmlns="http://www.w3.org/2000/svg" xmlns:xlink="http://www.w3.org/1999/xlink" width="149.487" height="125.105" viewBox="0 0 149.487 125.105">
  <defs>
    <style>
      .cls-1, .cls-2, .cls-3 {
        fill: #3c81e9;
      }

      .cls-2, .cls-3 {
        stroke: #0082f3;
      }

      .cls-2 {
        stroke-linecap: round;
        stroke-width: 4px;
      }

      .cls-4 {
        stroke: none;
      }

      .cls-5 {
        fill: none;
      }

      .cls-6 {
        filter: url(#Path_1094);
      }
    </style>
    <filter id="Path_1094" x="127.487" y="82.476" width="22" height="42.629" filterUnits="userSpaceOnUse">
      <feOffset dy="3" input="SourceAlpha"/>
      <feGaussianBlur stdDeviation="3" result="blur"/>
      <feFlood flood-opacity="0.161"/>
      <feComposite operator="in" in2="blur"/>
      <feComposite in="SourceGraphic"/>
    </filter>
  </defs>
  <g id="Group_192" data-name="Group 192" transform="translate(0)">
    <g id="house">
      <g id="Group_191" data-name="Group 191" transform="translate(0 0)">
        <path id="Path_1093" data-name="Path 1093" class="cls-1" d="M139.81,156.567v-2.189c-.049-1.11.383-2.144-.72-2.1a2.011,2.011,0,0,0-1.921,2.1l.1,2.189c0,.013,0,.026,0,.04a1.446,1.446,0,0,1-1.44,1.541H124.064V121.031L127.1,122.1a13.821,13.821,0,0,1,9.193,12.156l.333,7.626a2.011,2.011,0,0,0,4.017-.176l-.334-7.646c0-.013,0-.026,0-.04a17.837,17.837,0,0,0-11.868-15.712l-5.616-1.985c-.033-.014-.064-.031-.1-.043l-16.772-5.928-.009,0c-.062-.022-.124-.04-.187-.056-.032-.009-.064-.014-.1-.021a3.28,3.28,0,0,0-3.13.851l-.519.519-4.426-2.221v-3.879a22.948,22.948,0,0,0,3.74-3.244l.041-.044a22.691,22.691,0,0,0,5.745-10.915c.019-.1.038-.206.056-.308s.035-.213.05-.319q.04-.267.07-.532c0-.042.011-.085.016-.128.02-.193.038-.385.051-.576h.835a4.706,4.706,0,0,0,4.7-4.7V79.51a4.7,4.7,0,0,0-.061-.74,3.755,3.755,0,0,0,.467-1.816V74.707a3.741,3.741,0,0,0-2.681-3.6v-.317q0-.288-.007-.574a21.449,21.449,0,0,0-5.927-14.3,20.962,20.962,0,0,0-12.5-6.359c-.072-.13-.151-.255-.232-.378-.021-.031-.043-.062-.065-.093q-.123-.179-.259-.347l-.047-.059q-.168-.2-.353-.389l-.013-.012q-.18-.18-.376-.342l-.044-.037a5.791,5.791,0,0,0-.86-.583l-.082-.045c-.151-.081-.3-.156-.463-.223l-.025-.01c-.146-.061-.3-.115-.447-.164l-.124-.039c-.161-.048-.323-.092-.489-.126l-.028,0c-.159-.032-.32-.055-.483-.074l-.134-.014c-.173-.016-.348-.026-.524-.026h-1.9c-.177,0-.351.011-.524.026l-.135.014c-.162.018-.323.042-.482.074l-.029,0c-.166.034-.328.078-.489.126l-.124.039c-.151.049-.3.1-.447.164l-.025.01c-.158.067-.312.143-.463.223l-.083.046c-.147.082-.292.168-.432.262h0c-.147.1-.289.207-.427.319l-.044.037q-.195.163-.376.341l-.014.013q-.185.185-.353.388l-.048.06q-.136.168-.259.346c-.022.031-.044.062-.065.093-.081.123-.16.248-.232.378a20.964,20.964,0,0,0-12.5,6.359,21.4,21.4,0,0,0-4.214,6.4L51.827,51.411a6.228,6.228,0,0,0-8.514.012l-12.633,11.9,0-1.391a2.986,2.986,0,0,0-2.985-2.981h0l-9.471.013a2.99,2.99,0,0,0-2.981,2.99l.026,15.894L1.954,90.384a6.218,6.218,0,0,0,4.078,10.74c.064,0,.127,0,.19,0a6.173,6.173,0,0,0,4.259-1.692l4.506-4.245V130.7c0,1.109.673-10.809,1.782-10.809,0,0,2.965,17.756,2.234-28.482L47.587,64.479,59.071,75.237v1.717c0,.116.007.232.017.346,0,.021,0,.043.006.064a3.731,3.731,0,0,0,.442,1.413,4.7,4.7,0,0,0-.059.733v5.268a4.706,4.706,0,0,0,4.7,4.7h.832c.013.2.031.4.052.6.006.056.014.113.02.169q.029.249.065.5.022.15.047.3c.02.119.042.238.065.358q.07.37.156.741c.01.045.02.091.031.136.04.166.083.331.128.5l.028.1a20.932,20.932,0,0,0,1.489,3.818l.02.04q.376.743.809,1.464c.038.063.076.127.114.19q.117.191.237.38c.061.1.123.19.185.284s.139.213.21.318q.191.282.391.559c.057.079.115.156.173.235q.149.2.3.4c.056.072.111.145.168.216q.208.264.424.524l.061.075c.158.188.32.374.484.557.058.065.116.129.174.193q.173.19.35.376c.065.069.13.138.2.206q.213.219.431.432c.1.1.211.2.317.3.089.084.178.168.269.251.11.1.22.2.331.3l.178.154a21.862,21.862,0,0,0,1.865,1.442v3.837l-4.424,2.222-.519-.52a3.27,3.27,0,0,0-1.811-.917q-.112-.017-.226-.027c-.076-.006-.151-.01-.228-.012s-.152,0-.228,0a3.248,3.248,0,0,0-.623.1c-.039.008-.079.016-.118.026-.061.016-.135.038-.189.057l-7.549,2.668-.02-14.3A3.35,3.35,0,0,0,55.5,95.38h0L39.767,95.4a3.347,3.347,0,0,0-3.342,3.351l.034,24.61-.009.01c-.054.062-.106.126-.16.188-.086.1-.172.2-.255.3-.052.064-.1.131-.154.2-.081.1-.163.2-.242.309-.05.067-.1.135-.148.2-.077.1-.155.209-.23.316-.048.069-.094.139-.141.209-.073.107-.147.214-.218.323-.046.071-.09.144-.135.216-.069.11-.139.219-.205.33-.043.072-.084.146-.126.219-.065.113-.131.225-.194.339-.041.075-.08.152-.121.228-.06.113-.121.226-.179.341-.041.08-.078.162-.118.243-.055.112-.11.224-.163.338-.038.083-.074.168-.111.251-.05.113-.1.226-.149.341-.036.086-.069.174-.1.261-.045.113-.092.226-.134.341-.034.09-.064.181-.1.272-.04.113-.082.226-.12.341-.031.092-.059.186-.088.279-.036.114-.073.227-.107.342-.028.1-.053.192-.079.287-.031.114-.064.228-.094.343-.025.1-.046.195-.069.292-.027.115-.056.23-.081.347-.022.1-.04.2-.06.3s-.047.229-.067.344-.034.209-.05.314-.038.225-.053.339-.027.216-.04.324-.029.224-.04.336-.019.22-.028.33-.019.205-.026.308l-12.922.018a.082.082,0,0,1-.082-.082l-.017-12.128a2.011,2.011,0,0,0-2.011-2.008L19,121.031c-1.11,0-3.98-.363-3.978.748l.017,12.129a4.108,4.108,0,0,0,4.1,4.1h.006l12.739-.018-.8,18.386a5.467,5.467,0,0,0,5.454,5.795h99.289a5.481,5.481,0,0,0,3.982-1.725C140.835,159.351,139.9,158.062,139.81,156.567ZM108.867,84.778a.68.68,0,0,1-.679.679h-.8V80.694h1.482ZM83.522,51.961c0-.007.005-.014.007-.021a1.762,1.762,0,0,1,.408-.753l.014-.015a1.761,1.761,0,0,1,.2-.179l.025-.018a1.764,1.764,0,0,1,.463-.252l.038-.014a1.774,1.774,0,0,1,.248-.064l.046-.007a1.763,1.763,0,0,1,.268-.023h1.9a1.76,1.76,0,0,1,.268.023l.046.007a1.742,1.742,0,0,1,.248.064l.039.014a1.76,1.76,0,0,1,.462.252l.026.019a1.767,1.767,0,0,1,.194.178l.015.017a1.762,1.762,0,0,1,.408.753c0,.007.005.014.007.021a1.754,1.754,0,0,1,.052.418v6.784a1.766,1.766,0,0,1-1.764,1.764h-1.9a1.766,1.766,0,0,1-1.764-1.764V52.378h0A1.764,1.764,0,0,1,83.522,51.961ZM26.657,62.974l.007,4.132-7.388,6.96-.018-11.082ZM62.124,66.8c-.038.206-.076.413-.108.621-.018.116-.033.233-.049.35-.026.19-.054.379-.075.57-.018.16-.031.32-.046.48s-.03.3-.04.451q-.033.474-.046.947-.007.286-.007.574v.317l-.012,0a3.69,3.69,0,0,0-.358.127l-.112.048c-.1.046-.2.1-.3.152-.014.008-.03.014-.044.022L48.958,60.253a2.011,2.011,0,0,0-2.753,0L7.723,96.508a2.2,2.2,0,1,1-3.012-3.2L46.07,54.349a2.2,2.2,0,0,1,3.008,0L62.159,66.6C62.146,66.666,62.136,66.733,62.124,66.8Zm2.054,18.658a.68.68,0,0,1-.679-.679V80.695h1.482v4.763Zm-1.086-9.41v-1.06h.67a2.011,2.011,0,0,0,2.011-2.011V70.791q0-.236.006-.472c.008-.306.025-.613.049-.919.006-.078.015-.156.022-.234.022-.236.047-.472.078-.707.01-.077.021-.153.033-.23q.055-.373.124-.744c.01-.055.02-.111.031-.166.06-.3.128-.6.2-.9v0a17.386,17.386,0,0,1,4.274-7.716,17,17,0,0,1,8.853-4.937v5.405a5.792,5.792,0,0,0,5.786,5.785h1.9a5.792,5.792,0,0,0,5.785-5.785v-5.4a17,17,0,0,1,8.854,4.937,17.435,17.435,0,0,1,4.816,11.627q.006.235.006.471v2.185a2.011,2.011,0,0,0,2.011,2.011h.671v1.06Zm5.986,13.764-.01-.093q-.027-.253-.043-.5c0-.027,0-.054-.006-.08-.011-.193-.017-.385-.017-.576V80.695h34.362v7.822c0,.193-.006.387-.017.582,0,.022,0,.045,0,.067q-.016.257-.044.515c0,.03-.007.061-.01.091-.022.189-.048.379-.079.569v0a19.478,19.478,0,0,1-7.562,11.643l-.081.059c-.119.086-.24.169-.361.251-.067.045-.132.092-.2.136l-.107.068c-.123.079-.245.158-.369.234l-.018.013a12.534,12.534,0,0,1-3.455,1.484l-.21.052c-4.289,1.067-5.274,1.064-9.578-.021a12.508,12.508,0,0,1-3.422-1.479l-.007,0c-.044-.027-.088-.056-.132-.084-.131-.082-.262-.164-.392-.251l-.1-.065C73.052,99.563,69.621,94.455,69.078,89.811Zm7.675,23.122a3.164,3.164,0,0,0,2.048-2.972V107.7a14.851,14.851,0,0,0,1.482.459,23.41,23.41,0,0,0,5.8.933,23.446,23.446,0,0,0,5.732-.909l.21-.052a14.88,14.88,0,0,0,1.538-.475v2.3a3.163,3.163,0,0,0,2.048,2.972l3.222,1.617-.115.09c-.089.067-.179.131-.268.2q-.254.184-.512.361-.144.1-.29.194-.264.173-.533.337c-.091.056-.182.113-.274.168q-.328.195-.664.376c-.053.029-.1.059-.157.087q-.415.221-.841.422c-.076.036-.153.069-.23.1-.209.1-.42.19-.632.28-.1.043-.205.084-.308.125q-.289.115-.58.223c-.107.039-.215.078-.323.116-.2.07-.405.136-.61.2-.1.031-.2.063-.293.092q-.4.12-.813.224l-.1.026c-.307.076-.616.144-.927.207-.089.018-.179.033-.269.049-.223.042-.447.081-.673.116-.111.017-.223.032-.334.047q-.314.043-.63.077c-.113.012-.227.024-.341.034-.223.02-.448.036-.673.049-.1.006-.2.013-.293.018-.323.015-.646.023-.971.023s-.648-.009-.971-.023c-.1,0-.2-.012-.293-.018-.225-.013-.45-.029-.674-.049-.114-.01-.227-.022-.34-.034q-.317-.034-.631-.077c-.111-.015-.223-.03-.334-.047-.225-.034-.45-.074-.673-.116-.089-.017-.179-.031-.268-.049-.311-.062-.621-.131-.928-.207l-.1-.026q-.41-.1-.815-.224c-.1-.029-.194-.061-.291-.091-.205-.064-.409-.131-.612-.2-.107-.037-.214-.076-.32-.115q-.293-.108-.584-.224c-.1-.041-.2-.081-.3-.124-.215-.09-.427-.185-.639-.283-.074-.034-.149-.066-.222-.1q-.426-.2-.844-.424c-.05-.026-.1-.055-.147-.082q-.34-.185-.674-.381c-.09-.054-.179-.109-.269-.164q-.272-.167-.539-.342-.143-.094-.284-.19-.262-.178-.52-.366c-.087-.063-.175-.126-.262-.191-.039-.03-.078-.062-.117-.091ZM36.539,158.147a1.446,1.446,0,0,1-1.44-1.541c0-.013,0-.026,0-.04l.976-22.307a13.839,13.839,0,0,1,3.781-8.65c.021-.02.043-.038.063-.059a13.9,13.9,0,0,1,4.555-3.137l.107-.045c.227-.094.456-.184.687-.266l3.033-1.072v37.116Zm13.007-41.82-5.616,1.985q-.316.112-.626.234c-.066.026-.13.055-.195.081l-.153.064c-.089.037-.178.073-.266.111s-.192.089-.288.133-.21.094-.313.144-.192.1-.288.146-.2.1-.3.152-.179.1-.269.149-.2.111-.3.169-.174.105-.262.158l-.191.115-.029-20.544,14.378-.02.021,15.042-5.2,1.839C49.609,116.3,49.578,116.313,49.546,116.327Zm2.778,41.82V119.61l13.3-4.7,1.539,7.554a10.659,10.659,0,0,0,4.746,6.862l12.262,7.716v21.107Zm21.728-32.226A6.619,6.619,0,0,1,71.1,121.66L70.154,117c.075.063.147.131.223.193a24.75,24.75,0,0,0,15.806,5.626,25.348,25.348,0,0,0,4.768-.453A24.624,24.624,0,0,0,102.212,117l-.95,4.664a6.616,6.616,0,0,1-2.947,4.261l-12.132,7.634Zm45.991,32.226H88.194V137.04l12.263-7.716a10.656,10.656,0,0,0,4.746-6.862l1.539-7.554,13.3,4.7v38.537Z" transform="translate(0 -46.592)"/>
        <g class="cls-6" transform="matrix(1, 0, 0, 1, 0, 0)">
          <path id="Path_1094-2" data-name="Path 1094" class="cls-2" d="M0-3.337V17.291" transform="translate(138.49 93.81)"/>
        </g>
      </g>
    </g>
    <g id="Rectangle_78" data-name="Rectangle 78" class="cls-3" transform="translate(15.918 70.141)">
      <rect class="cls-4" width="3.184" height="6.367"/>
      <rect class="cls-5" x="0.5" y="0.5" width="2.184" height="5.367"/>
    </g>
  </g>
</svg>
